SplineFontDB: 3.2
FontName: Atari-825-Proportional
FullName: Atari 825 Proportional Regular
FamilyName: Atari 825 Proportional
Weight: Book
Copyright: Copyright jeffpiep 2020
Version: 1.0
ItalicAngle: 0
UnderlinePosition: 74
UnderlineWidth: 49
Ascent: 800
Descent: 200
InvalidEm: 0
sfntRevision: 0x00010000
LayerCount: 2
Layer: 0 1 "Back" 1
Layer: 1 1 "Fore" 0
XUID: [1021 376 -1330786101 15701]
StyleMap: 0x0040
FSType: 4
OS2Version: 2
OS2_WeightWidthSlopeOnly: 0
OS2_UseTypoMetrics: 0
CreationTime: 1592443160
ModificationTime: 1592482841
PfmFamily: 81
TTFWeight: 400
TTFWidth: 5
LineGap: 0
VLineGap: 0
Panose: 0 0 4 0 0 0 0 0 0 0
OS2TypoAscent: 810
OS2TypoAOffset: 0
OS2TypoDescent: -231
OS2TypoDOffset: 0
OS2TypoLinegap: 0
OS2WinAscent: 810
OS2WinAOffset: 0
OS2WinDescent: 231
OS2WinDOffset: 0
HheadAscent: 810
HheadAOffset: 0
HheadDescent: -231
HheadDOffset: 0
OS2SubXSize: 500
OS2SubYSize: 500
OS2SubXOff: 0
OS2SubYOff: -116
OS2SupXSize: 500
OS2SupYSize: 500
OS2SupXOff: 0
OS2SupYOff: 500
OS2StrikeYSize: 50
OS2StrikeYPos: 200
OS2CapHeight: 821
OS2XHeight: 590
OS2Vendor: 'FSTR'
OS2CodePages: 00000001.00000000
OS2UnicodeRanges: 80000001.00000000.00000000.00000000
MarkAttachClasses: 1
DEI: 91125
ShortTable: maxp 16
  1
  0
  102
  543
  21
  0
  0
  2
  0
  0
  0
  0
  0
  0
  0
  0
EndShort
LangName: 1033 "" "" "Regular" "Atari 825 Proportional" "" "Version 1.0" "" "FontStruct is a trademark of FontStruct.com" "https://fontstruct.com" "jeffpiep" "+IBwA-Atari 825 Proportional+IB0A was built with FontStruct+AAoA-Designer description: <p>Atari 825 proportional typeface extracted from the Centronics 737 printer manual.</p>+AAoA" "https://fontstruct.com/fontstructions/show/1773527/atari-825-proportional" "https://fontstruct.com/fontstructors/show/1011029/jeffpiep" "Open Font License" "" "" "" "" "" "Five big quacking zephyrs jolt my wax bed"
Encoding: win
UnicodeInterp: none
NameList: AGL For New Fonts
DisplaySize: -48
AntiAlias: 1
FitToEm: 0
WinInfo: 0 38 12
BeginPrivate: 0

StartChar: exclam
Encoding: 33 33 1
Width: 218
VWidth: 715
Flags: W
LayerCount: 2
Fore
SplineSet
119.649414062 0 m 1,0,1
 103.170898438 0 103.170898438 0 90.9912109375 13.6123046875 c 0,2,3
 79.52734375 27.2255859375 79.52734375 27.2255859375 79.52734375 45.13671875 c 256,4,5
 79.52734375 63.7646484375 79.52734375 63.7646484375 90.9912109375 77.3779296875 c 0,6,7
 103.170898438 90.9912109375 103.170898438 90.9912109375 119.649414062 90.9912109375 c 256,8,9
 136.127929688 90.9912109375 136.127929688 90.9912109375 147.591796875 77.3779296875 c 0,10,11
 159.771484375 63.7646484375 159.771484375 63.7646484375 159.055664062 45.13671875 c 256,12,13
 159.055664062 26.509765625 159.055664062 26.509765625 147.591796875 13.6123046875 c 0,14,15
 136.127929688 0 136.127929688 0 119.649414062 0 c 1,16,-1
 119.649414062 0 l 1,0,1
119.649414062 248.61328125 m 1,17,18
 103.170898438 248.61328125 103.170898438 248.61328125 90.9912109375 262.225585938 c 0,19,20
 79.52734375 275.838867188 79.52734375 275.838867188 79.52734375 294.466796875 c 256,21,22
 79.52734375 313.094726562 79.52734375 313.094726562 90.9912109375 326.708007812 c 0,23,24
 96.005859375 332.439453125 96.005859375 332.439453125 102.454101562 336.021484375 c 1,25,-1
 102.454101562 336.021484375 l 1,26,27
 96.005859375 338.88671875 96.005859375 338.88671875 90.9912109375 344.619140625 c 0,28,29
 79.52734375 358.232421875 79.52734375 358.232421875 79.52734375 376.860351562 c 256,30,31
 79.52734375 395.48828125 79.52734375 395.48828125 90.9912109375 409.1015625 c 0,32,33
 96.005859375 414.83203125 96.005859375 414.83203125 102.454101562 418.415039062 c 1,34,-1
 102.454101562 418.415039062 l 1,35,36
 96.005859375 421.280273438 96.005859375 421.280273438 90.9912109375 427.729492188 c 0,37,38
 79.52734375 441.341796875 79.52734375 441.341796875 79.52734375 459.970703125 c 256,39,40
 79.52734375 478.59765625 79.52734375 478.59765625 90.9912109375 492.2109375 c 0,41,42
 96.005859375 497.942382812 96.005859375 497.942382812 102.454101562 501.524414062 c 1,43,-1
 102.454101562 501.524414062 l 1,44,45
 96.005859375 504.390625 96.005859375 504.390625 90.9912109375 510.838867188 c 0,46,47
 79.52734375 524.452148438 79.52734375 524.452148438 79.52734375 543.079101562 c 256,48,49
 79.52734375 561.708007812 79.52734375 561.708007812 90.9912109375 575.3203125 c 0,50,51
 103.170898438 588.93359375 103.170898438 588.93359375 119.649414062 588.216796875 c 260,52,53
 136.127929688 588.216796875 136.127929688 588.216796875 147.591796875 575.3203125 c 0,54,55
 159.771484375 561.708007812 159.771484375 561.708007812 159.055664062 543.079101562 c 256,56,57
 159.055664062 524.452148438 159.055664062 524.452148438 147.591796875 510.838867188 c 0,58,59
 142.576171875 505.107421875 142.576171875 505.107421875 136.127929688 501.524414062 c 1,60,-1
 136.127929688 501.524414062 l 1,61,62
 142.576171875 497.942382812 142.576171875 497.942382812 147.591796875 492.2109375 c 0,63,64
 159.771484375 478.59765625 159.771484375 478.59765625 159.055664062 459.970703125 c 256,65,66
 159.055664062 441.341796875 159.055664062 441.341796875 147.591796875 427.729492188 c 0,67,68
 142.576171875 421.997070312 142.576171875 421.997070312 136.127929688 418.415039062 c 1,69,-1
 136.127929688 418.415039062 l 1,70,71
 142.576171875 414.83203125 142.576171875 414.83203125 147.591796875 409.1015625 c 0,72,73
 159.771484375 395.48828125 159.771484375 395.48828125 159.055664062 376.860351562 c 256,74,75
 159.055664062 358.232421875 159.055664062 358.232421875 147.591796875 344.619140625 c 0,76,77
 142.576171875 338.88671875 142.576171875 338.88671875 136.127929688 336.021484375 c 1,78,-1
 136.127929688 336.021484375 l 1,79,80
 142.576171875 332.439453125 142.576171875 332.439453125 147.591796875 326.708007812 c 0,81,82
 159.771484375 313.094726562 159.771484375 313.094726562 159.055664062 294.466796875 c 256,83,84
 159.055664062 275.838867188 159.055664062 275.838867188 147.591796875 262.225585938 c 128,-1,85
 136.127929688 248.61328125 136.127929688 248.61328125 119.649414062 248.61328125 c 1,86,-1
 119.649414062 248.61328125 l 1,17,18
EndSplineSet
EndChar

StartChar: quotedbl
Encoding: 34 34 2
Width: 297
VWidth: 715
Flags: W
LayerCount: 2
Fore
SplineSet
39.4052734375 331.72265625 m 1,0,1
 22.927734375 331.72265625 22.927734375 331.72265625 11.4638671875 344.619140625 c 256,2,3
 0 358.232421875 0 358.232421875 0 376.860351562 c 256,4,5
 0 395.48828125 0 395.48828125 11.4638671875 409.1015625 c 0,6,7
 16.478515625 414.83203125 16.478515625 414.83203125 22.927734375 418.415039062 c 1,8,-1
 22.927734375 418.415039062 l 1,9,10
 17.1953125 421.280273438 17.1953125 421.280273438 11.4638671875 427.729492188 c 0,11,12
 0 441.341796875 0 441.341796875 0 459.970703125 c 256,13,14
 0 478.59765625 0 478.59765625 11.4638671875 492.2109375 c 0,15,16
 16.478515625 497.942382812 16.478515625 497.942382812 22.927734375 501.524414062 c 1,17,-1
 22.927734375 501.524414062 l 1,18,19
 17.1953125 504.390625 17.1953125 504.390625 11.4638671875 510.838867188 c 0,20,21
 0 524.452148438 0 524.452148438 0 543.079101562 c 256,22,23
 0 561.708007812 0 561.708007812 11.4638671875 575.3203125 c 256,24,25
 22.927734375 588.93359375 22.927734375 588.93359375 39.4052734375 588.216796875 c 256,26,27
 55.8837890625 588.216796875 55.8837890625 588.216796875 68.064453125 575.3203125 c 0,28,29
 79.52734375 561.708007812 79.52734375 561.708007812 79.52734375 543.079101562 c 256,30,31
 79.52734375 524.452148438 79.52734375 524.452148438 68.064453125 510.838867188 c 0,32,33
 63.048828125 505.107421875 63.048828125 505.107421875 56.6005859375 501.524414062 c 1,34,-1
 56.6005859375 501.524414062 l 1,35,36
 62.3330078125 497.942382812 62.3330078125 497.942382812 68.064453125 492.2109375 c 0,37,38
 79.52734375 478.59765625 79.52734375 478.59765625 79.52734375 459.970703125 c 256,39,40
 79.52734375 441.341796875 79.52734375 441.341796875 68.064453125 427.729492188 c 0,41,42
 63.048828125 421.997070312 63.048828125 421.997070312 56.6005859375 418.415039062 c 1,43,-1
 56.6005859375 418.415039062 l 1,44,45
 62.3330078125 414.83203125 62.3330078125 414.83203125 68.064453125 409.1015625 c 0,46,47
 79.52734375 395.48828125 79.52734375 395.48828125 79.52734375 376.860351562 c 256,48,49
 79.52734375 358.232421875 79.52734375 358.232421875 68.064453125 344.619140625 c 0,50,51
 55.8837890625 331.006835938 55.8837890625 331.006835938 39.4052734375 331.72265625 c 1,52,-1
 39.4052734375 331.72265625 l 1,0,1
198.4609375 331.72265625 m 1,53,54
 181.981445312 331.72265625 181.981445312 331.72265625 170.517578125 344.619140625 c 256,55,56
 159.055664062 358.232421875 159.055664062 358.232421875 159.055664062 376.860351562 c 256,57,58
 159.055664062 395.48828125 159.055664062 395.48828125 170.517578125 409.1015625 c 0,59,60
 175.533203125 414.83203125 175.533203125 414.83203125 181.981445312 418.415039062 c 1,61,-1
 181.981445312 418.415039062 l 1,62,63
 176.25 421.280273438 176.25 421.280273438 170.517578125 427.729492188 c 0,64,65
 159.055664062 441.341796875 159.055664062 441.341796875 159.055664062 459.970703125 c 256,66,67
 159.055664062 478.59765625 159.055664062 478.59765625 170.517578125 492.2109375 c 0,68,69
 175.533203125 497.942382812 175.533203125 497.942382812 181.981445312 501.524414062 c 1,70,-1
 181.981445312 501.524414062 l 1,71,72
 176.25 504.390625 176.25 504.390625 170.517578125 510.838867188 c 0,73,74
 159.055664062 524.452148438 159.055664062 524.452148438 159.055664062 543.079101562 c 256,75,76
 159.055664062 561.708007812 159.055664062 561.708007812 170.517578125 575.3203125 c 256,77,78
 181.981445312 588.93359375 181.981445312 588.93359375 198.4609375 588.216796875 c 256,79,80
 214.939453125 588.216796875 214.939453125 588.216796875 227.119140625 575.3203125 c 0,81,82
 238.58203125 561.708007812 238.58203125 561.708007812 238.58203125 543.079101562 c 256,83,84
 238.58203125 524.452148438 238.58203125 524.452148438 227.119140625 510.838867188 c 0,85,86
 222.103515625 505.107421875 222.103515625 505.107421875 215.65625 501.524414062 c 1,87,-1
 215.65625 501.524414062 l 1,88,89
 221.38671875 497.942382812 221.38671875 497.942382812 227.119140625 492.2109375 c 0,90,91
 238.58203125 478.59765625 238.58203125 478.59765625 238.58203125 459.970703125 c 256,92,93
 238.58203125 441.341796875 238.58203125 441.341796875 227.119140625 427.729492188 c 0,94,95
 222.103515625 421.997070312 222.103515625 421.997070312 215.65625 418.415039062 c 1,96,-1
 215.65625 418.415039062 l 1,97,98
 221.38671875 414.83203125 221.38671875 414.83203125 227.119140625 409.1015625 c 0,99,100
 238.58203125 395.48828125 238.58203125 395.48828125 238.58203125 376.860351562 c 256,101,102
 238.58203125 358.232421875 238.58203125 358.232421875 227.119140625 344.619140625 c 0,103,104
 214.939453125 331.006835938 214.939453125 331.006835938 198.4609375 331.72265625 c 1,105,-1
 198.4609375 331.72265625 l 1,53,54
EndSplineSet
EndChar

StartChar: numbersign
Encoding: 35 35 3
Width: 456
VWidth: 715
Flags: W
LayerCount: 2
Fore
SplineSet
59.4658203125 171.951171875 m 1,0,1
 59.4658203125 171.951171875 l 1,2,-1
 59.4658203125 171.951171875 l 1,3,4
 59.4658203125 171.951171875 l 1,5,-1
 59.4658203125 171.951171875 l 1,0,1
138.994140625 171.951171875 m 1,6,7
 138.994140625 171.951171875 l 1,8,-1
 138.994140625 171.951171875 l 1,9,10
 138.994140625 171.951171875 l 1,11,-1
 138.994140625 171.951171875 l 1,6,7
218.521484375 171.951171875 m 1,12,13
 218.521484375 171.951171875 l 1,14,-1
 218.521484375 171.951171875 l 1,15,16
 218.521484375 171.951171875 l 1,17,-1
 218.521484375 171.951171875 l 1,12,13
298.765625 171.951171875 m 1,18,19
 298.765625 171.951171875 l 1,20,-1
 298.765625 171.951171875 l 1,21,22
 298.765625 171.951171875 l 1,23,-1
 298.765625 171.951171875 l 1,18,19
138.994140625 250.762695312 m 1,24,25
 147.591796875 256.494140625 147.591796875 256.494140625 159.055664062 256.494140625 c 0,26,27
 169.802734375 256.494140625 169.802734375 256.494140625 179.116210938 250.762695312 c 1,28,-1
 179.116210938 250.762695312 l 1,29,30
 187.713867188 256.494140625 187.713867188 256.494140625 198.4609375 256.494140625 c 0,31,32
 209.923828125 256.494140625 209.923828125 256.494140625 218.521484375 250.762695312 c 1,33,-1
 218.521484375 250.762695312 l 1,34,35
 227.834960938 256.494140625 227.834960938 256.494140625 238.58203125 256.494140625 c 0,36,37
 250.045898438 256.494140625 250.045898438 256.494140625 258.643554688 250.762695312 c 1,38,-1
 258.643554688 250.762695312 l 1,39,40
 260.076171875 251.479492188 260.076171875 251.479492188 261.509765625 252.911132812 c 1,41,-1
 261.509765625 252.911132812 l 1,42,43
 255.061523438 256.494140625 255.061523438 256.494140625 250.045898438 262.225585938 c 0,44,45
 238.58203125 275.838867188 238.58203125 275.838867188 238.58203125 294.466796875 c 256,46,47
 238.58203125 313.094726562 238.58203125 313.094726562 250.045898438 326.708007812 c 0,48,49
 255.061523438 332.439453125 255.061523438 332.439453125 261.509765625 336.021484375 c 1,50,-1
 261.509765625 336.021484375 l 1,51,52
 260.076171875 336.73828125 260.076171875 336.73828125 258.643554688 337.455078125 c 1,53,-1
 258.643554688 337.455078125 l 1,54,55
 250.045898438 331.72265625 250.045898438 331.72265625 238.58203125 331.72265625 c 0,56,57
 227.834960938 331.72265625 227.834960938 331.72265625 218.521484375 337.455078125 c 1,58,-1
 218.521484375 337.455078125 l 1,59,60
 209.923828125 331.72265625 209.923828125 331.72265625 198.4609375 331.72265625 c 0,61,62
 187.713867188 331.72265625 187.713867188 331.72265625 179.116210938 337.455078125 c 1,63,-1
 179.116210938 337.455078125 l 1,64,65
 169.802734375 331.72265625 169.802734375 331.72265625 159.055664062 331.72265625 c 0,66,67
 147.591796875 331.72265625 147.591796875 331.72265625 138.994140625 337.455078125 c 1,68,-1
 138.994140625 337.455078125 l 1,69,70
 137.561523438 336.73828125 137.561523438 336.73828125 136.127929688 336.021484375 c 1,71,-1
 136.127929688 336.021484375 l 1,72,73
 142.576171875 332.439453125 142.576171875 332.439453125 147.591796875 326.708007812 c 0,74,75
 159.771484375 313.094726562 159.771484375 313.094726562 159.055664062 294.466796875 c 256,76,77
 159.055664062 275.838867188 159.055664062 275.838867188 147.591796875 262.225585938 c 0,78,79
 142.576171875 256.494140625 142.576171875 256.494140625 136.127929688 252.911132812 c 1,80,-1
 136.127929688 252.911132812 l 1,81,82
 137.561523438 252.1953125 137.561523438 252.1953125 138.994140625 250.762695312 c 1,83,-1
 138.994140625 250.762695312 l 1,24,25
99.587890625 337.455078125 m 1,84,85
 99.587890625 337.455078125 l 1,86,-1
 99.587890625 337.455078125 l 1,87,88
 99.587890625 337.455078125 l 1,89,-1
 99.587890625 337.455078125 l 1,84,85
179.116210938 337.455078125 m 1,90,91
 179.116210938 337.455078125 l 1,92,-1
 179.116210938 337.455078125 l 1,93,94
 179.116210938 337.455078125 l 1,95,-1
 179.116210938 337.455078125 l 1,90,91
258.643554688 337.455078125 m 1,96,97
 258.643554688 337.455078125 l 1,98,-1
 258.643554688 337.455078125 l 1,99,100
 258.643554688 337.455078125 l 1,101,-1
 258.643554688 337.455078125 l 1,96,97
338.171875 337.455078125 m 1,102,103
 338.171875 337.455078125 l 1,104,-1
 338.171875 337.455078125 l 1,105,106
 338.171875 337.455078125 l 1,107,-1
 338.171875 337.455078125 l 1,102,103
119.649414062 0 m 1,108,109
 103.170898438 0 103.170898438 0 90.9912109375 13.6123046875 c 0,110,111
 79.52734375 27.2255859375 79.52734375 27.2255859375 79.52734375 45.13671875 c 256,112,113
 79.52734375 63.7646484375 79.52734375 63.7646484375 90.9912109375 77.3779296875 c 0,114,115
 96.005859375 83.1103515625 96.005859375 83.1103515625 102.454101562 86.6923828125 c 1,116,-1
 102.454101562 86.6923828125 l 1,117,118
 96.005859375 90.2744140625 96.005859375 90.2744140625 90.9912109375 96.005859375 c 0,119,120
 79.52734375 109.618164062 79.52734375 109.618164062 79.52734375 128.247070312 c 256,121,122
 79.52734375 146.875 79.52734375 146.875 90.9912109375 160.487304688 c 0,123,124
 96.005859375 166.219726562 96.005859375 166.219726562 102.454101562 169.802734375 c 1,125,-1
 102.454101562 169.802734375 l 1,126,127
 101.021484375 170.517578125 101.021484375 170.517578125 99.587890625 171.951171875 c 1,128,-1
 99.587890625 171.951171875 l 1,129,130
 90.9912109375 166.219726562 90.9912109375 166.219726562 79.52734375 165.502929688 c 0,131,132
 68.7802734375 165.502929688 68.7802734375 165.502929688 59.4658203125 171.951171875 c 1,133,-1
 59.4658203125 171.951171875 l 1,134,135
 50.869140625 166.219726562 50.869140625 166.219726562 39.4052734375 165.502929688 c 0,136,137
 22.927734375 165.502929688 22.927734375 165.502929688 11.4638671875 179.116210938 c 256,138,139
 0 192.728515625 0 192.728515625 0 211.356445312 c 256,140,141
 0 229.985351562 0 229.985351562 11.4638671875 243.59765625 c 256,142,143
 22.927734375 257.209960938 22.927734375 257.209960938 39.4052734375 256.494140625 c 0,144,145
 50.869140625 256.494140625 50.869140625 256.494140625 59.4658203125 250.762695312 c 1,146,-1
 59.4658203125 250.762695312 l 1,147,148
 68.7802734375 256.494140625 68.7802734375 256.494140625 79.52734375 256.494140625 c 0,149,150
 90.9912109375 256.494140625 90.9912109375 256.494140625 99.587890625 250.762695312 c 1,151,-1
 99.587890625 250.762695312 l 1,152,153
 101.021484375 251.479492188 101.021484375 251.479492188 102.454101562 252.911132812 c 1,154,-1
 102.454101562 252.911132812 l 1,155,156
 96.005859375 256.494140625 96.005859375 256.494140625 90.9912109375 262.225585938 c 0,157,158
 79.52734375 275.838867188 79.52734375 275.838867188 79.52734375 294.466796875 c 256,159,160
 79.52734375 313.094726562 79.52734375 313.094726562 90.9912109375 326.708007812 c 0,161,162
 96.005859375 332.439453125 96.005859375 332.439453125 102.454101562 336.021484375 c 1,163,-1
 102.454101562 336.021484375 l 1,164,165
 101.021484375 336.73828125 101.021484375 336.73828125 99.587890625 337.455078125 c 1,166,167
 90.9912109375 331.72265625 90.9912109375 331.72265625 79.52734375 331.72265625 c 0,168,169
 68.7802734375 331.72265625 68.7802734375 331.72265625 59.4658203125 337.455078125 c 1,170,-1
 59.4658203125 337.455078125 l 1,171,172
 50.869140625 331.72265625 50.869140625 331.72265625 39.4052734375 331.72265625 c 0,173,174
 22.927734375 331.72265625 22.927734375 331.72265625 11.4638671875 344.619140625 c 256,175,176
 0 358.232421875 0 358.232421875 0 376.860351562 c 256,177,178
 0 395.48828125 0 395.48828125 11.4638671875 409.1015625 c 256,179,180
 22.927734375 422.713867188 22.927734375 422.713867188 39.4052734375 422.713867188 c 0,181,182
 50.869140625 422.713867188 50.869140625 422.713867188 59.4658203125 416.982421875 c 1,183,-1
 59.4658203125 416.982421875 l 1,184,185
 68.7802734375 422.713867188 68.7802734375 422.713867188 79.52734375 422.713867188 c 0,186,187
 90.9912109375 422.713867188 90.9912109375 422.713867188 99.587890625 416.982421875 c 1,188,-1
 99.587890625 416.982421875 l 1,189,190
 101.021484375 417.698242188 101.021484375 417.698242188 102.454101562 418.415039062 c 1,191,-1
 102.454101562 418.415039062 l 1,192,193
 96.005859375 421.280273438 96.005859375 421.280273438 90.9912109375 427.729492188 c 0,194,195
 79.52734375 441.341796875 79.52734375 441.341796875 79.52734375 459.970703125 c 256,196,197
 79.52734375 478.59765625 79.52734375 478.59765625 90.9912109375 492.2109375 c 0,198,199
 96.005859375 497.942382812 96.005859375 497.942382812 102.454101562 501.524414062 c 1,200,-1
 102.454101562 501.524414062 l 1,201,202
 96.005859375 504.390625 96.005859375 504.390625 90.9912109375 510.838867188 c 0,203,204
 79.52734375 524.452148438 79.52734375 524.452148438 79.52734375 543.079101562 c 256,205,206
 79.52734375 561.708007812 79.52734375 561.708007812 90.9912109375 575.3203125 c 0,207,208
 103.170898438 588.93359375 103.170898438 588.93359375 119.649414062 588.216796875 c 256,209,210
 136.127929688 588.216796875 136.127929688 588.216796875 147.591796875 575.3203125 c 0,211,212
 159.771484375 561.708007812 159.771484375 561.708007812 159.055664062 543.079101562 c 256,213,214
 159.055664062 524.452148438 159.055664062 524.452148438 147.591796875 510.838867188 c 0,215,216
 142.576171875 505.107421875 142.576171875 505.107421875 136.127929688 501.524414062 c 1,217,-1
 136.127929688 501.524414062 l 1,218,219
 142.576171875 497.942382812 142.576171875 497.942382812 147.591796875 492.2109375 c 0,220,221
 159.771484375 478.59765625 159.771484375 478.59765625 159.055664062 459.970703125 c 256,222,223
 159.055664062 441.341796875 159.055664062 441.341796875 147.591796875 427.729492188 c 0,224,225
 142.576171875 421.997070312 142.576171875 421.997070312 136.127929688 418.415039062 c 1,226,-1
 136.127929688 418.415039062 l 1,227,228
 137.561523438 417.698242188 137.561523438 417.698242188 138.994140625 416.982421875 c 1,229,-1
 138.994140625 416.982421875 l 1,230,231
 147.591796875 422.713867188 147.591796875 422.713867188 159.055664062 422.713867188 c 0,232,233
 169.802734375 422.713867188 169.802734375 422.713867188 179.116210938 416.982421875 c 1,234,-1
 179.116210938 416.982421875 l 1,235,236
 187.713867188 422.713867188 187.713867188 422.713867188 198.4609375 422.713867188 c 0,237,238
 209.923828125 422.713867188 209.923828125 422.713867188 218.521484375 416.982421875 c 1,239,-1
 218.521484375 416.982421875 l 1,240,241
 227.834960938 422.713867188 227.834960938 422.713867188 238.58203125 422.713867188 c 0,242,243
 250.045898438 422.713867188 250.045898438 422.713867188 258.643554688 416.982421875 c 1,244,-1
 258.643554688 416.982421875 l 1,245,246
 260.076171875 417.698242188 260.076171875 417.698242188 261.509765625 418.415039062 c 1,247,-1
 261.509765625 418.415039062 l 1,248,249
 255.061523438 421.280273438 255.061523438 421.280273438 250.045898438 427.729492188 c 0,250,251
 238.58203125 441.341796875 238.58203125 441.341796875 238.58203125 459.970703125 c 256,252,253
 238.58203125 478.59765625 238.58203125 478.59765625 250.045898438 492.2109375 c 0,254,255
 255.061523438 497.942382812 255.061523438 497.942382812 261.509765625 501.524414062 c 1,256,-1
 261.509765625 501.524414062 l 1,257,258
 255.061523438 504.390625 255.061523438 504.390625 250.045898438 510.838867188 c 0,259,260
 238.58203125 524.452148438 238.58203125 524.452148438 238.58203125 543.079101562 c 256,261,262
 238.58203125 561.708007812 238.58203125 561.708007812 250.045898438 575.3203125 c 0,263,264
 262.225585938 588.93359375 262.225585938 588.93359375 278.704101562 588.216796875 c 256,265,266
 295.18359375 588.216796875 295.18359375 588.216796875 306.646484375 575.3203125 c 0,267,268
 318.826171875 561.708007812 318.826171875 561.708007812 318.109375 543.079101562 c 256,269,270
 318.109375 524.452148438 318.109375 524.452148438 306.646484375 510.838867188 c 0,271,272
 301.631835938 505.107421875 301.631835938 505.107421875 295.18359375 501.524414062 c 1,273,-1
 295.18359375 501.524414062 l 1,274,275
 301.631835938 497.942382812 301.631835938 497.942382812 306.646484375 492.2109375 c 0,276,277
 318.826171875 478.59765625 318.826171875 478.59765625 318.109375 459.970703125 c 256,278,279
 318.109375 441.341796875 318.109375 441.341796875 306.646484375 427.729492188 c 0,280,281
 301.631835938 421.997070312 301.631835938 421.997070312 295.18359375 418.415039062 c 1,282,-1
 295.18359375 418.415039062 l 1,283,284
 296.616210938 417.698242188 296.616210938 417.698242188 298.765625 416.982421875 c 1,285,-1
 298.765625 416.982421875 l 1,286,287
 307.36328125 422.713867188 307.36328125 422.713867188 318.109375 422.713867188 c 0,288,289
 328.856445312 422.713867188 328.856445312 422.713867188 338.171875 416.982421875 c 1,290,-1
 338.171875 416.982421875 l 1,291,292
 346.768554688 422.713867188 346.768554688 422.713867188 358.232421875 422.713867188 c 0,293,294
 374.709960938 422.713867188 374.709960938 422.713867188 386.173828125 409.1015625 c 256,295,296
 397.637695312 395.48828125 397.637695312 395.48828125 397.637695312 376.860351562 c 256,297,298
 397.637695312 358.232421875 397.637695312 358.232421875 386.173828125 344.619140625 c 256,299,300
 374.709960938 331.006835938 374.709960938 331.006835938 358.232421875 331.72265625 c 0,301,302
 346.768554688 331.72265625 346.768554688 331.72265625 338.171875 337.455078125 c 1,303,304
 328.856445312 331.72265625 328.856445312 331.72265625 318.109375 331.72265625 c 0,305,306
 306.646484375 331.72265625 306.646484375 331.72265625 298.765625 337.455078125 c 1,307,308
 297.333007812 336.73828125 297.333007812 336.73828125 295.18359375 336.021484375 c 1,309,-1
 295.18359375 336.021484375 l 1,310,311
 301.631835938 332.439453125 301.631835938 332.439453125 306.646484375 326.708007812 c 0,312,313
 318.826171875 313.094726562 318.826171875 313.094726562 318.109375 294.466796875 c 256,314,315
 318.109375 275.838867188 318.109375 275.838867188 306.646484375 262.225585938 c 0,316,317
 301.631835938 256.494140625 301.631835938 256.494140625 295.18359375 252.911132812 c 1,318,-1
 295.18359375 252.911132812 l 1,319,320
 296.616210938 252.1953125 296.616210938 252.1953125 298.765625 250.762695312 c 1,321,-1
 298.765625 250.762695312 l 1,322,323
 307.36328125 256.494140625 307.36328125 256.494140625 318.109375 256.494140625 c 0,324,325
 328.856445312 256.494140625 328.856445312 256.494140625 338.171875 250.762695312 c 1,326,-1
 338.171875 250.762695312 l 1,327,328
 346.768554688 256.494140625 346.768554688 256.494140625 358.232421875 256.494140625 c 0,329,330
 374.709960938 256.494140625 374.709960938 256.494140625 386.173828125 243.59765625 c 256,331,332
 397.637695312 229.985351562 397.637695312 229.985351562 397.637695312 211.356445312 c 256,333,334
 397.637695312 192.728515625 397.637695312 192.728515625 386.173828125 179.116210938 c 256,335,336
 374.709960938 165.502929688 374.709960938 165.502929688 358.232421875 165.502929688 c 0,337,338
 346.768554688 165.502929688 346.768554688 165.502929688 338.171875 171.951171875 c 1,339,340
 328.856445312 166.219726562 328.856445312 166.219726562 318.109375 165.502929688 c 0,341,342
 306.646484375 165.502929688 306.646484375 165.502929688 298.765625 171.951171875 c 1,343,-1
 298.765625 171.951171875 l 1,344,345
 297.333007812 171.234375 297.333007812 171.234375 295.18359375 169.802734375 c 1,346,-1
 295.18359375 169.802734375 l 1,347,348
 301.631835938 166.935546875 301.631835938 166.935546875 306.646484375 160.487304688 c 0,349,350
 318.826171875 146.875 318.826171875 146.875 318.109375 128.247070312 c 256,351,352
 318.109375 109.618164062 318.109375 109.618164062 306.646484375 96.005859375 c 0,353,354
 301.631835938 90.2744140625 301.631835938 90.2744140625 295.18359375 86.6923828125 c 1,355,-1
 295.18359375 86.6923828125 l 1,356,357
 301.631835938 83.8271484375 301.631835938 83.8271484375 306.646484375 77.3779296875 c 0,358,359
 318.826171875 63.7646484375 318.826171875 63.7646484375 318.109375 45.13671875 c 256,360,361
 318.109375 26.509765625 318.109375 26.509765625 306.646484375 13.6123046875 c 0,362,363
 295.18359375 0 295.18359375 0 278.704101562 0 c 256,364,365
 262.225585938 0 262.225585938 0 250.045898438 13.6123046875 c 0,366,367
 238.58203125 27.2255859375 238.58203125 27.2255859375 238.58203125 45.13671875 c 256,368,369
 238.58203125 63.7646484375 238.58203125 63.7646484375 250.045898438 77.3779296875 c 0,370,371
 255.061523438 83.1103515625 255.061523438 83.1103515625 261.509765625 86.6923828125 c 1,372,-1
 261.509765625 86.6923828125 l 1,373,374
 255.061523438 90.2744140625 255.061523438 90.2744140625 250.045898438 96.005859375 c 0,375,376
 238.58203125 109.618164062 238.58203125 109.618164062 238.58203125 128.247070312 c 256,377,378
 238.58203125 146.875 238.58203125 146.875 250.045898438 160.487304688 c 0,379,380
 255.061523438 166.219726562 255.061523438 166.219726562 261.509765625 169.802734375 c 1,381,-1
 261.509765625 169.802734375 l 1,382,383
 260.076171875 170.517578125 260.076171875 170.517578125 258.643554688 171.951171875 c 1,384,385
 250.045898438 166.219726562 250.045898438 166.219726562 238.58203125 165.502929688 c 0,386,387
 227.834960938 165.502929688 227.834960938 165.502929688 218.521484375 171.951171875 c 1,388,-1
 218.521484375 171.951171875 l 1,389,390
 209.923828125 166.219726562 209.923828125 166.219726562 198.4609375 165.502929688 c 0,391,392
 187.713867188 165.502929688 187.713867188 165.502929688 179.116210938 171.951171875 c 1,393,394
 169.802734375 166.219726562 169.802734375 166.219726562 159.055664062 165.502929688 c 0,395,396
 147.591796875 165.502929688 147.591796875 165.502929688 138.994140625 171.951171875 c 1,397,-1
 138.994140625 171.951171875 l 1,398,399
 137.561523438 171.234375 137.561523438 171.234375 136.127929688 169.802734375 c 1,400,-1
 136.127929688 169.802734375 l 1,401,402
 142.576171875 166.935546875 142.576171875 166.935546875 147.591796875 160.487304688 c 0,403,404
 159.771484375 146.875 159.771484375 146.875 159.055664062 128.247070312 c 256,405,406
 159.055664062 109.618164062 159.055664062 109.618164062 147.591796875 96.005859375 c 0,407,408
 142.576171875 90.2744140625 142.576171875 90.2744140625 136.127929688 86.6923828125 c 1,409,-1
 136.127929688 86.6923828125 l 1,410,411
 142.576171875 83.8271484375 142.576171875 83.8271484375 147.591796875 77.3779296875 c 0,412,413
 159.771484375 63.7646484375 159.771484375 63.7646484375 159.055664062 45.13671875 c 256,414,415
 159.055664062 26.509765625 159.055664062 26.509765625 147.591796875 13.6123046875 c 0,416,417
 136.127929688 0 136.127929688 0 119.649414062 0 c 1,418,-1
 119.649414062 0 l 1,108,109
EndSplineSet
EndChar

StartChar: dollar
Encoding: 36 36 4
Width: 456
VWidth: 715
Flags: W
LayerCount: 2
Fore
SplineSet
99.587890625 88.841796875 m 1,0,1
 99.587890625 88.841796875 l 1,2,-1
 99.587890625 88.841796875 l 1,3,4
 99.587890625 88.841796875 l 1,5,-1
 99.587890625 88.841796875 l 1,0,1
138.994140625 88.841796875 m 1,6,7
 138.994140625 88.841796875 l 1,8,-1
 138.994140625 88.841796875 l 1,9,10
 138.994140625 88.841796875 l 1,11,-1
 138.994140625 88.841796875 l 1,6,7
218.521484375 88.841796875 m 1,12,13
 218.521484375 88.841796875 l 1,14,-1
 218.521484375 88.841796875 l 1,15,16
 218.521484375 88.841796875 l 1,17,-1
 218.521484375 88.841796875 l 1,12,13
298.765625 88.841796875 m 1,18,19
 298.765625 88.841796875 l 1,20,-1
 298.765625 88.841796875 l 1,21,22
 298.765625 88.841796875 l 1,23,-1
 298.765625 88.841796875 l 1,18,19
99.587890625 254.344726562 m 1,24,25
 99.587890625 254.344726562 l 1,26,-1
 99.587890625 254.344726562 l 1,27,28
 99.587890625 254.344726562 l 1,29,-1
 99.587890625 254.344726562 l 1,24,25
179.116210938 254.344726562 m 1,30,31
 179.116210938 254.344726562 l 1,32,-1
 179.116210938 254.344726562 l 1,33,34
 179.116210938 254.344726562 l 1,35,-1
 179.116210938 254.344726562 l 1,30,31
258.643554688 254.344726562 m 1,36,37
 258.643554688 254.344726562 l 1,38,-1
 258.643554688 254.344726562 l 1,39,40
 258.643554688 254.344726562 l 1,41,-1
 258.643554688 254.344726562 l 1,36,37
358.232421875 165.502929688 m 1,42,43
 341.75390625 165.502929688 341.75390625 165.502929688 329.573242188 179.116210938 c 256,44,45
 318.109375 192.728515625 318.109375 192.728515625 318.109375 211.356445312 c 256,46,47
 318.109375 229.985351562 318.109375 229.985351562 329.573242188 243.59765625 c 256,48,49
 341.037109375 257.209960938 341.037109375 257.209960938 358.232421875 256.494140625 c 0,50,51
 374.709960938 256.494140625 374.709960938 256.494140625 386.173828125 243.59765625 c 256,52,53
 397.637695312 229.985351562 397.637695312 229.985351562 397.637695312 211.356445312 c 256,54,55
 397.637695312 192.728515625 397.637695312 192.728515625 386.173828125 179.116210938 c 256,56,57
 374.709960938 165.502929688 374.709960938 165.502929688 358.232421875 165.502929688 c 1,58,-1
 358.232421875 165.502929688 l 1,42,43
138.994140625 420.564453125 m 1,59,60
 138.994140625 420.564453125 l 1,61,-1
 138.994140625 420.564453125 l 1,62,63
 138.994140625 420.564453125 l 1,64,-1
 138.994140625 420.564453125 l 1,59,60
218.521484375 420.564453125 m 1,65,66
 218.521484375 420.564453125 l 1,67,-1
 218.521484375 420.564453125 l 1,68,69
 218.521484375 420.564453125 l 1,70,-1
 218.521484375 420.564453125 l 1,65,66
298.765625 420.564453125 m 1,71,72
 298.765625 420.564453125 l 1,73,-1
 298.765625 420.564453125 l 1,74,75
 298.765625 420.564453125 l 1,76,-1
 298.765625 420.564453125 l 1,71,72
39.4052734375 331.72265625 m 1,77,78
 22.927734375 331.72265625 22.927734375 331.72265625 11.4638671875 344.619140625 c 256,79,80
 0 358.232421875 0 358.232421875 0 376.860351562 c 256,81,82
 0 395.48828125 0 395.48828125 11.4638671875 409.1015625 c 256,83,84
 22.927734375 422.713867188 22.927734375 422.713867188 39.4052734375 422.713867188 c 256,85,86
 55.8837890625 422.713867188 55.8837890625 422.713867188 68.064453125 409.1015625 c 0,87,88
 79.52734375 395.48828125 79.52734375 395.48828125 79.52734375 376.860351562 c 256,89,90
 79.52734375 358.232421875 79.52734375 358.232421875 68.064453125 344.619140625 c 0,91,92
 55.8837890625 331.006835938 55.8837890625 331.006835938 39.4052734375 331.72265625 c 1,93,-1
 39.4052734375 331.72265625 l 1,77,78
198.4609375 0 m 1,94,95
 181.981445312 0 181.981445312 0 170.517578125 13.6123046875 c 256,96,97
 159.055664062 27.2255859375 159.055664062 27.2255859375 159.055664062 45.13671875 c 256,98,99
 159.055664062 63.7646484375 159.055664062 63.7646484375 170.517578125 77.3779296875 c 0,100,101
 175.533203125 83.1103515625 175.533203125 83.1103515625 181.981445312 86.6923828125 c 1,102,-1
 181.981445312 86.6923828125 l 1,103,104
 180.549804688 87.4091796875 180.549804688 87.4091796875 179.116210938 88.841796875 c 1,105,106
 169.802734375 83.1103515625 169.802734375 83.1103515625 159.055664062 83.1103515625 c 0,107,108
 147.591796875 83.1103515625 147.591796875 83.1103515625 138.994140625 88.841796875 c 1,109,110
 129.680664062 83.1103515625 129.680664062 83.1103515625 119.649414062 83.1103515625 c 0,111,112
 108.186523438 83.1103515625 108.186523438 83.1103515625 99.587890625 88.841796875 c 1,113,-1
 99.587890625 88.841796875 l 1,114,115
 90.9912109375 83.1103515625 90.9912109375 83.1103515625 79.52734375 83.1103515625 c 0,116,117
 63.048828125 83.1103515625 63.048828125 83.1103515625 51.5859375 96.005859375 c 0,118,119
 39.4052734375 109.618164062 39.4052734375 109.618164062 39.4052734375 128.247070312 c 256,120,121
 39.4052734375 146.875 39.4052734375 146.875 51.5859375 160.487304688 c 0,122,123
 63.048828125 174.100585938 63.048828125 174.100585938 79.52734375 174.100585938 c 0,124,125
 90.9912109375 174.100585938 90.9912109375 174.100585938 99.587890625 167.65234375 c 1,126,-1
 99.587890625 167.65234375 l 1,127,128
 108.186523438 173.384765625 108.186523438 173.384765625 119.649414062 174.100585938 c 0,129,130
 130.396484375 174.100585938 130.396484375 174.100585938 138.994140625 167.65234375 c 1,131,-1
 138.994140625 167.65234375 l 1,132,133
 147.591796875 173.384765625 147.591796875 173.384765625 159.055664062 174.100585938 c 0,134,135
 169.802734375 174.100585938 169.802734375 174.100585938 179.116210938 167.65234375 c 1,136,-1
 179.116210938 167.65234375 l 1,137,138
 180.549804688 168.369140625 180.549804688 168.369140625 181.981445312 169.802734375 c 1,139,-1
 181.981445312 169.802734375 l 1,140,141
 176.25 173.384765625 176.25 173.384765625 170.517578125 179.116210938 c 0,142,143
 159.055664062 192.728515625 159.055664062 192.728515625 159.055664062 211.356445312 c 256,144,145
 159.055664062 229.985351562 159.055664062 229.985351562 170.517578125 243.59765625 c 0,146,147
 175.533203125 249.329101562 175.533203125 249.329101562 181.981445312 252.911132812 c 1,148,-1
 181.981445312 252.911132812 l 1,149,150
 180.549804688 253.627929688 180.549804688 253.627929688 179.116210938 254.344726562 c 1,151,-1
 179.116210938 254.344726562 l 1,152,153
 169.802734375 248.61328125 169.802734375 248.61328125 159.055664062 248.61328125 c 0,154,155
 147.591796875 248.61328125 147.591796875 248.61328125 138.994140625 254.344726562 c 1,156,-1
 138.994140625 254.344726562 l 1,157,158
 129.680664062 248.61328125 129.680664062 248.61328125 119.649414062 248.61328125 c 0,159,160
 108.186523438 248.61328125 108.186523438 248.61328125 99.587890625 254.344726562 c 1,161,162
 90.9912109375 248.61328125 90.9912109375 248.61328125 79.52734375 248.61328125 c 0,163,164
 63.048828125 248.61328125 63.048828125 248.61328125 51.5859375 262.225585938 c 0,165,166
 39.4052734375 275.838867188 39.4052734375 275.838867188 39.4052734375 294.466796875 c 256,167,168
 39.4052734375 313.094726562 39.4052734375 313.094726562 51.5859375 326.708007812 c 0,169,170
 63.048828125 340.3203125 63.048828125 340.3203125 79.52734375 339.603515625 c 0,171,172
 90.9912109375 339.603515625 90.9912109375 339.603515625 99.587890625 333.872070312 c 1,173,-1
 99.587890625 333.872070312 l 1,174,175
 108.186523438 339.603515625 108.186523438 339.603515625 119.649414062 339.603515625 c 0,176,177
 130.396484375 339.603515625 130.396484375 339.603515625 138.994140625 333.872070312 c 1,178,-1
 138.994140625 333.872070312 l 1,179,180
 147.591796875 339.603515625 147.591796875 339.603515625 159.055664062 339.603515625 c 0,181,182
 169.802734375 339.603515625 169.802734375 339.603515625 179.116210938 333.872070312 c 1,183,-1
 179.116210938 333.872070312 l 1,184,185
 180.549804688 334.588867188 180.549804688 334.588867188 181.981445312 336.021484375 c 1,186,-1
 181.981445312 336.021484375 l 1,187,188
 176.25 338.88671875 176.25 338.88671875 170.517578125 344.619140625 c 0,189,190
 159.055664062 358.232421875 159.055664062 358.232421875 159.055664062 376.860351562 c 256,191,192
 159.055664062 395.48828125 159.055664062 395.48828125 170.517578125 409.1015625 c 0,193,194
 175.533203125 414.83203125 175.533203125 414.83203125 181.981445312 418.415039062 c 1,195,-1
 181.981445312 418.415039062 l 1,196,197
 180.549804688 419.131835938 180.549804688 419.131835938 179.116210938 420.564453125 c 1,198,199
 169.802734375 414.83203125 169.802734375 414.83203125 159.055664062 414.83203125 c 0,200,201
 147.591796875 414.83203125 147.591796875 414.83203125 138.994140625 420.564453125 c 1,202,203
 129.680664062 414.83203125 129.680664062 414.83203125 119.649414062 414.83203125 c 0,204,205
 108.186523438 414.83203125 108.186523438 414.83203125 99.587890625 420.564453125 c 1,206,207
 90.9912109375 414.83203125 90.9912109375 414.83203125 79.52734375 414.83203125 c 0,208,209
 63.048828125 414.83203125 63.048828125 414.83203125 51.5859375 427.729492188 c 0,210,211
 39.4052734375 441.341796875 39.4052734375 441.341796875 39.4052734375 459.970703125 c 256,212,213
 39.4052734375 478.59765625 39.4052734375 478.59765625 51.5859375 492.2109375 c 0,214,215
 63.048828125 505.82421875 63.048828125 505.82421875 79.52734375 505.82421875 c 0,216,217
 90.9912109375 505.82421875 90.9912109375 505.82421875 99.587890625 499.375976562 c 1,218,-1
 99.587890625 499.375976562 l 1,219,220
 108.186523438 505.107421875 108.186523438 505.107421875 119.649414062 505.82421875 c 0,221,222
 130.396484375 505.82421875 130.396484375 505.82421875 138.994140625 499.375976562 c 1,223,-1
 138.994140625 499.375976562 l 1,224,225
 147.591796875 505.107421875 147.591796875 505.107421875 159.055664062 505.82421875 c 0,226,227
 169.802734375 505.82421875 169.802734375 505.82421875 179.116210938 499.375976562 c 1,228,-1
 179.116210938 499.375976562 l 1,229,230
 180.549804688 500.091796875 180.549804688 500.091796875 181.981445312 501.524414062 c 1,231,-1
 181.981445312 501.524414062 l 1,232,233
 176.25 504.390625 176.25 504.390625 170.517578125 510.838867188 c 0,234,235
 159.055664062 524.452148438 159.055664062 524.452148438 159.055664062 543.079101562 c 256,236,237
 159.055664062 561.708007812 159.055664062 561.708007812 170.517578125 575.3203125 c 256,238,239
 181.981445312 588.93359375 181.981445312 588.93359375 198.4609375 588.216796875 c 256,240,241
 214.939453125 588.216796875 214.939453125 588.216796875 227.119140625 575.3203125 c 0,242,243
 238.58203125 561.708007812 238.58203125 561.708007812 238.58203125 543.079101562 c 256,244,245
 238.58203125 524.452148438 238.58203125 524.452148438 227.119140625 510.838867188 c 0,246,247
 222.103515625 505.107421875 222.103515625 505.107421875 215.65625 501.524414062 c 1,248,-1
 215.65625 501.524414062 l 1,249,250
 217.087890625 500.80859375 217.087890625 500.80859375 218.521484375 499.375976562 c 1,251,-1
 218.521484375 499.375976562 l 1,252,253
 227.834960938 505.107421875 227.834960938 505.107421875 238.58203125 505.82421875 c 0,254,255
 250.045898438 505.82421875 250.045898438 505.82421875 258.643554688 499.375976562 c 1,256,-1
 258.643554688 499.375976562 l 1,257,258
 267.240234375 505.107421875 267.240234375 505.107421875 278.704101562 505.82421875 c 0,259,260
 289.451171875 505.82421875 289.451171875 505.82421875 298.765625 499.375976562 c 1,261,-1
 298.765625 499.375976562 l 1,262,263
 307.36328125 505.107421875 307.36328125 505.107421875 318.109375 505.82421875 c 0,264,265
 334.588867188 505.82421875 334.588867188 505.82421875 346.051757812 492.2109375 c 0,266,267
 358.232421875 478.59765625 358.232421875 478.59765625 358.232421875 459.970703125 c 256,268,269
 358.232421875 441.341796875 358.232421875 441.341796875 346.051757812 427.729492188 c 0,270,271
 334.588867188 414.116210938 334.588867188 414.116210938 318.109375 414.83203125 c 0,272,273
 306.646484375 414.83203125 306.646484375 414.83203125 298.765625 420.564453125 c 1,274,-1
 298.765625 420.564453125 l 1,275,276
 289.451171875 414.83203125 289.451171875 414.83203125 278.704101562 414.83203125 c 0,277,278
 267.240234375 414.83203125 267.240234375 414.83203125 258.643554688 420.564453125 c 1,279,280
 250.045898438 414.83203125 250.045898438 414.83203125 238.58203125 414.83203125 c 0,281,282
 227.834960938 414.83203125 227.834960938 414.83203125 218.521484375 420.564453125 c 1,283,-1
 218.521484375 420.564453125 l 1,284,285
 217.087890625 419.84765625 217.087890625 419.84765625 215.65625 418.415039062 c 1,286,-1
 215.65625 418.415039062 l 1,287,288
 221.38671875 414.83203125 221.38671875 414.83203125 227.119140625 409.1015625 c 0,289,290
 238.58203125 395.48828125 238.58203125 395.48828125 238.58203125 376.860351562 c 256,291,292
 238.58203125 358.232421875 238.58203125 358.232421875 227.119140625 344.619140625 c 0,293,294
 222.103515625 338.88671875 222.103515625 338.88671875 215.65625 336.021484375 c 1,295,-1
 215.65625 336.021484375 l 1,296,297
 217.087890625 335.3046875 217.087890625 335.3046875 218.521484375 333.872070312 c 1,298,-1
 218.521484375 333.872070312 l 1,299,300
 227.834960938 339.603515625 227.834960938 339.603515625 238.58203125 339.603515625 c 0,301,302
 250.045898438 339.603515625 250.045898438 339.603515625 258.643554688 333.872070312 c 1,303,-1
 258.643554688 333.872070312 l 1,304,305
 267.240234375 339.603515625 267.240234375 339.603515625 278.704101562 339.603515625 c 0,306,307
 289.451171875 339.603515625 289.451171875 339.603515625 298.765625 333.872070312 c 1,308,-1
 298.765625 333.872070312 l 1,309,310
 307.36328125 339.603515625 307.36328125 339.603515625 318.109375 339.603515625 c 0,311,312
 334.588867188 339.603515625 334.588867188 339.603515625 346.051757812 326.708007812 c 0,313,314
 358.232421875 313.094726562 358.232421875 313.094726562 358.232421875 294.466796875 c 256,315,316
 358.232421875 275.838867188 358.232421875 275.838867188 346.051757812 262.225585938 c 0,317,318
 334.588867188 248.61328125 334.588867188 248.61328125 318.109375 248.61328125 c 0,319,320
 306.646484375 248.61328125 306.646484375 248.61328125 298.765625 254.344726562 c 1,321,-1
 298.765625 254.344726562 l 1,322,323
 289.451171875 248.61328125 289.451171875 248.61328125 278.704101562 248.61328125 c 0,324,325
 267.240234375 248.61328125 267.240234375 248.61328125 258.643554688 254.344726562 c 1,326,-1
 258.643554688 254.344726562 l 1,327,328
 250.045898438 248.61328125 250.045898438 248.61328125 238.58203125 248.61328125 c 0,329,330
 227.834960938 248.61328125 227.834960938 248.61328125 218.521484375 254.344726562 c 1,331,332
 217.087890625 253.627929688 217.087890625 253.627929688 215.65625 252.911132812 c 1,333,-1
 215.65625 252.911132812 l 1,334,335
 221.38671875 250.045898438 221.38671875 250.045898438 227.119140625 243.59765625 c 0,336,337
 238.58203125 229.985351562 238.58203125 229.985351562 238.58203125 211.356445312 c 256,338,339
 238.58203125 192.728515625 238.58203125 192.728515625 227.119140625 179.116210938 c 0,340,341
 222.103515625 173.384765625 222.103515625 173.384765625 215.65625 169.802734375 c 1,342,-1
 215.65625 169.802734375 l 1,343,344
 217.087890625 169.0859375 217.087890625 169.0859375 218.521484375 167.65234375 c 1,345,-1
 218.521484375 167.65234375 l 1,346,347
 227.834960938 173.384765625 227.834960938 173.384765625 238.58203125 174.100585938 c 0,348,349
 250.045898438 174.100585938 250.045898438 174.100585938 258.643554688 167.65234375 c 1,350,-1
 258.643554688 167.65234375 l 1,351,352
 267.240234375 173.384765625 267.240234375 173.384765625 278.704101562 174.100585938 c 0,353,354
 289.451171875 174.100585938 289.451171875 174.100585938 298.765625 167.65234375 c 1,355,-1
 298.765625 167.65234375 l 1,356,357
 307.36328125 173.384765625 307.36328125 173.384765625 318.109375 174.100585938 c 0,358,359
 334.588867188 174.100585938 334.588867188 174.100585938 346.051757812 160.487304688 c 0,360,361
 358.232421875 146.875 358.232421875 146.875 358.232421875 128.247070312 c 256,362,363
 358.232421875 109.618164062 358.232421875 109.618164062 346.051757812 96.005859375 c 0,364,365
 334.588867188 82.3935546875 334.588867188 82.3935546875 318.109375 83.1103515625 c 0,366,367
 306.646484375 83.1103515625 306.646484375 83.1103515625 298.765625 88.841796875 c 1,368,-1
 298.765625 88.841796875 l 1,369,370
 289.451171875 83.1103515625 289.451171875 83.1103515625 278.704101562 83.1103515625 c 0,371,372
 267.240234375 83.1103515625 267.240234375 83.1103515625 258.643554688 88.841796875 c 1,373,374
 250.045898438 83.1103515625 250.045898438 83.1103515625 238.58203125 83.1103515625 c 0,375,376
 227.834960938 83.1103515625 227.834960938 83.1103515625 218.521484375 88.841796875 c 1,377,-1
 218.521484375 88.841796875 l 1,378,379
 217.087890625 88.125 217.087890625 88.125 215.65625 86.6923828125 c 1,380,-1
 215.65625 86.6923828125 l 1,381,382
 221.38671875 83.8271484375 221.38671875 83.8271484375 227.119140625 77.3779296875 c 0,383,384
 238.58203125 63.7646484375 238.58203125 63.7646484375 238.58203125 45.13671875 c 256,385,386
 238.58203125 26.509765625 238.58203125 26.509765625 227.119140625 13.6123046875 c 0,387,388
 214.939453125 0 214.939453125 0 198.4609375 0 c 1,389,-1
 198.4609375 0 l 1,94,95
EndSplineSet
EndChar

StartChar: percent
Encoding: 37 37 5
Width: 576
VWidth: 715
Flags: W
LayerCount: 2
Fore
SplineSet
377.577148438 5.7314453125 m 1,0,1
 377.577148438 5.7314453125 l 1,2,-1
 377.577148438 5.7314453125 l 1,3,4
 377.577148438 5.7314453125 l 1,5,-1
 377.577148438 5.7314453125 l 1,0,1
358.232421875 0 m 1,6,7
 341.75390625 0 341.75390625 0 329.573242188 13.6123046875 c 256,8,9
 318.109375 27.2255859375 318.109375 27.2255859375 318.109375 45.13671875 c 256,10,11
 318.109375 63.7646484375 318.109375 63.7646484375 329.573242188 77.3779296875 c 256,12,13
 341.037109375 90.9912109375 341.037109375 90.9912109375 358.232421875 90.9912109375 c 0,14,15
 368.978515625 90.9912109375 368.978515625 90.9912109375 377.577148438 85.2587890625 c 1,16,-1
 377.577148438 85.2587890625 l 1,17,18
 386.890625 90.9912109375 386.890625 90.9912109375 397.637695312 90.9912109375 c 0,19,20
 409.1015625 90.9912109375 409.1015625 90.9912109375 417.698242188 85.2587890625 c 1,21,-1
 417.698242188 85.2587890625 l 1,22,23
 427.012695312 90.9912109375 427.012695312 90.9912109375 437.759765625 90.9912109375 c 0,24,25
 454.23828125 90.9912109375 454.23828125 90.9912109375 465.701171875 77.3779296875 c 0,26,27
 477.165039062 63.7646484375 477.165039062 63.7646484375 477.881835938 45.13671875 c 256,28,29
 477.881835938 26.509765625 477.881835938 26.509765625 465.701171875 13.6123046875 c 0,30,31
 453.521484375 0 453.521484375 0 437.759765625 0 c 0,32,33
 427.012695312 0 427.012695312 0 417.698242188 5.7314453125 c 1,34,35
 409.1015625 0 409.1015625 0 397.637695312 0 c 0,36,37
 386.890625 0 386.890625 0 377.577148438 5.7314453125 c 1,38,39
 368.978515625 0 368.978515625 0 358.232421875 0 c 1,40,-1
 358.232421875 0 l 1,6,7
417.698242188 171.951171875 m 1,41,42
 417.698242188 171.951171875 l 1,43,-1
 417.698242188 171.951171875 l 1,44,45
 417.698242188 171.951171875 l 1,46,-1
 417.698242188 171.951171875 l 1,41,42
159.055664062 83.1103515625 m 1,47,48
 142.576171875 83.1103515625 142.576171875 83.1103515625 131.112304688 96.005859375 c 0,49,50
 119.649414062 109.618164062 119.649414062 109.618164062 119.649414062 128.247070312 c 256,51,52
 119.649414062 146.875 119.649414062 146.875 131.112304688 160.487304688 c 0,53,54
 143.29296875 174.100585938 143.29296875 174.100585938 159.055664062 174.100585938 c 256,55,56
 175.533203125 174.100585938 175.533203125 174.100585938 186.997070312 160.487304688 c 256,57,58
 198.4609375 146.875 198.4609375 146.875 198.4609375 128.247070312 c 256,59,60
 198.4609375 109.618164062 198.4609375 109.618164062 186.997070312 96.005859375 c 256,61,62
 175.533203125 82.3935546875 175.533203125 82.3935546875 159.055664062 83.1103515625 c 1,63,-1
 159.055664062 83.1103515625 l 1,47,48
318.109375 83.1103515625 m 1,64,65
 301.631835938 83.1103515625 301.631835938 83.1103515625 290.16796875 96.005859375 c 0,66,67
 278.704101562 109.618164062 278.704101562 109.618164062 278.704101562 128.247070312 c 256,68,69
 278.704101562 146.875 278.704101562 146.875 290.16796875 160.487304688 c 0,70,71
 302.348632812 174.100585938 302.348632812 174.100585938 318.109375 174.100585938 c 256,72,73
 334.588867188 174.100585938 334.588867188 174.100585938 346.051757812 160.487304688 c 0,74,75
 358.232421875 146.875 358.232421875 146.875 358.232421875 128.247070312 c 256,76,77
 358.232421875 109.618164062 358.232421875 109.618164062 346.051757812 96.005859375 c 0,78,79
 334.588867188 82.3935546875 334.588867188 82.3935546875 318.109375 83.1103515625 c 1,80,-1
 318.109375 83.1103515625 l 1,64,65
477.881835938 83.1103515625 m 1,81,82
 461.40234375 83.1103515625 461.40234375 83.1103515625 449.223632812 96.005859375 c 0,83,84
 437.759765625 109.618164062 437.759765625 109.618164062 437.759765625 128.247070312 c 256,85,86
 437.759765625 146.875 437.759765625 146.875 449.223632812 160.487304688 c 0,87,88
 461.40234375 174.100585938 461.40234375 174.100585938 477.881835938 174.100585938 c 256,89,90
 494.360351562 174.100585938 494.360351562 174.100585938 505.82421875 160.487304688 c 0,91,92
 518.002929688 146.875 518.002929688 146.875 517.287109375 128.247070312 c 256,93,94
 517.287109375 109.618164062 517.287109375 109.618164062 505.82421875 96.005859375 c 0,95,96
 494.360351562 82.3935546875 494.360351562 82.3935546875 477.881835938 83.1103515625 c 1,97,-1
 477.881835938 83.1103515625 l 1,81,82
198.4609375 165.502929688 m 1,98,99
 181.981445312 165.502929688 181.981445312 165.502929688 170.517578125 179.116210938 c 256,100,101
 159.055664062 192.728515625 159.055664062 192.728515625 159.055664062 211.356445312 c 256,102,103
 159.055664062 229.985351562 159.055664062 229.985351562 170.517578125 243.59765625 c 256,104,105
 181.981445312 257.209960938 181.981445312 257.209960938 198.4609375 256.494140625 c 256,106,107
 214.939453125 256.494140625 214.939453125 256.494140625 227.119140625 243.59765625 c 0,108,109
 238.58203125 229.985351562 238.58203125 229.985351562 238.58203125 211.356445312 c 256,110,111
 238.58203125 192.728515625 238.58203125 192.728515625 227.119140625 179.116210938 c 0,112,113
 214.939453125 165.502929688 214.939453125 165.502929688 198.4609375 165.502929688 c 1,114,-1
 198.4609375 165.502929688 l 1,98,99
358.232421875 165.502929688 m 1,115,116
 341.75390625 165.502929688 341.75390625 165.502929688 329.573242188 179.116210938 c 256,117,118
 318.109375 192.728515625 318.109375 192.728515625 318.109375 211.356445312 c 256,119,120
 318.109375 229.985351562 318.109375 229.985351562 329.573242188 243.59765625 c 256,121,122
 341.037109375 257.209960938 341.037109375 257.209960938 358.232421875 256.494140625 c 0,123,124
 368.978515625 256.494140625 368.978515625 256.494140625 377.577148438 250.762695312 c 1,125,-1
 377.577148438 250.762695312 l 1,126,127
 386.890625 256.494140625 386.890625 256.494140625 397.637695312 256.494140625 c 0,128,129
 409.1015625 256.494140625 409.1015625 256.494140625 417.698242188 250.762695312 c 1,130,-1
 417.698242188 250.762695312 l 1,131,132
 427.012695312 256.494140625 427.012695312 256.494140625 437.759765625 256.494140625 c 0,133,134
 454.23828125 256.494140625 454.23828125 256.494140625 465.701171875 243.59765625 c 0,135,136
 477.165039062 229.985351562 477.165039062 229.985351562 477.881835938 211.356445312 c 256,137,138
 477.881835938 192.728515625 477.881835938 192.728515625 465.701171875 179.116210938 c 0,139,140
 453.521484375 165.502929688 453.521484375 165.502929688 437.759765625 165.502929688 c 0,141,142
 427.012695312 165.502929688 427.012695312 165.502929688 417.698242188 171.951171875 c 1,143,144
 409.1015625 166.219726562 409.1015625 166.219726562 397.637695312 165.502929688 c 0,145,146
 386.890625 165.502929688 386.890625 165.502929688 377.577148438 171.951171875 c 1,147,148
 368.978515625 166.219726562 368.978515625 166.219726562 358.232421875 165.502929688 c 1,149,-1
 358.232421875 165.502929688 l 1,115,116
99.587890625 337.455078125 m 1,150,151
 99.587890625 337.455078125 l 1,152,-1
 99.587890625 337.455078125 l 1,153,154
 99.587890625 337.455078125 l 1,155,-1
 99.587890625 337.455078125 l 1,150,151
238.58203125 248.61328125 m 1,156,157
 222.103515625 248.61328125 222.103515625 248.61328125 210.640625 262.225585938 c 0,158,159
 198.4609375 275.838867188 198.4609375 275.838867188 198.4609375 294.466796875 c 256,160,161
 198.4609375 313.094726562 198.4609375 313.094726562 210.640625 326.708007812 c 0,162,163
 222.103515625 340.3203125 222.103515625 340.3203125 238.58203125 339.603515625 c 256,164,165
 255.061523438 339.603515625 255.061523438 339.603515625 267.240234375 326.708007812 c 0,166,167
 278.704101562 313.094726562 278.704101562 313.094726562 278.704101562 294.466796875 c 256,168,169
 278.704101562 275.838867188 278.704101562 275.838867188 267.240234375 262.225585938 c 0,170,171
 255.061523438 248.61328125 255.061523438 248.61328125 238.58203125 248.61328125 c 1,172,-1
 238.58203125 248.61328125 l 1,156,157
39.4052734375 331.72265625 m 1,173,174
 22.927734375 331.72265625 22.927734375 331.72265625 11.4638671875 344.619140625 c 256,175,176
 0 358.232421875 0 358.232421875 0 376.860351562 c 256,177,178
 0 395.48828125 0 395.48828125 11.4638671875 409.1015625 c 256,179,180
 22.927734375 422.713867188 22.927734375 422.713867188 39.4052734375 422.713867188 c 0,181,182
 50.869140625 422.713867188 50.869140625 422.713867188 59.4658203125 416.982421875 c 1,183,-1
 59.4658203125 416.982421875 l 1,184,185
 68.7802734375 422.713867188 68.7802734375 422.713867188 79.52734375 422.713867188 c 0,186,187
 90.9912109375 422.713867188 90.9912109375 422.713867188 99.587890625 416.982421875 c 1,188,-1
 99.587890625 416.982421875 l 1,189,190
 108.186523438 422.713867188 108.186523438 422.713867188 119.649414062 422.713867188 c 0,191,192
 136.127929688 422.713867188 136.127929688 422.713867188 147.591796875 409.1015625 c 0,193,194
 159.771484375 395.48828125 159.771484375 395.48828125 159.055664062 376.860351562 c 256,195,196
 159.055664062 358.232421875 159.055664062 358.232421875 147.591796875 344.619140625 c 0,197,198
 136.127929688 331.006835938 136.127929688 331.006835938 119.649414062 331.72265625 c 0,199,200
 108.186523438 331.72265625 108.186523438 331.72265625 99.587890625 337.455078125 c 1,201,202
 90.9912109375 331.72265625 90.9912109375 331.72265625 79.52734375 331.72265625 c 0,203,204
 68.7802734375 331.72265625 68.7802734375 331.72265625 59.4658203125 337.455078125 c 1,205,-1
 59.4658203125 337.455078125 l 1,206,207
 50.869140625 331.72265625 50.869140625 331.72265625 39.4052734375 331.72265625 c 1,208,-1
 39.4052734375 331.72265625 l 1,173,174
278.704101562 331.72265625 m 1,209,210
 262.225585938 331.72265625 262.225585938 331.72265625 250.045898438 344.619140625 c 0,211,212
 238.58203125 358.232421875 238.58203125 358.232421875 238.58203125 376.860351562 c 256,213,214
 238.58203125 395.48828125 238.58203125 395.48828125 250.045898438 409.1015625 c 0,215,216
 262.225585938 422.713867188 262.225585938 422.713867188 278.704101562 422.713867188 c 256,217,218
 295.18359375 422.713867188 295.18359375 422.713867188 306.646484375 409.1015625 c 0,219,220
 318.826171875 395.48828125 318.826171875 395.48828125 318.109375 376.860351562 c 256,221,222
 318.109375 358.232421875 318.109375 358.232421875 306.646484375 344.619140625 c 0,223,224
 295.18359375 331.006835938 295.18359375 331.006835938 278.704101562 331.72265625 c 1,225,-1
 278.704101562 331.72265625 l 1,209,210
59.4658203125 503.673828125 m 1,226,227
 59.4658203125 503.673828125 l 1,228,-1
 59.4658203125 503.673828125 l 1,229,230
 59.4658203125 503.673828125 l 1,231,-1
 59.4658203125 503.673828125 l 1,226,227
0 414.83203125 m 1,232,233
 -16.478515625 414.83203125 -16.478515625 414.83203125 -27.9423828125 427.729492188 c 256,234,235
 -39.4052734375 441.341796875 -39.4052734375 441.341796875 -39.4052734375 459.970703125 c 256,236,237
 -39.4052734375 478.59765625 -39.4052734375 478.59765625 -27.9423828125 492.2109375 c 256,238,239
 -16.478515625 505.82421875 -16.478515625 505.82421875 0 505.82421875 c 256,240,241
 16.478515625 505.82421875 16.478515625 505.82421875 27.9423828125 492.2109375 c 256,242,243
 39.4052734375 478.59765625 39.4052734375 478.59765625 39.4052734375 459.970703125 c 256,244,245
 39.4052734375 441.341796875 39.4052734375 441.341796875 27.9423828125 427.729492188 c 256,246,247
 16.478515625 414.116210938 16.478515625 414.116210938 0 414.83203125 c 1,248,-1
 0 414.83203125 l 1,232,233
159.055664062 414.83203125 m 1,249,250
 142.576171875 414.83203125 142.576171875 414.83203125 131.112304688 427.729492188 c 0,251,252
 119.649414062 441.341796875 119.649414062 441.341796875 119.649414062 459.970703125 c 256,253,254
 119.649414062 478.59765625 119.649414062 478.59765625 131.112304688 492.2109375 c 0,255,256
 143.29296875 505.82421875 143.29296875 505.82421875 159.055664062 505.82421875 c 256,257,258
 175.533203125 505.82421875 175.533203125 505.82421875 186.997070312 492.2109375 c 256,259,260
 198.4609375 478.59765625 198.4609375 478.59765625 198.4609375 459.970703125 c 256,261,262
 198.4609375 441.341796875 198.4609375 441.341796875 186.997070312 427.729492188 c 256,263,264
 175.533203125 414.116210938 175.533203125 414.116210938 159.055664062 414.83203125 c 1,265,-1
 159.055664062 414.83203125 l 1,249,250
318.109375 414.83203125 m 1,266,267
 301.631835938 414.83203125 301.631835938 414.83203125 290.16796875 427.729492188 c 0,268,269
 278.704101562 441.341796875 278.704101562 441.341796875 278.704101562 459.970703125 c 256,270,271
 278.704101562 478.59765625 278.704101562 478.59765625 290.16796875 492.2109375 c 0,272,273
 302.348632812 505.82421875 302.348632812 505.82421875 318.109375 505.82421875 c 256,274,275
 334.588867188 505.82421875 334.588867188 505.82421875 346.051757812 492.2109375 c 0,276,277
 358.232421875 478.59765625 358.232421875 478.59765625 358.232421875 459.970703125 c 256,278,279
 358.232421875 441.341796875 358.232421875 441.341796875 346.051757812 427.729492188 c 0,280,281
 334.588867188 414.116210938 334.588867188 414.116210938 318.109375 414.83203125 c 1,282,-1
 318.109375 414.83203125 l 1,266,267
39.4052734375 497.225585938 m 1,283,284
 22.927734375 497.225585938 22.927734375 497.225585938 11.4638671875 510.838867188 c 256,285,286
 0 524.452148438 0 524.452148438 0 543.079101562 c 256,287,288
 0 561.708007812 0 561.708007812 11.4638671875 575.3203125 c 256,289,290
 22.927734375 588.93359375 22.927734375 588.93359375 39.4052734375 588.216796875 c 0,291,292
 50.869140625 588.216796875 50.869140625 588.216796875 59.4658203125 582.484375 c 1,293,-1
 59.4658203125 582.484375 l 1,294,295
 68.7802734375 588.216796875 68.7802734375 588.216796875 79.52734375 588.216796875 c 0,296,297
 90.9912109375 588.216796875 90.9912109375 588.216796875 99.587890625 582.484375 c 1,298,-1
 99.587890625 582.484375 l 1,299,300
 108.186523438 588.216796875 108.186523438 588.216796875 119.649414062 588.216796875 c 0,301,302
 136.127929688 588.216796875 136.127929688 588.216796875 147.591796875 575.3203125 c 0,303,304
 159.771484375 561.708007812 159.771484375 561.708007812 159.055664062 543.079101562 c 256,305,306
 159.055664062 524.452148438 159.055664062 524.452148438 147.591796875 510.838867188 c 0,307,308
 136.127929688 497.225585938 136.127929688 497.225585938 119.649414062 497.225585938 c 0,309,310
 108.186523438 497.225585938 108.186523438 497.225585938 99.587890625 503.673828125 c 1,311,-1
 99.587890625 503.673828125 l 1,312,313
 90.9912109375 497.942382812 90.9912109375 497.942382812 79.52734375 497.225585938 c 0,314,315
 68.7802734375 497.225585938 68.7802734375 497.225585938 59.4658203125 503.673828125 c 1,316,-1
 59.4658203125 503.673828125 l 1,317,318
 50.869140625 497.942382812 50.869140625 497.942382812 39.4052734375 497.225585938 c 1,319,-1
 39.4052734375 497.225585938 l 1,283,284
EndSplineSet
EndChar

StartChar: ampersand
Encoding: 38 38 6
Width: 537
VWidth: 715
Flags: W
LayerCount: 2
Fore
SplineSet
99.587890625 5.7314453125 m 1,0,1
 99.587890625 5.7314453125 l 1,2,-1
 99.587890625 5.7314453125 l 1,3,4
 99.587890625 5.7314453125 l 1,5,-1
 99.587890625 5.7314453125 l 1,0,1
179.116210938 5.7314453125 m 1,6,7
 179.116210938 5.7314453125 l 1,8,-1
 179.116210938 5.7314453125 l 1,9,10
 179.116210938 5.7314453125 l 1,11,-1
 179.116210938 5.7314453125 l 1,6,7
79.52734375 0 m 1,12,13
 63.048828125 0 63.048828125 0 51.5859375 13.6123046875 c 0,14,15
 39.4052734375 27.2255859375 39.4052734375 27.2255859375 39.4052734375 45.13671875 c 256,16,17
 39.4052734375 63.7646484375 39.4052734375 63.7646484375 51.5859375 77.3779296875 c 0,18,19
 63.048828125 90.9912109375 63.048828125 90.9912109375 79.52734375 90.9912109375 c 0,20,21
 90.9912109375 90.9912109375 90.9912109375 90.9912109375 99.587890625 85.2587890625 c 1,22,-1
 99.587890625 85.2587890625 l 1,23,24
 108.186523438 90.9912109375 108.186523438 90.9912109375 119.649414062 90.9912109375 c 0,25,26
 130.396484375 90.9912109375 130.396484375 90.9912109375 138.994140625 85.2587890625 c 1,27,-1
 138.994140625 85.2587890625 l 1,28,29
 147.591796875 90.9912109375 147.591796875 90.9912109375 159.055664062 90.9912109375 c 0,30,31
 169.802734375 90.9912109375 169.802734375 90.9912109375 179.116210938 85.2587890625 c 1,32,-1
 179.116210938 85.2587890625 l 1,33,34
 187.713867188 90.9912109375 187.713867188 90.9912109375 198.4609375 90.9912109375 c 0,35,36
 209.923828125 90.9912109375 209.923828125 90.9912109375 218.521484375 85.2587890625 c 1,37,-1
 218.521484375 85.2587890625 l 1,38,39
 227.834960938 90.9912109375 227.834960938 90.9912109375 238.58203125 90.9912109375 c 0,40,41
 255.061523438 90.9912109375 255.061523438 90.9912109375 267.240234375 77.3779296875 c 0,42,43
 278.704101562 63.7646484375 278.704101562 63.7646484375 278.704101562 45.13671875 c 256,44,45
 278.704101562 26.509765625 278.704101562 26.509765625 267.240234375 13.6123046875 c 0,46,47
 255.061523438 0 255.061523438 0 238.58203125 0 c 0,48,49
 227.834960938 0 227.834960938 0 218.521484375 5.7314453125 c 1,50,-1
 218.521484375 5.7314453125 l 1,51,52
 209.923828125 0 209.923828125 0 198.4609375 0 c 0,53,54
 187.713867188 0 187.713867188 0 179.116210938 5.7314453125 c 1,55,56
 169.802734375 0 169.802734375 0 159.055664062 0 c 0,57,58
 147.591796875 0 147.591796875 0 138.994140625 5.7314453125 c 1,59,-1
 138.994140625 5.7314453125 l 1,60,61
 129.680664062 0 129.680664062 0 119.649414062 0 c 0,62,63
 108.186523438 0 108.186523438 0 99.587890625 5.7314453125 c 1,64,-1
 99.587890625 5.7314453125 l 1,65,66
 90.9912109375 0 90.9912109375 0 79.52734375 0 c 1,67,-1
 79.52734375 0 l 1,12,13
397.637695312 0 m 1,68,69
 381.159179688 0 381.159179688 0 369.6953125 13.6123046875 c 256,70,71
 358.232421875 27.2255859375 358.232421875 27.2255859375 358.232421875 45.13671875 c 256,72,73
 358.232421875 63.7646484375 358.232421875 63.7646484375 369.6953125 77.3779296875 c 256,74,75
 381.159179688 90.9912109375 381.159179688 90.9912109375 397.637695312 90.9912109375 c 256,76,77
 414.116210938 90.9912109375 414.116210938 90.9912109375 426.295898438 77.3779296875 c 0,78,79
 437.759765625 63.7646484375 437.759765625 63.7646484375 437.759765625 45.13671875 c 256,80,81
 437.759765625 26.509765625 437.759765625 26.509765625 426.295898438 13.6123046875 c 0,82,83
 414.116210938 0 414.116210938 0 397.637695312 0 c 1,84,-1
 397.637695312 0 l 1,68,69
39.4052734375 83.1103515625 m 1,85,86
 22.927734375 83.1103515625 22.927734375 83.1103515625 11.4638671875 96.005859375 c 256,87,88
 0 109.618164062 0 109.618164062 0 128.247070312 c 256,89,90
 0 146.875 0 146.875 11.4638671875 160.487304688 c 256,91,92
 22.927734375 174.100585938 22.927734375 174.100585938 39.4052734375 174.100585938 c 256,93,94
 55.8837890625 174.100585938 55.8837890625 174.100585938 68.064453125 160.487304688 c 0,95,96
 79.52734375 146.875 79.52734375 146.875 79.52734375 128.247070312 c 256,97,98
 79.52734375 109.618164062 79.52734375 109.618164062 68.064453125 96.005859375 c 0,99,100
 55.8837890625 82.3935546875 55.8837890625 82.3935546875 39.4052734375 83.1103515625 c 1,101,-1
 39.4052734375 83.1103515625 l 1,85,86
318.109375 83.1103515625 m 1,102,103
 301.631835938 83.1103515625 301.631835938 83.1103515625 290.16796875 96.005859375 c 0,104,105
 278.704101562 109.618164062 278.704101562 109.618164062 278.704101562 128.247070312 c 256,106,107
 278.704101562 146.875 278.704101562 146.875 290.16796875 160.487304688 c 0,108,109
 302.348632812 174.100585938 302.348632812 174.100585938 318.109375 174.100585938 c 256,110,111
 334.588867188 174.100585938 334.588867188 174.100585938 346.051757812 160.487304688 c 0,112,113
 358.232421875 146.875 358.232421875 146.875 358.232421875 128.247070312 c 256,114,115
 358.232421875 109.618164062 358.232421875 109.618164062 346.051757812 96.005859375 c 0,116,117
 334.588867188 82.3935546875 334.588867188 82.3935546875 318.109375 83.1103515625 c 1,118,-1
 318.109375 83.1103515625 l 1,102,103
79.52734375 165.502929688 m 1,119,120
 63.048828125 165.502929688 63.048828125 165.502929688 51.5859375 179.116210938 c 0,121,122
 39.4052734375 192.728515625 39.4052734375 192.728515625 39.4052734375 211.356445312 c 256,123,124
 39.4052734375 229.985351562 39.4052734375 229.985351562 51.5859375 243.59765625 c 0,125,126
 63.048828125 257.209960938 63.048828125 257.209960938 79.52734375 256.494140625 c 256,127,128
 96.005859375 256.494140625 96.005859375 256.494140625 107.469726562 243.59765625 c 0,129,130
 118.93359375 229.985351562 118.93359375 229.985351562 119.649414062 211.356445312 c 256,131,132
 119.649414062 192.728515625 119.649414062 192.728515625 107.469726562 179.116210938 c 0,133,134
 95.2890625 165.502929688 95.2890625 165.502929688 79.52734375 165.502929688 c 1,135,-1
 79.52734375 165.502929688 l 1,119,120
238.58203125 165.502929688 m 1,136,137
 222.103515625 165.502929688 222.103515625 165.502929688 210.640625 179.116210938 c 0,138,139
 198.4609375 192.728515625 198.4609375 192.728515625 198.4609375 211.356445312 c 256,140,141
 198.4609375 229.985351562 198.4609375 229.985351562 210.640625 243.59765625 c 0,142,143
 222.103515625 257.209960938 222.103515625 257.209960938 238.58203125 256.494140625 c 256,144,145
 255.061523438 256.494140625 255.061523438 256.494140625 267.240234375 243.59765625 c 0,146,147
 278.704101562 229.985351562 278.704101562 229.985351562 278.704101562 211.356445312 c 256,148,149
 278.704101562 192.728515625 278.704101562 192.728515625 267.240234375 179.116210938 c 0,150,151
 255.061523438 165.502929688 255.061523438 165.502929688 238.58203125 165.502929688 c 1,152,-1
 238.58203125 165.502929688 l 1,136,137
397.637695312 165.502929688 m 1,153,154
 381.159179688 165.502929688 381.159179688 165.502929688 369.6953125 179.116210938 c 256,155,156
 358.232421875 192.728515625 358.232421875 192.728515625 358.232421875 211.356445312 c 256,157,158
 358.232421875 229.985351562 358.232421875 229.985351562 369.6953125 243.59765625 c 256,159,160
 381.159179688 257.209960938 381.159179688 257.209960938 397.637695312 256.494140625 c 256,161,162
 414.116210938 256.494140625 414.116210938 256.494140625 426.295898438 243.59765625 c 0,163,164
 437.759765625 229.985351562 437.759765625 229.985351562 437.759765625 211.356445312 c 256,165,166
 437.759765625 192.728515625 437.759765625 192.728515625 426.295898438 179.116210938 c 0,167,168
 414.116210938 165.502929688 414.116210938 165.502929688 397.637695312 165.502929688 c 1,169,-1
 397.637695312 165.502929688 l 1,153,154
159.055664062 248.61328125 m 1,170,171
 142.576171875 248.61328125 142.576171875 248.61328125 131.112304688 262.225585938 c 0,172,173
 119.649414062 275.838867188 119.649414062 275.838867188 119.649414062 294.466796875 c 256,174,175
 119.649414062 313.094726562 119.649414062 313.094726562 131.112304688 326.708007812 c 0,176,177
 143.29296875 340.3203125 143.29296875 340.3203125 159.055664062 339.603515625 c 256,178,179
 175.533203125 339.603515625 175.533203125 339.603515625 186.997070312 326.708007812 c 256,180,181
 198.4609375 313.094726562 198.4609375 313.094726562 198.4609375 294.466796875 c 256,182,183
 198.4609375 275.838867188 198.4609375 275.838867188 186.997070312 262.225585938 c 256,184,185
 175.533203125 248.61328125 175.533203125 248.61328125 159.055664062 248.61328125 c 1,186,-1
 159.055664062 248.61328125 l 1,170,171
437.759765625 248.61328125 m 1,187,188
 421.280273438 248.61328125 421.280273438 248.61328125 409.817382812 262.225585938 c 0,189,190
 397.637695312 275.838867188 397.637695312 275.838867188 397.637695312 294.466796875 c 256,191,192
 397.637695312 313.094726562 397.637695312 313.094726562 409.817382812 326.708007812 c 0,193,194
 421.280273438 340.3203125 421.280273438 340.3203125 437.759765625 339.603515625 c 256,195,196
 454.23828125 339.603515625 454.23828125 339.603515625 465.701171875 326.708007812 c 0,197,198
 477.165039062 313.094726562 477.165039062 313.094726562 477.881835938 294.466796875 c 256,199,200
 477.881835938 275.838867188 477.881835938 275.838867188 465.701171875 262.225585938 c 0,201,202
 453.521484375 248.61328125 453.521484375 248.61328125 437.759765625 248.61328125 c 1,203,-1
 437.759765625 248.61328125 l 1,187,188
119.649414062 331.72265625 m 1,204,205
 103.170898438 331.72265625 103.170898438 331.72265625 90.9912109375 344.619140625 c 0,206,207
 79.52734375 358.232421875 79.52734375 358.232421875 79.52734375 376.860351562 c 256,208,209
 79.52734375 395.48828125 79.52734375 395.48828125 90.9912109375 409.1015625 c 0,210,211
 103.170898438 422.713867188 103.170898438 422.713867188 119.649414062 422.713867188 c 256,212,213
 136.127929688 422.713867188 136.127929688 422.713867188 147.591796875 409.1015625 c 0,214,215
 159.771484375 395.48828125 159.771484375 395.48828125 159.055664062 376.860351562 c 256,216,217
 159.055664062 358.232421875 159.055664062 358.232421875 147.591796875 344.619140625 c 0,218,219
 136.127929688 331.006835938 136.127929688 331.006835938 119.649414062 331.72265625 c 1,220,-1
 119.649414062 331.72265625 l 1,204,205
138.994140625 503.673828125 m 1,221,222
 138.994140625 503.673828125 l 1,223,-1
 138.994140625 503.673828125 l 1,224,225
 138.994140625 503.673828125 l 1,226,-1
 138.994140625 503.673828125 l 1,221,222
218.521484375 503.673828125 m 1,227,228
 218.521484375 503.673828125 l 1,229,-1
 218.521484375 503.673828125 l 1,230,231
 218.521484375 503.673828125 l 1,232,-1
 218.521484375 503.673828125 l 1,227,228
79.52734375 414.83203125 m 1,233,234
 63.048828125 414.83203125 63.048828125 414.83203125 51.5859375 427.729492188 c 0,235,236
 39.4052734375 441.341796875 39.4052734375 441.341796875 39.4052734375 459.970703125 c 256,237,238
 39.4052734375 478.59765625 39.4052734375 478.59765625 51.5859375 492.2109375 c 0,239,240
 63.048828125 505.82421875 63.048828125 505.82421875 79.52734375 505.82421875 c 256,241,242
 96.005859375 505.82421875 96.005859375 505.82421875 107.469726562 492.2109375 c 0,243,244
 118.93359375 478.59765625 118.93359375 478.59765625 119.649414062 459.970703125 c 256,245,246
 119.649414062 441.341796875 119.649414062 441.341796875 107.469726562 427.729492188 c 0,247,248
 95.2890625 414.116210938 95.2890625 414.116210938 79.52734375 414.83203125 c 1,249,-1
 79.52734375 414.83203125 l 1,233,234
318.109375 414.83203125 m 1,250,251
 301.631835938 414.83203125 301.631835938 414.83203125 290.16796875 427.729492188 c 0,252,253
 278.704101562 441.341796875 278.704101562 441.341796875 278.704101562 459.970703125 c 256,254,255
 278.704101562 478.59765625 278.704101562 478.59765625 290.16796875 492.2109375 c 0,256,257
 302.348632812 505.82421875 302.348632812 505.82421875 318.109375 505.82421875 c 256,258,259
 334.588867188 505.82421875 334.588867188 505.82421875 346.051757812 492.2109375 c 0,260,261
 358.232421875 478.59765625 358.232421875 478.59765625 358.232421875 459.970703125 c 256,262,263
 358.232421875 441.341796875 358.232421875 441.341796875 346.051757812 427.729492188 c 0,264,265
 334.588867188 414.116210938 334.588867188 414.116210938 318.109375 414.83203125 c 1,266,-1
 318.109375 414.83203125 l 1,250,251
119.649414062 497.225585938 m 1,267,268
 103.170898438 497.225585938 103.170898438 497.225585938 90.9912109375 510.838867188 c 0,269,270
 79.52734375 524.452148438 79.52734375 524.452148438 79.52734375 543.079101562 c 256,271,272
 79.52734375 561.708007812 79.52734375 561.708007812 90.9912109375 575.3203125 c 0,273,274
 103.170898438 588.93359375 103.170898438 588.93359375 119.649414062 588.216796875 c 0,275,276
 130.396484375 588.216796875 130.396484375 588.216796875 138.994140625 582.484375 c 1,277,-1
 138.994140625 582.484375 l 1,278,279
 147.591796875 588.216796875 147.591796875 588.216796875 159.055664062 588.216796875 c 0,280,281
 169.802734375 588.216796875 169.802734375 588.216796875 179.116210938 582.484375 c 1,282,-1
 179.116210938 582.484375 l 1,283,284
 187.713867188 588.216796875 187.713867188 588.216796875 198.4609375 588.216796875 c 0,285,286
 209.923828125 588.216796875 209.923828125 588.216796875 218.521484375 582.484375 c 1,287,-1
 218.521484375 582.484375 l 1,288,289
 227.834960938 588.216796875 227.834960938 588.216796875 238.58203125 588.216796875 c 0,290,291
 250.045898438 588.216796875 250.045898438 588.216796875 258.643554688 582.484375 c 1,292,-1
 258.643554688 582.484375 l 1,293,294
 267.240234375 588.216796875 267.240234375 588.216796875 278.704101562 588.216796875 c 0,295,296
 295.18359375 588.216796875 295.18359375 588.216796875 306.646484375 575.3203125 c 0,297,298
 318.826171875 561.708007812 318.826171875 561.708007812 318.109375 543.079101562 c 256,299,300
 318.109375 524.452148438 318.109375 524.452148438 306.646484375 510.838867188 c 0,301,302
 295.18359375 497.225585938 295.18359375 497.225585938 278.704101562 497.225585938 c 0,303,304
 267.240234375 497.225585938 267.240234375 497.225585938 258.643554688 503.673828125 c 1,305,306
 250.045898438 497.942382812 250.045898438 497.942382812 238.58203125 497.225585938 c 0,307,308
 227.834960938 497.225585938 227.834960938 497.225585938 218.521484375 503.673828125 c 1,309,-1
 218.521484375 503.673828125 l 1,310,311
 209.923828125 497.942382812 209.923828125 497.942382812 198.4609375 497.225585938 c 0,312,313
 187.713867188 497.225585938 187.713867188 497.225585938 179.116210938 503.673828125 c 1,314,315
 169.802734375 497.942382812 169.802734375 497.942382812 159.055664062 497.225585938 c 0,316,317
 147.591796875 497.225585938 147.591796875 497.225585938 138.994140625 503.673828125 c 1,318,319
 129.680664062 497.942382812 129.680664062 497.942382812 119.649414062 497.225585938 c 1,320,-1
 119.649414062 497.225585938 l 1,267,268
EndSplineSet
EndChar

StartChar: quotesingle
Encoding: 39 39 7
Width: 218
VWidth: 715
Flags: W
LayerCount: 2
Fore
SplineSet
39.4052734375 331.72265625 m 1,0,1
 22.927734375 331.72265625 22.927734375 331.72265625 11.4638671875 344.619140625 c 256,2,3
 0 358.232421875 0 358.232421875 0 376.860351562 c 256,4,5
 0 395.48828125 0 395.48828125 11.4638671875 409.1015625 c 256,6,7
 22.927734375 422.713867188 22.927734375 422.713867188 39.4052734375 422.713867188 c 256,8,9
 55.8837890625 422.713867188 55.8837890625 422.713867188 68.064453125 409.1015625 c 0,10,11
 79.52734375 395.48828125 79.52734375 395.48828125 79.52734375 376.860351562 c 256,12,13
 79.52734375 358.232421875 79.52734375 358.232421875 68.064453125 344.619140625 c 0,14,15
 55.8837890625 331.006835938 55.8837890625 331.006835938 39.4052734375 331.72265625 c 1,16,-1
 39.4052734375 331.72265625 l 1,0,1
79.52734375 414.83203125 m 1,17,18
 63.048828125 414.83203125 63.048828125 414.83203125 51.5859375 427.729492188 c 0,19,20
 39.4052734375 441.341796875 39.4052734375 441.341796875 39.4052734375 459.970703125 c 256,21,22
 39.4052734375 478.59765625 39.4052734375 478.59765625 51.5859375 492.2109375 c 0,23,24
 63.048828125 505.82421875 63.048828125 505.82421875 79.52734375 505.82421875 c 256,25,26
 96.005859375 505.82421875 96.005859375 505.82421875 107.469726562 492.2109375 c 0,27,28
 118.93359375 478.59765625 118.93359375 478.59765625 119.649414062 459.970703125 c 256,29,30
 119.649414062 441.341796875 119.649414062 441.341796875 107.469726562 427.729492188 c 0,31,32
 95.2890625 414.116210938 95.2890625 414.116210938 79.52734375 414.83203125 c 1,33,-1
 79.52734375 414.83203125 l 1,17,18
119.649414062 497.225585938 m 1,34,35
 103.170898438 497.225585938 103.170898438 497.225585938 90.9912109375 510.838867188 c 0,36,37
 79.52734375 524.452148438 79.52734375 524.452148438 79.52734375 543.079101562 c 256,38,39
 79.52734375 561.708007812 79.52734375 561.708007812 90.9912109375 575.3203125 c 0,40,41
 103.170898438 588.93359375 103.170898438 588.93359375 119.649414062 588.216796875 c 256,42,43
 136.127929688 588.216796875 136.127929688 588.216796875 147.591796875 575.3203125 c 0,44,45
 159.771484375 561.708007812 159.771484375 561.708007812 159.055664062 543.079101562 c 256,46,47
 159.055664062 524.452148438 159.055664062 524.452148438 147.591796875 510.838867188 c 0,48,49
 136.127929688 497.225585938 136.127929688 497.225585938 119.649414062 497.225585938 c 1,50,-1
 119.649414062 497.225585938 l 1,34,35
EndSplineSet
EndChar

StartChar: parenleft
Encoding: 40 40 8
Width: 218
VWidth: 715
Flags: W
LayerCount: 2
Fore
SplineSet
119.649414062 0 m 1,0,1
 103.170898438 0 103.170898438 0 90.9912109375 13.6123046875 c 0,2,3
 79.52734375 27.2255859375 79.52734375 27.2255859375 79.52734375 45.13671875 c 256,4,5
 79.52734375 63.7646484375 79.52734375 63.7646484375 90.9912109375 77.3779296875 c 0,6,7
 103.170898438 90.9912109375 103.170898438 90.9912109375 119.649414062 90.9912109375 c 256,8,9
 136.127929688 90.9912109375 136.127929688 90.9912109375 147.591796875 77.3779296875 c 0,10,11
 159.771484375 63.7646484375 159.771484375 63.7646484375 159.055664062 45.13671875 c 256,12,13
 159.055664062 26.509765625 159.055664062 26.509765625 147.591796875 13.6123046875 c 0,14,15
 136.127929688 0 136.127929688 0 119.649414062 0 c 1,16,-1
 119.649414062 0 l 1,0,1
79.52734375 83.1103515625 m 1,17,18
 63.048828125 83.1103515625 63.048828125 83.1103515625 51.5859375 96.005859375 c 0,19,20
 39.4052734375 109.618164062 39.4052734375 109.618164062 39.4052734375 128.247070312 c 256,21,22
 39.4052734375 146.875 39.4052734375 146.875 51.5859375 160.487304688 c 0,23,24
 63.048828125 174.100585938 63.048828125 174.100585938 79.52734375 174.100585938 c 256,25,26
 96.005859375 174.100585938 96.005859375 174.100585938 107.469726562 160.487304688 c 0,27,28
 118.93359375 146.875 118.93359375 146.875 119.649414062 128.247070312 c 256,29,30
 119.649414062 109.618164062 119.649414062 109.618164062 107.469726562 96.005859375 c 0,31,32
 95.2890625 82.3935546875 95.2890625 82.3935546875 79.52734375 83.1103515625 c 1,33,-1
 79.52734375 83.1103515625 l 1,17,18
39.4052734375 165.502929688 m 1,34,35
 22.927734375 165.502929688 22.927734375 165.502929688 11.4638671875 179.116210938 c 256,36,37
 0 192.728515625 0 192.728515625 0 211.356445312 c 256,38,39
 0 229.985351562 0 229.985351562 11.4638671875 243.59765625 c 0,40,41
 16.478515625 249.329101562 16.478515625 249.329101562 22.927734375 252.911132812 c 1,42,-1
 22.927734375 252.911132812 l 1,43,44
 17.1953125 256.494140625 17.1953125 256.494140625 11.4638671875 262.225585938 c 0,45,46
 0 275.838867188 0 275.838867188 0 294.466796875 c 256,47,48
 0 313.094726562 0 313.094726562 11.4638671875 326.708007812 c 0,49,50
 16.478515625 332.439453125 16.478515625 332.439453125 22.927734375 336.021484375 c 1,51,-1
 22.927734375 336.021484375 l 1,52,53
 17.1953125 338.88671875 17.1953125 338.88671875 11.4638671875 344.619140625 c 0,54,55
 0 358.232421875 0 358.232421875 0 376.860351562 c 256,56,57
 0 395.48828125 0 395.48828125 11.4638671875 409.1015625 c 256,58,59
 22.927734375 422.713867188 22.927734375 422.713867188 39.4052734375 422.713867188 c 256,60,61
 55.8837890625 422.713867188 55.8837890625 422.713867188 68.064453125 409.1015625 c 0,62,63
 79.52734375 395.48828125 79.52734375 395.48828125 79.52734375 376.860351562 c 256,64,65
 79.52734375 358.232421875 79.52734375 358.232421875 68.064453125 344.619140625 c 0,66,67
 63.048828125 338.88671875 63.048828125 338.88671875 56.6005859375 336.021484375 c 1,68,-1
 56.6005859375 336.021484375 l 1,69,70
 62.3330078125 332.439453125 62.3330078125 332.439453125 68.064453125 326.708007812 c 0,71,72
 79.52734375 313.094726562 79.52734375 313.094726562 79.52734375 294.466796875 c 256,73,74
 79.52734375 275.838867188 79.52734375 275.838867188 68.064453125 262.225585938 c 0,75,76
 63.048828125 256.494140625 63.048828125 256.494140625 56.6005859375 252.911132812 c 1,77,-1
 56.6005859375 252.911132812 l 1,78,79
 62.3330078125 250.045898438 62.3330078125 250.045898438 68.064453125 243.59765625 c 0,80,81
 79.52734375 229.985351562 79.52734375 229.985351562 79.52734375 211.356445312 c 256,82,83
 79.52734375 192.728515625 79.52734375 192.728515625 68.064453125 179.116210938 c 0,84,85
 55.8837890625 165.502929688 55.8837890625 165.502929688 39.4052734375 165.502929688 c 1,86,-1
 39.4052734375 165.502929688 l 1,34,35
79.52734375 414.83203125 m 1,87,88
 63.048828125 414.83203125 63.048828125 414.83203125 51.5859375 427.729492188 c 0,89,90
 39.4052734375 441.341796875 39.4052734375 441.341796875 39.4052734375 459.970703125 c 256,91,92
 39.4052734375 478.59765625 39.4052734375 478.59765625 51.5859375 492.2109375 c 0,93,94
 63.048828125 505.82421875 63.048828125 505.82421875 79.52734375 505.82421875 c 256,95,96
 96.005859375 505.82421875 96.005859375 505.82421875 107.469726562 492.2109375 c 0,97,98
 118.93359375 478.59765625 118.93359375 478.59765625 119.649414062 459.970703125 c 256,99,100
 119.649414062 441.341796875 119.649414062 441.341796875 107.469726562 427.729492188 c 0,101,102
 95.2890625 414.116210938 95.2890625 414.116210938 79.52734375 414.83203125 c 1,103,-1
 79.52734375 414.83203125 l 1,87,88
119.649414062 497.225585938 m 1,104,105
 103.170898438 497.225585938 103.170898438 497.225585938 90.9912109375 510.838867188 c 0,106,107
 79.52734375 524.452148438 79.52734375 524.452148438 79.52734375 543.079101562 c 256,108,109
 79.52734375 561.708007812 79.52734375 561.708007812 90.9912109375 575.3203125 c 0,110,111
 103.170898438 588.93359375 103.170898438 588.93359375 119.649414062 588.216796875 c 256,112,113
 136.127929688 588.216796875 136.127929688 588.216796875 147.591796875 575.3203125 c 0,114,115
 159.771484375 561.708007812 159.771484375 561.708007812 159.055664062 543.079101562 c 256,116,117
 159.055664062 524.452148438 159.055664062 524.452148438 147.591796875 510.838867188 c 0,118,119
 136.127929688 497.225585938 136.127929688 497.225585938 119.649414062 497.225585938 c 1,120,-1
 119.649414062 497.225585938 l 1,104,105
EndSplineSet
EndChar

StartChar: parenright
Encoding: 41 41 9
Width: 218
VWidth: 715
Flags: W
LayerCount: 2
Fore
SplineSet
39.4052734375 0 m 1,0,1
 22.927734375 0 22.927734375 0 11.4638671875 13.6123046875 c 256,2,3
 0 27.2255859375 0 27.2255859375 0 45.13671875 c 256,4,5
 0 63.7646484375 0 63.7646484375 11.4638671875 77.3779296875 c 256,6,7
 22.927734375 90.9912109375 22.927734375 90.9912109375 39.4052734375 90.9912109375 c 256,8,9
 55.8837890625 90.9912109375 55.8837890625 90.9912109375 68.064453125 77.3779296875 c 0,10,11
 79.52734375 63.7646484375 79.52734375 63.7646484375 79.52734375 45.13671875 c 256,12,13
 79.52734375 26.509765625 79.52734375 26.509765625 68.064453125 13.6123046875 c 0,14,15
 55.8837890625 0 55.8837890625 0 39.4052734375 0 c 1,16,-1
 39.4052734375 0 l 1,0,1
79.52734375 83.1103515625 m 1,17,18
 63.048828125 83.1103515625 63.048828125 83.1103515625 51.5859375 96.005859375 c 0,19,20
 39.4052734375 109.618164062 39.4052734375 109.618164062 39.4052734375 128.247070312 c 256,21,22
 39.4052734375 146.875 39.4052734375 146.875 51.5859375 160.487304688 c 0,23,24
 63.048828125 174.100585938 63.048828125 174.100585938 79.52734375 174.100585938 c 256,25,26
 96.005859375 174.100585938 96.005859375 174.100585938 107.469726562 160.487304688 c 0,27,28
 118.93359375 146.875 118.93359375 146.875 119.649414062 128.247070312 c 256,29,30
 119.649414062 109.618164062 119.649414062 109.618164062 107.469726562 96.005859375 c 0,31,32
 95.2890625 82.3935546875 95.2890625 82.3935546875 79.52734375 83.1103515625 c 1,33,-1
 79.52734375 83.1103515625 l 1,17,18
119.649414062 165.502929688 m 1,34,35
 103.170898438 165.502929688 103.170898438 165.502929688 90.9912109375 179.116210938 c 0,36,37
 79.52734375 192.728515625 79.52734375 192.728515625 79.52734375 211.356445312 c 256,38,39
 79.52734375 229.985351562 79.52734375 229.985351562 90.9912109375 243.59765625 c 0,40,41
 96.005859375 249.329101562 96.005859375 249.329101562 102.454101562 252.911132812 c 1,42,-1
 102.454101562 252.911132812 l 1,43,44
 96.005859375 256.494140625 96.005859375 256.494140625 90.9912109375 262.225585938 c 0,45,46
 79.52734375 275.838867188 79.52734375 275.838867188 79.52734375 294.466796875 c 256,47,48
 79.52734375 313.094726562 79.52734375 313.094726562 90.9912109375 326.708007812 c 0,49,50
 96.005859375 332.439453125 96.005859375 332.439453125 102.454101562 336.021484375 c 1,51,-1
 102.454101562 336.021484375 l 1,52,53
 96.005859375 338.88671875 96.005859375 338.88671875 90.9912109375 344.619140625 c 0,54,55
 79.52734375 358.232421875 79.52734375 358.232421875 79.52734375 376.860351562 c 256,56,57
 79.52734375 395.48828125 79.52734375 395.48828125 90.9912109375 409.1015625 c 0,58,59
 103.170898438 422.713867188 103.170898438 422.713867188 119.649414062 422.713867188 c 256,60,61
 136.127929688 422.713867188 136.127929688 422.713867188 147.591796875 409.1015625 c 0,62,63
 159.771484375 395.48828125 159.771484375 395.48828125 159.055664062 376.860351562 c 256,64,65
 159.055664062 358.232421875 159.055664062 358.232421875 147.591796875 344.619140625 c 0,66,67
 142.576171875 338.88671875 142.576171875 338.88671875 136.127929688 336.021484375 c 1,68,-1
 136.127929688 336.021484375 l 1,69,70
 142.576171875 332.439453125 142.576171875 332.439453125 147.591796875 326.708007812 c 0,71,72
 159.771484375 313.094726562 159.771484375 313.094726562 159.055664062 294.466796875 c 256,73,74
 159.055664062 275.838867188 159.055664062 275.838867188 147.591796875 262.225585938 c 0,75,76
 142.576171875 256.494140625 142.576171875 256.494140625 136.127929688 252.911132812 c 1,77,-1
 136.127929688 252.911132812 l 1,78,79
 142.576171875 250.045898438 142.576171875 250.045898438 147.591796875 243.59765625 c 0,80,81
 159.771484375 229.985351562 159.771484375 229.985351562 159.055664062 211.356445312 c 256,82,83
 159.055664062 192.728515625 159.055664062 192.728515625 147.591796875 179.116210938 c 0,84,85
 136.127929688 165.502929688 136.127929688 165.502929688 119.649414062 165.502929688 c 1,86,-1
 119.649414062 165.502929688 l 1,34,35
79.52734375 414.83203125 m 1,87,88
 63.048828125 414.83203125 63.048828125 414.83203125 51.5859375 427.729492188 c 0,89,90
 39.4052734375 441.341796875 39.4052734375 441.341796875 39.4052734375 459.970703125 c 256,91,92
 39.4052734375 478.59765625 39.4052734375 478.59765625 51.5859375 492.2109375 c 0,93,94
 63.048828125 505.82421875 63.048828125 505.82421875 79.52734375 505.82421875 c 256,95,96
 96.005859375 505.82421875 96.005859375 505.82421875 107.469726562 492.2109375 c 0,97,98
 118.93359375 478.59765625 118.93359375 478.59765625 119.649414062 459.970703125 c 256,99,100
 119.649414062 441.341796875 119.649414062 441.341796875 107.469726562 427.729492188 c 0,101,102
 95.2890625 414.116210938 95.2890625 414.116210938 79.52734375 414.83203125 c 1,103,-1
 79.52734375 414.83203125 l 1,87,88
39.4052734375 497.225585938 m 1,104,105
 22.927734375 497.225585938 22.927734375 497.225585938 11.4638671875 510.838867188 c 256,106,107
 0 524.452148438 0 524.452148438 0 543.079101562 c 256,108,109
 0 561.708007812 0 561.708007812 11.4638671875 575.3203125 c 256,110,111
 22.927734375 588.93359375 22.927734375 588.93359375 39.4052734375 588.216796875 c 256,112,113
 55.8837890625 588.216796875 55.8837890625 588.216796875 68.064453125 575.3203125 c 0,114,115
 79.52734375 561.708007812 79.52734375 561.708007812 79.52734375 543.079101562 c 256,116,117
 79.52734375 524.452148438 79.52734375 524.452148438 68.064453125 510.838867188 c 0,118,119
 55.8837890625 497.225585938 55.8837890625 497.225585938 39.4052734375 497.225585938 c 1,120,-1
 39.4052734375 497.225585938 l 1,104,105
EndSplineSet
EndChar

StartChar: asterisk
Encoding: 42 42 10
Width: 456
VWidth: 715
Flags: W
LayerCount: 2
Fore
SplineSet
179.116210938 171.951171875 m 1,0,1
 179.116210938 171.951171875 l 1,2,-1
 179.116210938 171.951171875 l 1,3,4
 179.116210938 171.951171875 l 1,5,-1
 179.116210938 171.951171875 l 1,0,1
119.649414062 83.1103515625 m 1,6,7
 103.170898438 83.1103515625 103.170898438 83.1103515625 90.9912109375 96.005859375 c 0,8,9
 79.52734375 109.618164062 79.52734375 109.618164062 79.52734375 128.247070312 c 256,10,11
 79.52734375 146.875 79.52734375 146.875 90.9912109375 160.487304688 c 0,12,13
 103.170898438 174.100585938 103.170898438 174.100585938 119.649414062 174.100585938 c 256,14,15
 136.127929688 174.100585938 136.127929688 174.100585938 147.591796875 160.487304688 c 0,16,17
 159.771484375 146.875 159.771484375 146.875 159.055664062 128.247070312 c 256,18,19
 159.055664062 109.618164062 159.055664062 109.618164062 147.591796875 96.005859375 c 0,20,21
 136.127929688 82.3935546875 136.127929688 82.3935546875 119.649414062 83.1103515625 c 1,22,-1
 119.649414062 83.1103515625 l 1,6,7
278.704101562 83.1103515625 m 1,23,24
 262.225585938 83.1103515625 262.225585938 83.1103515625 250.045898438 96.005859375 c 0,25,26
 238.58203125 109.618164062 238.58203125 109.618164062 238.58203125 128.247070312 c 256,27,28
 238.58203125 146.875 238.58203125 146.875 250.045898438 160.487304688 c 0,29,30
 262.225585938 174.100585938 262.225585938 174.100585938 278.704101562 174.100585938 c 256,31,32
 295.18359375 174.100585938 295.18359375 174.100585938 306.646484375 160.487304688 c 0,33,34
 318.826171875 146.875 318.826171875 146.875 318.109375 128.247070312 c 256,35,36
 318.109375 109.618164062 318.109375 109.618164062 306.646484375 96.005859375 c 0,37,38
 295.18359375 82.3935546875 295.18359375 82.3935546875 278.704101562 83.1103515625 c 1,39,-1
 278.704101562 83.1103515625 l 1,23,24
59.4658203125 254.344726562 m 1,40,41
 59.4658203125 254.344726562 l 1,42,-1
 59.4658203125 254.344726562 l 1,43,44
 59.4658203125 254.344726562 l 1,45,-1
 59.4658203125 254.344726562 l 1,40,41
99.587890625 254.344726562 m 1,46,47
 99.587890625 254.344726562 l 1,48,-1
 99.587890625 254.344726562 l 1,49,50
 99.587890625 254.344726562 l 1,51,-1
 99.587890625 254.344726562 l 1,46,47
298.765625 254.344726562 m 1,52,53
 298.765625 254.344726562 l 1,54,-1
 298.765625 254.344726562 l 1,55,56
 298.765625 254.344726562 l 1,57,-1
 298.765625 254.344726562 l 1,52,53
159.055664062 165.502929688 m 1,58,59
 142.576171875 165.502929688 142.576171875 165.502929688 131.112304688 179.116210938 c 0,60,61
 119.649414062 192.728515625 119.649414062 192.728515625 119.649414062 211.356445312 c 256,62,63
 119.649414062 229.985351562 119.649414062 229.985351562 131.112304688 243.59765625 c 0,64,65
 143.29296875 257.209960938 143.29296875 257.209960938 159.055664062 256.494140625 c 0,66,67
 169.802734375 256.494140625 169.802734375 256.494140625 179.116210938 250.762695312 c 1,68,-1
 179.116210938 250.762695312 l 1,69,70
 187.713867188 256.494140625 187.713867188 256.494140625 198.4609375 256.494140625 c 0,71,72
 209.923828125 256.494140625 209.923828125 256.494140625 218.521484375 250.762695312 c 1,73,-1
 218.521484375 250.762695312 l 1,74,75
 227.834960938 256.494140625 227.834960938 256.494140625 238.58203125 256.494140625 c 0,76,77
 255.061523438 256.494140625 255.061523438 256.494140625 267.240234375 243.59765625 c 0,78,79
 278.704101562 229.985351562 278.704101562 229.985351562 278.704101562 211.356445312 c 256,80,81
 278.704101562 192.728515625 278.704101562 192.728515625 267.240234375 179.116210938 c 0,82,83
 255.061523438 165.502929688 255.061523438 165.502929688 238.58203125 165.502929688 c 0,84,85
 227.834960938 165.502929688 227.834960938 165.502929688 218.521484375 171.951171875 c 1,86,87
 209.923828125 166.219726562 209.923828125 166.219726562 198.4609375 165.502929688 c 0,88,89
 187.713867188 165.502929688 187.713867188 165.502929688 179.116210938 171.951171875 c 1,90,-1
 179.116210938 171.951171875 l 1,91,92
 169.802734375 166.219726562 169.802734375 166.219726562 159.055664062 165.502929688 c 1,93,-1
 159.055664062 165.502929688 l 1,58,59
218.521484375 337.455078125 m 1,94,95
 218.521484375 337.455078125 l 1,96,-1
 218.521484375 337.455078125 l 1,97,98
 218.521484375 337.455078125 l 1,99,-1
 218.521484375 337.455078125 l 1,94,95
39.4052734375 248.61328125 m 1,100,101
 22.927734375 248.61328125 22.927734375 248.61328125 11.4638671875 262.225585938 c 256,102,103
 0 275.838867188 0 275.838867188 0 294.466796875 c 256,104,105
 0 313.094726562 0 313.094726562 11.4638671875 326.708007812 c 256,106,107
 22.927734375 340.3203125 22.927734375 340.3203125 39.4052734375 339.603515625 c 0,108,109
 50.869140625 339.603515625 50.869140625 339.603515625 59.4658203125 333.872070312 c 1,110,-1
 59.4658203125 333.872070312 l 1,111,112
 68.7802734375 339.603515625 68.7802734375 339.603515625 79.52734375 339.603515625 c 0,113,114
 90.9912109375 339.603515625 90.9912109375 339.603515625 99.587890625 333.872070312 c 1,115,-1
 99.587890625 333.872070312 l 1,116,117
 108.186523438 339.603515625 108.186523438 339.603515625 119.649414062 339.603515625 c 0,118,119
 136.127929688 339.603515625 136.127929688 339.603515625 147.591796875 326.708007812 c 0,120,121
 159.771484375 313.094726562 159.771484375 313.094726562 159.055664062 294.466796875 c 256,122,123
 159.055664062 275.838867188 159.055664062 275.838867188 147.591796875 262.225585938 c 0,124,125
 136.127929688 248.61328125 136.127929688 248.61328125 119.649414062 248.61328125 c 0,126,127
 108.186523438 248.61328125 108.186523438 248.61328125 99.587890625 254.344726562 c 1,128,129
 90.9912109375 248.61328125 90.9912109375 248.61328125 79.52734375 248.61328125 c 0,130,131
 68.7802734375 248.61328125 68.7802734375 248.61328125 59.4658203125 254.344726562 c 1,132,-1
 59.4658203125 254.344726562 l 1,133,134
 50.869140625 248.61328125 50.869140625 248.61328125 39.4052734375 248.61328125 c 1,135,-1
 39.4052734375 248.61328125 l 1,100,101
278.704101562 248.61328125 m 1,136,137
 262.225585938 248.61328125 262.225585938 248.61328125 250.045898438 262.225585938 c 0,138,139
 238.58203125 275.838867188 238.58203125 275.838867188 238.58203125 294.466796875 c 256,140,141
 238.58203125 313.094726562 238.58203125 313.094726562 250.045898438 326.708007812 c 0,142,143
 262.225585938 340.3203125 262.225585938 340.3203125 278.704101562 339.603515625 c 0,144,145
 289.451171875 339.603515625 289.451171875 339.603515625 298.765625 333.872070312 c 1,146,-1
 298.765625 333.872070312 l 1,147,148
 307.36328125 339.603515625 307.36328125 339.603515625 318.109375 339.603515625 c 0,149,150
 328.856445312 339.603515625 328.856445312 339.603515625 338.171875 333.872070312 c 1,151,-1
 338.171875 333.872070312 l 1,152,153
 346.768554688 339.603515625 346.768554688 339.603515625 358.232421875 339.603515625 c 0,154,155
 374.709960938 339.603515625 374.709960938 339.603515625 386.173828125 326.708007812 c 256,156,157
 397.637695312 313.094726562 397.637695312 313.094726562 397.637695312 294.466796875 c 256,158,159
 397.637695312 275.838867188 397.637695312 275.838867188 386.173828125 262.225585938 c 256,160,161
 374.709960938 248.61328125 374.709960938 248.61328125 358.232421875 248.61328125 c 0,162,163
 346.768554688 248.61328125 346.768554688 248.61328125 338.171875 254.344726562 c 1,164,165
 328.856445312 248.61328125 328.856445312 248.61328125 318.109375 248.61328125 c 0,166,167
 306.646484375 248.61328125 306.646484375 248.61328125 298.765625 254.344726562 c 1,168,-1
 298.765625 254.344726562 l 1,169,170
 289.451171875 248.61328125 289.451171875 248.61328125 278.704101562 248.61328125 c 1,171,-1
 278.704101562 248.61328125 l 1,136,137
159.055664062 331.72265625 m 1,172,173
 142.576171875 331.72265625 142.576171875 331.72265625 131.112304688 344.619140625 c 0,174,175
 119.649414062 358.232421875 119.649414062 358.232421875 119.649414062 376.860351562 c 256,176,177
 119.649414062 395.48828125 119.649414062 395.48828125 131.112304688 409.1015625 c 0,178,179
 143.29296875 422.713867188 143.29296875 422.713867188 159.055664062 422.713867188 c 0,180,181
 169.802734375 422.713867188 169.802734375 422.713867188 179.116210938 416.982421875 c 1,182,-1
 179.116210938 416.982421875 l 1,183,184
 187.713867188 422.713867188 187.713867188 422.713867188 198.4609375 422.713867188 c 0,185,186
 209.923828125 422.713867188 209.923828125 422.713867188 218.521484375 416.982421875 c 1,187,-1
 218.521484375 416.982421875 l 1,188,189
 227.834960938 422.713867188 227.834960938 422.713867188 238.58203125 422.713867188 c 0,190,191
 255.061523438 422.713867188 255.061523438 422.713867188 267.240234375 409.1015625 c 0,192,193
 278.704101562 395.48828125 278.704101562 395.48828125 278.704101562 376.860351562 c 256,194,195
 278.704101562 358.232421875 278.704101562 358.232421875 267.240234375 344.619140625 c 0,196,197
 255.061523438 331.006835938 255.061523438 331.006835938 238.58203125 331.72265625 c 0,198,199
 227.834960938 331.72265625 227.834960938 331.72265625 218.521484375 337.455078125 c 1,200,-1
 218.521484375 337.455078125 l 1,201,202
 209.923828125 331.72265625 209.923828125 331.72265625 198.4609375 331.72265625 c 0,203,204
 187.713867188 331.72265625 187.713867188 331.72265625 179.116210938 337.455078125 c 1,205,-1
 179.116210938 337.455078125 l 1,206,207
 169.802734375 331.72265625 169.802734375 331.72265625 159.055664062 331.72265625 c 1,208,-1
 159.055664062 331.72265625 l 1,172,173
119.649414062 414.83203125 m 1,209,210
 103.170898438 414.83203125 103.170898438 414.83203125 90.9912109375 427.729492188 c 0,211,212
 79.52734375 441.341796875 79.52734375 441.341796875 79.52734375 459.970703125 c 256,213,214
 79.52734375 478.59765625 79.52734375 478.59765625 90.9912109375 492.2109375 c 0,215,216
 103.170898438 505.82421875 103.170898438 505.82421875 119.649414062 505.82421875 c 256,217,218
 136.127929688 505.82421875 136.127929688 505.82421875 147.591796875 492.2109375 c 0,219,220
 159.771484375 478.59765625 159.771484375 478.59765625 159.055664062 459.970703125 c 256,221,222
 159.055664062 441.341796875 159.055664062 441.341796875 147.591796875 427.729492188 c 0,223,224
 136.127929688 414.116210938 136.127929688 414.116210938 119.649414062 414.83203125 c 1,225,-1
 119.649414062 414.83203125 l 1,209,210
278.704101562 414.83203125 m 1,226,227
 262.225585938 414.83203125 262.225585938 414.83203125 250.045898438 427.729492188 c 0,228,229
 238.58203125 441.341796875 238.58203125 441.341796875 238.58203125 459.970703125 c 256,230,231
 238.58203125 478.59765625 238.58203125 478.59765625 250.045898438 492.2109375 c 0,232,233
 262.225585938 505.82421875 262.225585938 505.82421875 278.704101562 505.82421875 c 256,234,235
 295.18359375 505.82421875 295.18359375 505.82421875 306.646484375 492.2109375 c 0,236,237
 318.826171875 478.59765625 318.826171875 478.59765625 318.109375 459.970703125 c 256,238,239
 318.109375 441.341796875 318.109375 441.341796875 306.646484375 427.729492188 c 0,240,241
 295.18359375 414.116210938 295.18359375 414.116210938 278.704101562 414.83203125 c 1,242,-1
 278.704101562 414.83203125 l 1,226,227
EndSplineSet
EndChar

StartChar: plus
Encoding: 43 43 11
Width: 456
VWidth: 715
Flags: W
LayerCount: 2
Fore
SplineSet
59.4658203125 254.344726562 m 1,0,1
 59.4658203125 254.344726562 l 1,2,-1
 59.4658203125 254.344726562 l 1,3,4
 59.4658203125 254.344726562 l 1,5,-1
 59.4658203125 254.344726562 l 1,0,1
138.994140625 254.344726562 m 1,6,7
 138.994140625 254.344726562 l 1,8,-1
 138.994140625 254.344726562 l 1,9,10
 138.994140625 254.344726562 l 1,11,-1
 138.994140625 254.344726562 l 1,6,7
218.521484375 254.344726562 m 1,12,13
 218.521484375 254.344726562 l 1,14,-1
 218.521484375 254.344726562 l 1,15,16
 218.521484375 254.344726562 l 1,17,-1
 218.521484375 254.344726562 l 1,12,13
298.765625 254.344726562 m 1,18,19
 298.765625 254.344726562 l 1,20,-1
 298.765625 254.344726562 l 1,21,22
 298.765625 254.344726562 l 1,23,-1
 298.765625 254.344726562 l 1,18,19
198.4609375 83.1103515625 m 1,24,25
 181.981445312 83.1103515625 181.981445312 83.1103515625 170.517578125 96.005859375 c 256,26,27
 159.055664062 109.618164062 159.055664062 109.618164062 159.055664062 128.247070312 c 256,28,29
 159.055664062 146.875 159.055664062 146.875 170.517578125 160.487304688 c 0,30,31
 175.533203125 166.219726562 175.533203125 166.219726562 181.981445312 169.802734375 c 1,32,-1
 181.981445312 169.802734375 l 1,33,34
 176.25 173.384765625 176.25 173.384765625 170.517578125 179.116210938 c 0,35,36
 159.055664062 192.728515625 159.055664062 192.728515625 159.055664062 211.356445312 c 256,37,38
 159.055664062 229.985351562 159.055664062 229.985351562 170.517578125 243.59765625 c 0,39,40
 175.533203125 249.329101562 175.533203125 249.329101562 181.981445312 252.911132812 c 1,41,-1
 181.981445312 252.911132812 l 1,42,43
 180.549804688 253.627929688 180.549804688 253.627929688 179.116210938 254.344726562 c 1,44,45
 169.802734375 248.61328125 169.802734375 248.61328125 159.055664062 248.61328125 c 0,46,47
 147.591796875 248.61328125 147.591796875 248.61328125 138.994140625 254.344726562 c 1,48,49
 129.680664062 248.61328125 129.680664062 248.61328125 119.649414062 248.61328125 c 0,50,51
 108.186523438 248.61328125 108.186523438 248.61328125 99.587890625 254.344726562 c 1,52,-1
 99.587890625 254.344726562 l 1,53,54
 90.9912109375 248.61328125 90.9912109375 248.61328125 79.52734375 248.61328125 c 0,55,56
 68.7802734375 248.61328125 68.7802734375 248.61328125 59.4658203125 254.344726562 c 1,57,-1
 59.4658203125 254.344726562 l 1,58,59
 50.869140625 248.61328125 50.869140625 248.61328125 39.4052734375 248.61328125 c 0,60,61
 22.927734375 248.61328125 22.927734375 248.61328125 11.4638671875 262.225585938 c 256,62,63
 0 275.838867188 0 275.838867188 0 294.466796875 c 256,64,65
 0 313.094726562 0 313.094726562 11.4638671875 326.708007812 c 256,66,67
 22.927734375 340.3203125 22.927734375 340.3203125 39.4052734375 339.603515625 c 0,68,69
 50.869140625 339.603515625 50.869140625 339.603515625 59.4658203125 333.872070312 c 1,70,-1
 59.4658203125 333.872070312 l 1,71,72
 68.7802734375 339.603515625 68.7802734375 339.603515625 79.52734375 339.603515625 c 0,73,74
 90.9912109375 339.603515625 90.9912109375 339.603515625 99.587890625 333.872070312 c 1,75,-1
 99.587890625 333.872070312 l 1,76,77
 108.186523438 339.603515625 108.186523438 339.603515625 119.649414062 339.603515625 c 0,78,79
 130.396484375 339.603515625 130.396484375 339.603515625 138.994140625 333.872070312 c 1,80,-1
 138.994140625 333.872070312 l 1,81,82
 147.591796875 339.603515625 147.591796875 339.603515625 159.055664062 339.603515625 c 0,83,84
 169.802734375 339.603515625 169.802734375 339.603515625 179.116210938 333.872070312 c 1,85,-1
 179.116210938 333.872070312 l 1,86,87
 180.549804688 334.588867188 180.549804688 334.588867188 181.981445312 336.021484375 c 1,88,-1
 181.981445312 336.021484375 l 1,89,90
 176.25 338.88671875 176.25 338.88671875 170.517578125 344.619140625 c 0,91,92
 159.055664062 358.232421875 159.055664062 358.232421875 159.055664062 376.860351562 c 256,93,94
 159.055664062 395.48828125 159.055664062 395.48828125 170.517578125 409.1015625 c 0,95,96
 175.533203125 414.83203125 175.533203125 414.83203125 181.981445312 418.415039062 c 1,97,-1
 181.981445312 418.415039062 l 1,98,99
 176.25 421.280273438 176.25 421.280273438 170.517578125 427.729492188 c 0,100,101
 159.055664062 441.341796875 159.055664062 441.341796875 159.055664062 459.970703125 c 256,102,103
 159.055664062 478.59765625 159.055664062 478.59765625 170.517578125 492.2109375 c 256,104,105
 181.981445312 505.82421875 181.981445312 505.82421875 198.4609375 505.82421875 c 256,106,107
 214.939453125 505.82421875 214.939453125 505.82421875 227.119140625 492.2109375 c 0,108,109
 238.58203125 478.59765625 238.58203125 478.59765625 238.58203125 459.970703125 c 256,110,111
 238.58203125 441.341796875 238.58203125 441.341796875 227.119140625 427.729492188 c 0,112,113
 222.103515625 421.997070312 222.103515625 421.997070312 215.65625 418.415039062 c 1,114,-1
 215.65625 418.415039062 l 1,115,116
 221.38671875 414.83203125 221.38671875 414.83203125 227.119140625 409.1015625 c 0,117,118
 238.58203125 395.48828125 238.58203125 395.48828125 238.58203125 376.860351562 c 256,119,120
 238.58203125 358.232421875 238.58203125 358.232421875 227.119140625 344.619140625 c 0,121,122
 222.103515625 338.88671875 222.103515625 338.88671875 215.65625 336.021484375 c 1,123,-1
 215.65625 336.021484375 l 1,124,125
 217.087890625 335.3046875 217.087890625 335.3046875 218.521484375 333.872070312 c 1,126,-1
 218.521484375 333.872070312 l 1,127,128
 227.834960938 339.603515625 227.834960938 339.603515625 238.58203125 339.603515625 c 0,129,130
 250.045898438 339.603515625 250.045898438 339.603515625 258.643554688 333.872070312 c 1,131,-1
 258.643554688 333.872070312 l 1,132,133
 267.240234375 339.603515625 267.240234375 339.603515625 278.704101562 339.603515625 c 0,134,135
 289.451171875 339.603515625 289.451171875 339.603515625 298.765625 333.872070312 c 1,136,-1
 298.765625 333.872070312 l 1,137,138
 307.36328125 339.603515625 307.36328125 339.603515625 318.109375 339.603515625 c 0,139,140
 328.856445312 339.603515625 328.856445312 339.603515625 338.171875 333.872070312 c 1,141,-1
 338.171875 333.872070312 l 1,142,143
 346.768554688 339.603515625 346.768554688 339.603515625 358.232421875 339.603515625 c 0,144,145
 374.709960938 339.603515625 374.709960938 339.603515625 386.173828125 326.708007812 c 256,146,147
 397.637695312 313.094726562 397.637695312 313.094726562 397.637695312 294.466796875 c 256,148,149
 397.637695312 275.838867188 397.637695312 275.838867188 386.173828125 262.225585938 c 256,150,151
 374.709960938 248.61328125 374.709960938 248.61328125 358.232421875 248.61328125 c 0,152,153
 346.768554688 248.61328125 346.768554688 248.61328125 338.171875 254.344726562 c 1,154,155
 328.856445312 248.61328125 328.856445312 248.61328125 318.109375 248.61328125 c 0,156,157
 306.646484375 248.61328125 306.646484375 248.61328125 298.765625 254.344726562 c 1,158,-1
 298.765625 254.344726562 l 1,159,160
 289.451171875 248.61328125 289.451171875 248.61328125 278.704101562 248.61328125 c 0,161,162
 267.240234375 248.61328125 267.240234375 248.61328125 258.643554688 254.344726562 c 1,163,-1
 258.643554688 254.344726562 l 1,164,165
 250.045898438 248.61328125 250.045898438 248.61328125 238.58203125 248.61328125 c 0,166,167
 227.834960938 248.61328125 227.834960938 248.61328125 218.521484375 254.344726562 c 1,168,-1
 218.521484375 254.344726562 l 1,169,170
 217.087890625 253.627929688 217.087890625 253.627929688 215.65625 252.911132812 c 1,171,-1
 215.65625 252.911132812 l 1,172,173
 221.38671875 250.045898438 221.38671875 250.045898438 227.119140625 243.59765625 c 0,174,175
 238.58203125 229.985351562 238.58203125 229.985351562 238.58203125 211.356445312 c 256,176,177
 238.58203125 192.728515625 238.58203125 192.728515625 227.119140625 179.116210938 c 0,178,179
 222.103515625 173.384765625 222.103515625 173.384765625 215.65625 169.802734375 c 1,180,-1
 215.65625 169.802734375 l 1,181,182
 221.38671875 166.935546875 221.38671875 166.935546875 227.119140625 160.487304688 c 0,183,184
 238.58203125 146.875 238.58203125 146.875 238.58203125 128.247070312 c 256,185,186
 238.58203125 109.618164062 238.58203125 109.618164062 227.119140625 96.005859375 c 0,187,188
 214.939453125 82.3935546875 214.939453125 82.3935546875 198.4609375 83.1103515625 c 1,189,-1
 198.4609375 83.1103515625 l 1,24,25
EndSplineSet
EndChar

StartChar: comma
Encoding: 44 44 12
Width: 218
VWidth: 715
Flags: W
LayerCount: 2
Fore
SplineSet
39.4052734375 -83.1103515625 m 1,0,1
 22.927734375 -83.1103515625 22.927734375 -83.1103515625 11.4638671875 -69.4970703125 c 0,2,3
 0 -55.8837890625 0 -55.8837890625 0 -37.2568359375 c 256,4,5
 0 -18.6279296875 0 -18.6279296875 11.4638671875 -5.015625 c 0,6,7
 22.927734375 7.880859375 22.927734375 7.880859375 39.4052734375 7.880859375 c 256,8,9
 55.8837890625 7.880859375 55.8837890625 7.880859375 68.064453125 -5.015625 c 0,10,11
 79.52734375 -18.6279296875 79.52734375 -18.6279296875 79.52734375 -37.2568359375 c 256,12,13
 79.52734375 -55.8837890625 79.52734375 -55.8837890625 68.064453125 -69.4970703125 c 0,14,15
 55.8837890625 -83.1103515625 55.8837890625 -83.1103515625 39.4052734375 -83.1103515625 c 1,16,-1
 39.4052734375 -83.1103515625 l 1,0,1
59.4658203125 88.841796875 m 1,17,18
 59.4658203125 88.841796875 l 1,19,-1
 59.4658203125 88.841796875 l 1,20,21
 59.4658203125 88.841796875 l 1,22,-1
 59.4658203125 88.841796875 l 1,17,18
79.52734375 0 m 1,23,24
 63.048828125 0 63.048828125 0 51.5859375 13.6123046875 c 0,25,26
 39.4052734375 27.2255859375 39.4052734375 27.2255859375 39.4052734375 45.13671875 c 256,27,28
 39.4052734375 63.7646484375 39.4052734375 63.7646484375 51.5859375 77.3779296875 c 0,29,30
 56.6005859375 83.1103515625 56.6005859375 83.1103515625 62.3330078125 86.6923828125 c 1,31,-1
 62.3330078125 86.6923828125 l 1,32,33
 60.8994140625 87.4091796875 60.8994140625 87.4091796875 59.4658203125 88.841796875 c 1,34,-1
 59.4658203125 88.841796875 l 1,35,36
 50.869140625 83.1103515625 50.869140625 83.1103515625 39.4052734375 83.1103515625 c 0,37,38
 22.927734375 83.1103515625 22.927734375 83.1103515625 11.4638671875 96.005859375 c 256,39,40
 0 109.618164062 0 109.618164062 0 128.247070312 c 256,41,42
 0 146.875 0 146.875 11.4638671875 160.487304688 c 256,43,44
 22.927734375 174.100585938 22.927734375 174.100585938 39.4052734375 174.100585938 c 0,45,46
 50.869140625 174.100585938 50.869140625 174.100585938 59.4658203125 167.65234375 c 1,47,-1
 59.4658203125 167.65234375 l 1,48,49
 60.8994140625 168.369140625 60.8994140625 168.369140625 62.3330078125 169.802734375 c 1,50,-1
 62.3330078125 169.802734375 l 1,51,52
 55.8837890625 173.384765625 55.8837890625 173.384765625 51.5859375 179.116210938 c 0,53,54
 39.4052734375 192.728515625 39.4052734375 192.728515625 39.4052734375 211.356445312 c 256,55,56
 39.4052734375 229.985351562 39.4052734375 229.985351562 51.5859375 243.59765625 c 0,57,58
 63.048828125 257.209960938 63.048828125 257.209960938 79.52734375 256.494140625 c 256,59,60
 96.005859375 256.494140625 96.005859375 256.494140625 107.469726562 243.59765625 c 0,61,62
 118.93359375 229.985351562 118.93359375 229.985351562 119.649414062 211.356445312 c 256,63,64
 119.649414062 192.728515625 119.649414062 192.728515625 107.469726562 179.116210938 c 0,65,66
 102.454101562 173.384765625 102.454101562 173.384765625 96.005859375 169.802734375 c 1,67,-1
 96.005859375 169.802734375 l 1,68,69
 97.439453125 169.0859375 97.439453125 169.0859375 99.587890625 167.65234375 c 1,70,-1
 99.587890625 167.65234375 l 1,71,72
 108.186523438 173.384765625 108.186523438 173.384765625 119.649414062 174.100585938 c 0,73,74
 136.127929688 174.100585938 136.127929688 174.100585938 147.591796875 160.487304688 c 0,75,76
 159.771484375 146.875 159.771484375 146.875 159.055664062 128.247070312 c 256,77,78
 159.055664062 109.618164062 159.055664062 109.618164062 147.591796875 96.005859375 c 0,79,80
 136.127929688 82.3935546875 136.127929688 82.3935546875 119.649414062 83.1103515625 c 0,81,82
 108.186523438 83.1103515625 108.186523438 83.1103515625 99.587890625 88.841796875 c 1,83,-1
 99.587890625 88.841796875 l 1,84,85
 98.15625 88.125 98.15625 88.125 96.005859375 86.6923828125 c 1,86,-1
 96.005859375 86.6923828125 l 1,87,88
 102.454101562 83.8271484375 102.454101562 83.8271484375 107.469726562 77.3779296875 c 0,89,90
 118.93359375 63.7646484375 118.93359375 63.7646484375 119.649414062 45.13671875 c 256,91,92
 119.649414062 26.509765625 119.649414062 26.509765625 107.469726562 13.6123046875 c 0,93,94
 95.2890625 0 95.2890625 0 79.52734375 0 c 1,95,-1
 79.52734375 0 l 1,23,24
EndSplineSet
EndChar

StartChar: hyphen
Encoding: 45 45 13
Width: 456
VWidth: 715
Flags: W
LayerCount: 2
Fore
SplineSet
59.4658203125 254.344726562 m 1,0,1
 59.4658203125 254.344726562 l 1,2,-1
 59.4658203125 254.344726562 l 1,3,4
 59.4658203125 254.344726562 l 1,5,-1
 59.4658203125 254.344726562 l 1,0,1
138.994140625 254.344726562 m 1,6,7
 138.994140625 254.344726562 l 1,8,-1
 138.994140625 254.344726562 l 1,9,10
 138.994140625 254.344726562 l 1,11,-1
 138.994140625 254.344726562 l 1,6,7
218.521484375 254.344726562 m 1,12,13
 218.521484375 254.344726562 l 1,14,-1
 218.521484375 254.344726562 l 1,15,16
 218.521484375 254.344726562 l 1,17,-1
 218.521484375 254.344726562 l 1,12,13
298.765625 254.344726562 m 1,18,19
 298.765625 254.344726562 l 1,20,-1
 298.765625 254.344726562 l 1,21,22
 298.765625 254.344726562 l 1,23,-1
 298.765625 254.344726562 l 1,18,19
39.4052734375 248.61328125 m 1,24,25
 22.927734375 248.61328125 22.927734375 248.61328125 11.4638671875 262.225585938 c 256,26,27
 0 275.838867188 0 275.838867188 0 294.466796875 c 256,28,29
 0 313.094726562 0 313.094726562 11.4638671875 326.708007812 c 256,30,31
 22.927734375 340.3203125 22.927734375 340.3203125 39.4052734375 339.603515625 c 0,32,33
 50.869140625 339.603515625 50.869140625 339.603515625 59.4658203125 333.872070312 c 1,34,-1
 59.4658203125 333.872070312 l 1,35,36
 68.7802734375 339.603515625 68.7802734375 339.603515625 79.52734375 339.603515625 c 0,37,38
 90.9912109375 339.603515625 90.9912109375 339.603515625 99.587890625 333.872070312 c 1,39,-1
 99.587890625 333.872070312 l 1,40,41
 108.186523438 339.603515625 108.186523438 339.603515625 119.649414062 339.603515625 c 0,42,43
 130.396484375 339.603515625 130.396484375 339.603515625 138.994140625 333.872070312 c 1,44,-1
 138.994140625 333.872070312 l 1,45,46
 147.591796875 339.603515625 147.591796875 339.603515625 159.055664062 339.603515625 c 0,47,48
 169.802734375 339.603515625 169.802734375 339.603515625 179.116210938 333.872070312 c 1,49,-1
 179.116210938 333.872070312 l 1,50,51
 187.713867188 339.603515625 187.713867188 339.603515625 198.4609375 339.603515625 c 0,52,53
 209.923828125 339.603515625 209.923828125 339.603515625 218.521484375 333.872070312 c 1,54,-1
 218.521484375 333.872070312 l 1,55,56
 227.834960938 339.603515625 227.834960938 339.603515625 238.58203125 339.603515625 c 0,57,58
 250.045898438 339.603515625 250.045898438 339.603515625 258.643554688 333.872070312 c 1,59,-1
 258.643554688 333.872070312 l 1,60,61
 267.240234375 339.603515625 267.240234375 339.603515625 278.704101562 339.603515625 c 0,62,63
 289.451171875 339.603515625 289.451171875 339.603515625 298.765625 333.872070312 c 1,64,-1
 298.765625 333.872070312 l 1,65,66
 307.36328125 339.603515625 307.36328125 339.603515625 318.109375 339.603515625 c 0,67,68
 328.856445312 339.603515625 328.856445312 339.603515625 338.171875 333.872070312 c 1,69,-1
 338.171875 333.872070312 l 1,70,71
 346.768554688 339.603515625 346.768554688 339.603515625 358.232421875 339.603515625 c 0,72,73
 374.709960938 339.603515625 374.709960938 339.603515625 386.173828125 326.708007812 c 256,74,75
 397.637695312 313.094726562 397.637695312 313.094726562 397.637695312 294.466796875 c 256,76,77
 397.637695312 275.838867188 397.637695312 275.838867188 386.173828125 262.225585938 c 256,78,79
 374.709960938 248.61328125 374.709960938 248.61328125 358.232421875 248.61328125 c 0,80,81
 346.768554688 248.61328125 346.768554688 248.61328125 338.171875 254.344726562 c 1,82,83
 328.856445312 248.61328125 328.856445312 248.61328125 318.109375 248.61328125 c 0,84,85
 306.646484375 248.61328125 306.646484375 248.61328125 298.765625 254.344726562 c 1,86,-1
 298.765625 254.344726562 l 1,87,88
 289.451171875 248.61328125 289.451171875 248.61328125 278.704101562 248.61328125 c 0,89,90
 267.240234375 248.61328125 267.240234375 248.61328125 258.643554688 254.344726562 c 1,91,92
 250.045898438 248.61328125 250.045898438 248.61328125 238.58203125 248.61328125 c 0,93,94
 227.834960938 248.61328125 227.834960938 248.61328125 218.521484375 254.344726562 c 1,95,-1
 218.521484375 254.344726562 l 1,96,97
 209.923828125 248.61328125 209.923828125 248.61328125 198.4609375 248.61328125 c 0,98,99
 187.713867188 248.61328125 187.713867188 248.61328125 179.116210938 254.344726562 c 1,100,101
 169.802734375 248.61328125 169.802734375 248.61328125 159.055664062 248.61328125 c 0,102,103
 147.591796875 248.61328125 147.591796875 248.61328125 138.994140625 254.344726562 c 1,104,-1
 138.994140625 254.344726562 l 1,105,106
 129.680664062 248.61328125 129.680664062 248.61328125 119.649414062 248.61328125 c 0,107,108
 108.186523438 248.61328125 108.186523438 248.61328125 99.587890625 254.344726562 c 1,109,-1
 99.587890625 254.344726562 l 1,110,111
 90.9912109375 248.61328125 90.9912109375 248.61328125 79.52734375 248.61328125 c 0,112,113
 68.7802734375 248.61328125 68.7802734375 248.61328125 59.4658203125 254.344726562 c 1,114,-1
 59.4658203125 254.344726562 l 1,115,116
 50.869140625 248.61328125 50.869140625 248.61328125 39.4052734375 248.61328125 c 1,117,-1
 39.4052734375 248.61328125 l 1,24,25
EndSplineSet
EndChar

StartChar: period
Encoding: 46 46 14
Width: 218
VWidth: 715
Flags: W
LayerCount: 2
Fore
SplineSet
59.4658203125 88.841796875 m 1,0,1
 59.4658203125 88.841796875 l 1,2,-1
 59.4658203125 88.841796875 l 1,3,4
 59.4658203125 88.841796875 l 1,5,-1
 59.4658203125 88.841796875 l 1,0,1
99.587890625 88.841796875 m 1,6,7
 99.587890625 88.841796875 l 1,8,-1
 99.587890625 88.841796875 l 1,9,10
 99.587890625 88.841796875 l 1,11,-1
 99.587890625 88.841796875 l 1,6,7
79.52734375 0 m 1,12,13
 63.048828125 0 63.048828125 0 51.5859375 13.6123046875 c 0,14,15
 39.4052734375 27.2255859375 39.4052734375 27.2255859375 39.4052734375 45.13671875 c 256,16,17
 39.4052734375 63.7646484375 39.4052734375 63.7646484375 51.5859375 77.3779296875 c 0,18,19
 56.6005859375 83.1103515625 56.6005859375 83.1103515625 62.3330078125 86.6923828125 c 1,20,-1
 62.3330078125 86.6923828125 l 1,21,22
 60.8994140625 87.4091796875 60.8994140625 87.4091796875 59.4658203125 88.841796875 c 1,23,-1
 59.4658203125 88.841796875 l 1,24,25
 50.869140625 83.1103515625 50.869140625 83.1103515625 39.4052734375 83.1103515625 c 0,26,27
 22.927734375 83.1103515625 22.927734375 83.1103515625 11.4638671875 96.005859375 c 256,28,29
 0 109.618164062 0 109.618164062 0 128.247070312 c 256,30,31
 0 146.875 0 146.875 11.4638671875 160.487304688 c 256,32,33
 22.927734375 174.100585938 22.927734375 174.100585938 39.4052734375 174.100585938 c 0,34,35
 50.869140625 174.100585938 50.869140625 174.100585938 59.4658203125 167.65234375 c 1,36,-1
 59.4658203125 167.65234375 l 1,37,38
 60.8994140625 168.369140625 60.8994140625 168.369140625 62.3330078125 169.802734375 c 1,39,-1
 62.3330078125 169.802734375 l 1,40,41
 55.8837890625 173.384765625 55.8837890625 173.384765625 51.5859375 179.116210938 c 0,42,43
 39.4052734375 192.728515625 39.4052734375 192.728515625 39.4052734375 211.356445312 c 256,44,45
 39.4052734375 229.985351562 39.4052734375 229.985351562 51.5859375 243.59765625 c 0,46,47
 63.048828125 257.209960938 63.048828125 257.209960938 79.52734375 256.494140625 c 256,48,49
 96.005859375 256.494140625 96.005859375 256.494140625 107.469726562 243.59765625 c 0,50,51
 118.93359375 229.985351562 118.93359375 229.985351562 119.649414062 211.356445312 c 256,52,53
 119.649414062 192.728515625 119.649414062 192.728515625 107.469726562 179.116210938 c 0,54,55
 102.454101562 173.384765625 102.454101562 173.384765625 96.005859375 169.802734375 c 1,56,-1
 96.005859375 169.802734375 l 1,57,58
 97.439453125 169.0859375 97.439453125 169.0859375 99.587890625 167.65234375 c 1,59,-1
 99.587890625 167.65234375 l 1,60,61
 108.186523438 173.384765625 108.186523438 173.384765625 119.649414062 174.100585938 c 0,62,63
 136.127929688 174.100585938 136.127929688 174.100585938 147.591796875 160.487304688 c 0,64,65
 159.771484375 146.875 159.771484375 146.875 159.055664062 128.247070312 c 256,66,67
 159.055664062 109.618164062 159.055664062 109.618164062 147.591796875 96.005859375 c 0,68,69
 136.127929688 82.3935546875 136.127929688 82.3935546875 119.649414062 83.1103515625 c 0,70,71
 108.186523438 83.1103515625 108.186523438 83.1103515625 99.587890625 88.841796875 c 1,72,-1
 99.587890625 88.841796875 l 1,73,74
 98.15625 88.125 98.15625 88.125 96.005859375 86.6923828125 c 1,75,-1
 96.005859375 86.6923828125 l 1,76,77
 102.454101562 83.8271484375 102.454101562 83.8271484375 107.469726562 77.3779296875 c 0,78,79
 118.93359375 63.7646484375 118.93359375 63.7646484375 119.649414062 45.13671875 c 256,80,81
 119.649414062 26.509765625 119.649414062 26.509765625 107.469726562 13.6123046875 c 0,82,83
 95.2890625 0 95.2890625 0 79.52734375 0 c 1,84,-1
 79.52734375 0 l 1,12,13
EndSplineSet
EndChar

StartChar: slash
Encoding: 47 47 15
Width: 456
VWidth: 715
Flags: W
LayerCount: 2
Fore
SplineSet
39.4052734375 0 m 1,0,1
 22.927734375 0 22.927734375 0 11.4638671875 13.6123046875 c 256,2,3
 0 27.2255859375 0 27.2255859375 0 45.13671875 c 256,4,5
 0 63.7646484375 0 63.7646484375 11.4638671875 77.3779296875 c 256,6,7
 22.927734375 90.9912109375 22.927734375 90.9912109375 39.4052734375 90.9912109375 c 256,8,9
 55.8837890625 90.9912109375 55.8837890625 90.9912109375 68.064453125 77.3779296875 c 0,10,11
 79.52734375 63.7646484375 79.52734375 63.7646484375 79.52734375 45.13671875 c 256,12,13
 79.52734375 26.509765625 79.52734375 26.509765625 68.064453125 13.6123046875 c 0,14,15
 55.8837890625 0 55.8837890625 0 39.4052734375 0 c 1,16,-1
 39.4052734375 0 l 1,0,1
119.649414062 83.1103515625 m 1,17,18
 103.170898438 83.1103515625 103.170898438 83.1103515625 90.9912109375 96.005859375 c 0,19,20
 79.52734375 109.618164062 79.52734375 109.618164062 79.52734375 128.247070312 c 256,21,22
 79.52734375 146.875 79.52734375 146.875 90.9912109375 160.487304688 c 0,23,24
 103.170898438 174.100585938 103.170898438 174.100585938 119.649414062 174.100585938 c 256,25,26
 136.127929688 174.100585938 136.127929688 174.100585938 147.591796875 160.487304688 c 0,27,28
 159.771484375 146.875 159.771484375 146.875 159.055664062 128.247070312 c 256,29,30
 159.055664062 109.618164062 159.055664062 109.618164062 147.591796875 96.005859375 c 0,31,32
 136.127929688 82.3935546875 136.127929688 82.3935546875 119.649414062 83.1103515625 c 1,33,-1
 119.649414062 83.1103515625 l 1,17,18
159.055664062 165.502929688 m 1,34,35
 142.576171875 165.502929688 142.576171875 165.502929688 131.112304688 179.116210938 c 0,36,37
 119.649414062 192.728515625 119.649414062 192.728515625 119.649414062 211.356445312 c 256,38,39
 119.649414062 229.985351562 119.649414062 229.985351562 131.112304688 243.59765625 c 0,40,41
 143.29296875 257.209960938 143.29296875 257.209960938 159.055664062 256.494140625 c 256,42,43
 175.533203125 256.494140625 175.533203125 256.494140625 186.997070312 243.59765625 c 256,44,45
 198.4609375 229.985351562 198.4609375 229.985351562 198.4609375 211.356445312 c 256,46,47
 198.4609375 192.728515625 198.4609375 192.728515625 186.997070312 179.116210938 c 256,48,49
 175.533203125 165.502929688 175.533203125 165.502929688 159.055664062 165.502929688 c 1,50,-1
 159.055664062 165.502929688 l 1,34,35
198.4609375 248.61328125 m 1,51,52
 181.981445312 248.61328125 181.981445312 248.61328125 170.517578125 262.225585938 c 256,53,54
 159.055664062 275.838867188 159.055664062 275.838867188 159.055664062 294.466796875 c 256,55,56
 159.055664062 313.094726562 159.055664062 313.094726562 170.517578125 326.708007812 c 256,57,58
 181.981445312 340.3203125 181.981445312 340.3203125 198.4609375 339.603515625 c 256,59,60
 214.939453125 339.603515625 214.939453125 339.603515625 227.119140625 326.708007812 c 0,61,62
 238.58203125 313.094726562 238.58203125 313.094726562 238.58203125 294.466796875 c 256,63,64
 238.58203125 275.838867188 238.58203125 275.838867188 227.119140625 262.225585938 c 0,65,66
 214.939453125 248.61328125 214.939453125 248.61328125 198.4609375 248.61328125 c 1,67,-1
 198.4609375 248.61328125 l 1,51,52
238.58203125 331.72265625 m 1,68,69
 222.103515625 331.72265625 222.103515625 331.72265625 210.640625 344.619140625 c 0,70,71
 198.4609375 358.232421875 198.4609375 358.232421875 198.4609375 376.860351562 c 256,72,73
 198.4609375 395.48828125 198.4609375 395.48828125 210.640625 409.1015625 c 0,74,75
 222.103515625 422.713867188 222.103515625 422.713867188 238.58203125 422.713867188 c 256,76,77
 255.061523438 422.713867188 255.061523438 422.713867188 267.240234375 409.1015625 c 0,78,79
 278.704101562 395.48828125 278.704101562 395.48828125 278.704101562 376.860351562 c 256,80,81
 278.704101562 358.232421875 278.704101562 358.232421875 267.240234375 344.619140625 c 0,82,83
 255.061523438 331.006835938 255.061523438 331.006835938 238.58203125 331.72265625 c 1,84,-1
 238.58203125 331.72265625 l 1,68,69
278.704101562 414.83203125 m 1,85,86
 262.225585938 414.83203125 262.225585938 414.83203125 250.045898438 427.729492188 c 0,87,88
 238.58203125 441.341796875 238.58203125 441.341796875 238.58203125 459.970703125 c 256,89,90
 238.58203125 478.59765625 238.58203125 478.59765625 250.045898438 492.2109375 c 0,91,92
 262.225585938 505.82421875 262.225585938 505.82421875 278.704101562 505.82421875 c 256,93,94
 295.18359375 505.82421875 295.18359375 505.82421875 306.646484375 492.2109375 c 0,95,96
 318.826171875 478.59765625 318.826171875 478.59765625 318.109375 459.970703125 c 256,97,98
 318.109375 441.341796875 318.109375 441.341796875 306.646484375 427.729492188 c 0,99,100
 295.18359375 414.116210938 295.18359375 414.116210938 278.704101562 414.83203125 c 1,101,-1
 278.704101562 414.83203125 l 1,85,86
358.232421875 497.225585938 m 1,102,103
 341.75390625 497.225585938 341.75390625 497.225585938 329.573242188 510.838867188 c 256,104,105
 318.109375 524.452148438 318.109375 524.452148438 318.109375 543.079101562 c 256,106,107
 318.109375 561.708007812 318.109375 561.708007812 329.573242188 575.3203125 c 256,108,109
 341.037109375 588.93359375 341.037109375 588.93359375 358.232421875 588.216796875 c 0,110,111
 374.709960938 588.216796875 374.709960938 588.216796875 386.173828125 575.3203125 c 256,112,113
 397.637695312 561.708007812 397.637695312 561.708007812 397.637695312 543.079101562 c 256,114,115
 397.637695312 524.452148438 397.637695312 524.452148438 386.173828125 510.838867188 c 256,116,117
 374.709960938 497.225585938 374.709960938 497.225585938 358.232421875 497.225585938 c 1,118,-1
 358.232421875 497.225585938 l 1,102,103
EndSplineSet
EndChar

StartChar: zero
Encoding: 48 48 16
Width: 456
VWidth: 715
Flags: W
LayerCount: 2
Fore
SplineSet
179.116210938 5.7314453125 m 1,0,1
 179.116210938 5.7314453125 l 1,2,-1
 179.116210938 5.7314453125 l 1,3,4
 179.116210938 5.7314453125 l 1,5,-1
 179.116210938 5.7314453125 l 1,0,1
159.055664062 0 m 1,6,7
 142.576171875 0 142.576171875 0 131.112304688 13.6123046875 c 0,8,9
 119.649414062 27.2255859375 119.649414062 27.2255859375 119.649414062 45.13671875 c 256,10,11
 119.649414062 63.7646484375 119.649414062 63.7646484375 131.112304688 77.3779296875 c 0,12,13
 143.29296875 90.9912109375 143.29296875 90.9912109375 159.055664062 90.9912109375 c 0,14,15
 169.802734375 90.9912109375 169.802734375 90.9912109375 179.116210938 85.2587890625 c 1,16,-1
 179.116210938 85.2587890625 l 1,17,18
 187.713867188 90.9912109375 187.713867188 90.9912109375 198.4609375 90.9912109375 c 0,19,20
 209.923828125 90.9912109375 209.923828125 90.9912109375 218.521484375 85.2587890625 c 1,21,-1
 218.521484375 85.2587890625 l 1,22,23
 227.834960938 90.9912109375 227.834960938 90.9912109375 238.58203125 90.9912109375 c 0,24,25
 255.061523438 90.9912109375 255.061523438 90.9912109375 267.240234375 77.3779296875 c 0,26,27
 278.704101562 63.7646484375 278.704101562 63.7646484375 278.704101562 45.13671875 c 256,28,29
 278.704101562 26.509765625 278.704101562 26.509765625 267.240234375 13.6123046875 c 0,30,31
 255.061523438 0 255.061523438 0 238.58203125 0 c 0,32,33
 227.834960938 0 227.834960938 0 218.521484375 5.7314453125 c 1,34,35
 209.923828125 0 209.923828125 0 198.4609375 0 c 0,36,37
 187.713867188 0 187.713867188 0 179.116210938 5.7314453125 c 1,38,39
 169.802734375 0 169.802734375 0 159.055664062 0 c 1,40,-1
 159.055664062 0 l 1,6,7
79.52734375 83.1103515625 m 1,41,42
 63.048828125 83.1103515625 63.048828125 83.1103515625 51.5859375 96.005859375 c 0,43,44
 39.4052734375 109.618164062 39.4052734375 109.618164062 39.4052734375 128.247070312 c 256,45,46
 39.4052734375 146.875 39.4052734375 146.875 51.5859375 160.487304688 c 0,47,48
 63.048828125 174.100585938 63.048828125 174.100585938 79.52734375 174.100585938 c 256,49,50
 96.005859375 174.100585938 96.005859375 174.100585938 107.469726562 160.487304688 c 0,51,52
 118.93359375 146.875 118.93359375 146.875 119.649414062 128.247070312 c 256,53,54
 119.649414062 109.618164062 119.649414062 109.618164062 107.469726562 96.005859375 c 0,55,56
 95.2890625 82.3935546875 95.2890625 82.3935546875 79.52734375 83.1103515625 c 1,57,-1
 79.52734375 83.1103515625 l 1,41,42
318.109375 83.1103515625 m 1,58,59
 301.631835938 83.1103515625 301.631835938 83.1103515625 290.16796875 96.005859375 c 0,60,61
 278.704101562 109.618164062 278.704101562 109.618164062 278.704101562 128.247070312 c 256,62,63
 278.704101562 146.875 278.704101562 146.875 290.16796875 160.487304688 c 0,64,65
 302.348632812 174.100585938 302.348632812 174.100585938 318.109375 174.100585938 c 256,66,67
 334.588867188 174.100585938 334.588867188 174.100585938 346.051757812 160.487304688 c 0,68,69
 358.232421875 146.875 358.232421875 146.875 358.232421875 128.247070312 c 256,70,71
 358.232421875 109.618164062 358.232421875 109.618164062 346.051757812 96.005859375 c 0,72,73
 334.588867188 82.3935546875 334.588867188 82.3935546875 318.109375 83.1103515625 c 1,74,-1
 318.109375 83.1103515625 l 1,58,59
39.4052734375 165.502929688 m 1,75,76
 22.927734375 165.502929688 22.927734375 165.502929688 11.4638671875 179.116210938 c 256,77,78
 0 192.728515625 0 192.728515625 0 211.356445312 c 256,79,80
 0 229.985351562 0 229.985351562 11.4638671875 243.59765625 c 0,81,82
 16.478515625 249.329101562 16.478515625 249.329101562 22.927734375 252.911132812 c 1,83,-1
 22.927734375 252.911132812 l 1,84,85
 17.1953125 256.494140625 17.1953125 256.494140625 11.4638671875 262.225585938 c 0,86,87
 0 275.838867188 0 275.838867188 0 294.466796875 c 256,88,89
 0 313.094726562 0 313.094726562 11.4638671875 326.708007812 c 0,90,91
 16.478515625 332.439453125 16.478515625 332.439453125 22.927734375 336.021484375 c 1,92,-1
 22.927734375 336.021484375 l 1,93,94
 17.1953125 338.88671875 17.1953125 338.88671875 11.4638671875 344.619140625 c 0,95,96
 0 358.232421875 0 358.232421875 0 376.860351562 c 256,97,98
 0 395.48828125 0 395.48828125 11.4638671875 409.1015625 c 256,99,100
 22.927734375 422.713867188 22.927734375 422.713867188 39.4052734375 422.713867188 c 256,101,102
 55.8837890625 422.713867188 55.8837890625 422.713867188 68.064453125 409.1015625 c 0,103,104
 79.52734375 395.48828125 79.52734375 395.48828125 79.52734375 376.860351562 c 256,105,106
 79.52734375 358.232421875 79.52734375 358.232421875 68.064453125 344.619140625 c 0,107,108
 63.048828125 338.88671875 63.048828125 338.88671875 56.6005859375 336.021484375 c 1,109,-1
 56.6005859375 336.021484375 l 1,110,111
 62.3330078125 332.439453125 62.3330078125 332.439453125 68.064453125 326.708007812 c 0,112,113
 79.52734375 313.094726562 79.52734375 313.094726562 79.52734375 294.466796875 c 256,114,115
 79.52734375 275.838867188 79.52734375 275.838867188 68.064453125 262.225585938 c 0,116,117
 63.048828125 256.494140625 63.048828125 256.494140625 56.6005859375 252.911132812 c 1,118,-1
 56.6005859375 252.911132812 l 1,119,120
 62.3330078125 250.045898438 62.3330078125 250.045898438 68.064453125 243.59765625 c 0,121,122
 79.52734375 229.985351562 79.52734375 229.985351562 79.52734375 211.356445312 c 256,123,124
 79.52734375 192.728515625 79.52734375 192.728515625 68.064453125 179.116210938 c 0,125,126
 55.8837890625 165.502929688 55.8837890625 165.502929688 39.4052734375 165.502929688 c 1,127,-1
 39.4052734375 165.502929688 l 1,75,76
358.232421875 165.502929688 m 1,128,129
 341.75390625 165.502929688 341.75390625 165.502929688 329.573242188 179.116210938 c 256,130,131
 318.109375 192.728515625 318.109375 192.728515625 318.109375 211.356445312 c 256,132,133
 318.109375 229.985351562 318.109375 229.985351562 329.573242188 243.59765625 c 0,134,135
 334.588867188 249.329101562 334.588867188 249.329101562 341.037109375 252.911132812 c 1,136,-1
 341.037109375 252.911132812 l 1,137,138
 335.3046875 256.494140625 335.3046875 256.494140625 329.573242188 262.225585938 c 0,139,140
 318.109375 275.838867188 318.109375 275.838867188 318.109375 294.466796875 c 256,141,142
 318.109375 313.094726562 318.109375 313.094726562 329.573242188 326.708007812 c 0,143,144
 334.588867188 332.439453125 334.588867188 332.439453125 341.037109375 336.021484375 c 1,145,-1
 341.037109375 336.021484375 l 1,146,147
 335.3046875 338.88671875 335.3046875 338.88671875 329.573242188 344.619140625 c 0,148,149
 318.109375 358.232421875 318.109375 358.232421875 318.109375 376.860351562 c 256,150,151
 318.109375 395.48828125 318.109375 395.48828125 329.573242188 409.1015625 c 256,152,153
 341.037109375 422.713867188 341.037109375 422.713867188 358.232421875 422.713867188 c 0,154,155
 374.709960938 422.713867188 374.709960938 422.713867188 386.173828125 409.1015625 c 256,156,157
 397.637695312 395.48828125 397.637695312 395.48828125 397.637695312 376.860351562 c 256,158,159
 397.637695312 358.232421875 397.637695312 358.232421875 386.173828125 344.619140625 c 0,160,161
 381.159179688 338.88671875 381.159179688 338.88671875 374.709960938 336.021484375 c 1,162,-1
 374.709960938 336.021484375 l 1,163,164
 380.442382812 332.439453125 380.442382812 332.439453125 386.173828125 326.708007812 c 0,165,166
 397.637695312 313.094726562 397.637695312 313.094726562 397.637695312 294.466796875 c 256,167,168
 397.637695312 275.838867188 397.637695312 275.838867188 386.173828125 262.225585938 c 0,169,170
 381.159179688 256.494140625 381.159179688 256.494140625 374.709960938 252.911132812 c 1,171,-1
 374.709960938 252.911132812 l 1,172,173
 380.442382812 250.045898438 380.442382812 250.045898438 386.173828125 243.59765625 c 0,174,175
 397.637695312 229.985351562 397.637695312 229.985351562 397.637695312 211.356445312 c 256,176,177
 397.637695312 192.728515625 397.637695312 192.728515625 386.173828125 179.116210938 c 256,178,179
 374.709960938 165.502929688 374.709960938 165.502929688 358.232421875 165.502929688 c 1,180,-1
 358.232421875 165.502929688 l 1,128,129
179.116210938 503.673828125 m 1,181,182
 179.116210938 503.673828125 l 1,183,-1
 179.116210938 503.673828125 l 1,184,185
 179.116210938 503.673828125 l 1,186,-1
 179.116210938 503.673828125 l 1,181,182
218.521484375 503.673828125 m 1,187,188
 218.521484375 503.673828125 l 1,189,-1
 218.521484375 503.673828125 l 1,190,191
 218.521484375 503.673828125 l 1,192,-1
 218.521484375 503.673828125 l 1,187,188
79.52734375 414.83203125 m 1,193,194
 63.048828125 414.83203125 63.048828125 414.83203125 51.5859375 427.729492188 c 0,195,196
 39.4052734375 441.341796875 39.4052734375 441.341796875 39.4052734375 459.970703125 c 256,197,198
 39.4052734375 478.59765625 39.4052734375 478.59765625 51.5859375 492.2109375 c 0,199,200
 63.048828125 505.82421875 63.048828125 505.82421875 79.52734375 505.82421875 c 256,201,202
 96.005859375 505.82421875 96.005859375 505.82421875 107.469726562 492.2109375 c 0,203,204
 118.93359375 478.59765625 118.93359375 478.59765625 119.649414062 459.970703125 c 256,205,206
 119.649414062 441.341796875 119.649414062 441.341796875 107.469726562 427.729492188 c 0,207,208
 95.2890625 414.116210938 95.2890625 414.116210938 79.52734375 414.83203125 c 1,209,-1
 79.52734375 414.83203125 l 1,193,194
318.109375 414.83203125 m 1,210,211
 301.631835938 414.83203125 301.631835938 414.83203125 290.16796875 427.729492188 c 0,212,213
 278.704101562 441.341796875 278.704101562 441.341796875 278.704101562 459.970703125 c 256,214,215
 278.704101562 478.59765625 278.704101562 478.59765625 290.16796875 492.2109375 c 0,216,217
 302.348632812 505.82421875 302.348632812 505.82421875 318.109375 505.82421875 c 256,218,219
 334.588867188 505.82421875 334.588867188 505.82421875 346.051757812 492.2109375 c 0,220,221
 358.232421875 478.59765625 358.232421875 478.59765625 358.232421875 459.970703125 c 256,222,223
 358.232421875 441.341796875 358.232421875 441.341796875 346.051757812 427.729492188 c 0,224,225
 334.588867188 414.116210938 334.588867188 414.116210938 318.109375 414.83203125 c 1,226,-1
 318.109375 414.83203125 l 1,210,211
159.055664062 497.225585938 m 1,227,228
 142.576171875 497.225585938 142.576171875 497.225585938 131.112304688 510.838867188 c 0,229,230
 119.649414062 524.452148438 119.649414062 524.452148438 119.649414062 543.079101562 c 256,231,232
 119.649414062 561.708007812 119.649414062 561.708007812 131.112304688 575.3203125 c 0,233,234
 143.29296875 588.93359375 143.29296875 588.93359375 159.055664062 588.216796875 c 0,235,236
 169.802734375 588.216796875 169.802734375 588.216796875 179.116210938 582.484375 c 1,237,-1
 179.116210938 582.484375 l 1,238,239
 187.713867188 588.216796875 187.713867188 588.216796875 198.4609375 588.216796875 c 0,240,241
 209.923828125 588.216796875 209.923828125 588.216796875 218.521484375 582.484375 c 1,242,-1
 218.521484375 582.484375 l 1,243,244
 227.834960938 588.216796875 227.834960938 588.216796875 238.58203125 588.216796875 c 0,245,246
 255.061523438 588.216796875 255.061523438 588.216796875 267.240234375 575.3203125 c 0,247,248
 278.704101562 561.708007812 278.704101562 561.708007812 278.704101562 543.079101562 c 256,249,250
 278.704101562 524.452148438 278.704101562 524.452148438 267.240234375 510.838867188 c 0,251,252
 255.061523438 497.225585938 255.061523438 497.225585938 238.58203125 497.225585938 c 0,253,254
 227.834960938 497.225585938 227.834960938 497.225585938 218.521484375 503.673828125 c 1,255,256
 209.923828125 497.942382812 209.923828125 497.942382812 198.4609375 497.225585938 c 0,257,258
 187.713867188 497.225585938 187.713867188 497.225585938 179.116210938 503.673828125 c 1,259,260
 169.802734375 497.942382812 169.802734375 497.942382812 159.055664062 497.225585938 c 1,261,-1
 159.055664062 497.225585938 l 1,227,228
EndSplineSet
EndChar

StartChar: one
Encoding: 49 49 17
Width: 297
VWidth: 715
Flags: W
LayerCount: 2
Fore
SplineSet
138.994140625 5.7314453125 m 1,0,1
 138.994140625 5.7314453125 l 1,2,-1
 138.994140625 5.7314453125 l 1,3,4
 138.994140625 5.7314453125 l 1,5,-1
 138.994140625 5.7314453125 l 1,0,1
119.649414062 0 m 1,6,7
 103.170898438 0 103.170898438 0 90.9912109375 13.6123046875 c 0,8,9
 79.52734375 27.2255859375 79.52734375 27.2255859375 79.52734375 45.13671875 c 256,10,11
 79.52734375 63.7646484375 79.52734375 63.7646484375 90.9912109375 77.3779296875 c 0,12,13
 103.170898438 90.9912109375 103.170898438 90.9912109375 119.649414062 90.9912109375 c 0,14,15
 130.396484375 90.9912109375 130.396484375 90.9912109375 138.994140625 85.2587890625 c 1,16,-1
 138.994140625 85.2587890625 l 1,17,18
 140.426757812 85.9755859375 140.426757812 85.9755859375 141.859375 86.6923828125 c 1,19,-1
 141.859375 86.6923828125 l 1,20,21
 136.127929688 90.2744140625 136.127929688 90.2744140625 131.112304688 96.005859375 c 0,22,23
 119.649414062 109.618164062 119.649414062 109.618164062 119.649414062 128.247070312 c 256,24,25
 119.649414062 146.875 119.649414062 146.875 131.112304688 160.487304688 c 0,26,27
 136.127929688 166.219726562 136.127929688 166.219726562 141.859375 169.802734375 c 1,28,-1
 141.859375 169.802734375 l 1,29,30
 136.127929688 173.384765625 136.127929688 173.384765625 131.112304688 179.116210938 c 0,31,32
 119.649414062 192.728515625 119.649414062 192.728515625 119.649414062 211.356445312 c 256,33,34
 119.649414062 229.985351562 119.649414062 229.985351562 131.112304688 243.59765625 c 0,35,36
 136.127929688 249.329101562 136.127929688 249.329101562 141.859375 252.911132812 c 1,37,-1
 141.859375 252.911132812 l 1,38,39
 136.127929688 256.494140625 136.127929688 256.494140625 131.112304688 262.225585938 c 0,40,41
 119.649414062 275.838867188 119.649414062 275.838867188 119.649414062 294.466796875 c 256,42,43
 119.649414062 313.094726562 119.649414062 313.094726562 131.112304688 326.708007812 c 0,44,45
 136.127929688 332.439453125 136.127929688 332.439453125 141.859375 336.021484375 c 1,46,-1
 141.859375 336.021484375 l 1,47,48
 136.127929688 338.88671875 136.127929688 338.88671875 131.112304688 344.619140625 c 0,49,50
 119.649414062 358.232421875 119.649414062 358.232421875 119.649414062 376.860351562 c 256,51,52
 119.649414062 395.48828125 119.649414062 395.48828125 131.112304688 409.1015625 c 0,53,54
 136.127929688 414.83203125 136.127929688 414.83203125 141.859375 418.415039062 c 1,55,-1
 141.859375 418.415039062 l 1,56,57
 140.426757812 419.131835938 140.426757812 419.131835938 138.994140625 420.564453125 c 1,58,-1
 138.994140625 420.564453125 l 1,59,60
 129.680664062 414.83203125 129.680664062 414.83203125 119.649414062 414.83203125 c 0,61,62
 103.170898438 414.83203125 103.170898438 414.83203125 90.9912109375 427.729492188 c 0,63,64
 79.52734375 441.341796875 79.52734375 441.341796875 79.52734375 459.970703125 c 256,65,66
 79.52734375 478.59765625 79.52734375 478.59765625 90.9912109375 492.2109375 c 0,67,68
 103.170898438 505.82421875 103.170898438 505.82421875 119.649414062 505.82421875 c 0,69,70
 130.396484375 505.82421875 130.396484375 505.82421875 138.994140625 499.375976562 c 1,71,-1
 138.994140625 499.375976562 l 1,72,73
 140.426757812 500.091796875 140.426757812 500.091796875 141.859375 501.524414062 c 1,74,-1
 141.859375 501.524414062 l 1,75,76
 136.127929688 504.390625 136.127929688 504.390625 131.112304688 510.838867188 c 0,77,78
 119.649414062 524.452148438 119.649414062 524.452148438 119.649414062 543.079101562 c 256,79,80
 119.649414062 561.708007812 119.649414062 561.708007812 131.112304688 575.3203125 c 0,81,82
 143.29296875 588.93359375 143.29296875 588.93359375 159.055664062 588.216796875 c 256,83,84
 175.533203125 588.216796875 175.533203125 588.216796875 186.997070312 575.3203125 c 256,85,86
 198.4609375 561.708007812 198.4609375 561.708007812 198.4609375 543.079101562 c 256,87,88
 198.4609375 524.452148438 198.4609375 524.452148438 186.997070312 510.838867188 c 0,89,90
 181.981445312 505.107421875 181.981445312 505.107421875 176.25 501.524414062 c 1,91,-1
 176.25 501.524414062 l 1,92,93
 181.981445312 497.942382812 181.981445312 497.942382812 186.997070312 492.2109375 c 0,94,95
 198.4609375 478.59765625 198.4609375 478.59765625 198.4609375 459.970703125 c 256,96,97
 198.4609375 441.341796875 198.4609375 441.341796875 186.997070312 427.729492188 c 0,98,99
 181.981445312 421.997070312 181.981445312 421.997070312 176.25 418.415039062 c 1,100,-1
 176.25 418.415039062 l 1,101,102
 181.981445312 414.83203125 181.981445312 414.83203125 186.997070312 409.1015625 c 0,103,104
 198.4609375 395.48828125 198.4609375 395.48828125 198.4609375 376.860351562 c 256,105,106
 198.4609375 358.232421875 198.4609375 358.232421875 186.997070312 344.619140625 c 0,107,108
 181.981445312 338.88671875 181.981445312 338.88671875 176.25 336.021484375 c 1,109,-1
 176.25 336.021484375 l 1,110,111
 181.981445312 332.439453125 181.981445312 332.439453125 186.997070312 326.708007812 c 0,112,113
 198.4609375 313.094726562 198.4609375 313.094726562 198.4609375 294.466796875 c 256,114,115
 198.4609375 275.838867188 198.4609375 275.838867188 186.997070312 262.225585938 c 0,116,117
 181.981445312 256.494140625 181.981445312 256.494140625 176.25 252.911132812 c 1,118,-1
 176.25 252.911132812 l 1,119,120
 181.981445312 250.045898438 181.981445312 250.045898438 186.997070312 243.59765625 c 0,121,122
 198.4609375 229.985351562 198.4609375 229.985351562 198.4609375 211.356445312 c 256,123,124
 198.4609375 192.728515625 198.4609375 192.728515625 186.997070312 179.116210938 c 0,125,126
 181.981445312 173.384765625 181.981445312 173.384765625 176.25 169.802734375 c 1,127,-1
 176.25 169.802734375 l 1,128,129
 181.981445312 166.935546875 181.981445312 166.935546875 186.997070312 160.487304688 c 0,130,131
 198.4609375 146.875 198.4609375 146.875 198.4609375 128.247070312 c 256,132,133
 198.4609375 109.618164062 198.4609375 109.618164062 186.997070312 96.005859375 c 0,134,135
 181.981445312 90.2744140625 181.981445312 90.2744140625 176.25 86.6923828125 c 1,136,-1
 176.25 86.6923828125 l 1,137,138
 177.682617188 85.9755859375 177.682617188 85.9755859375 179.116210938 85.2587890625 c 1,139,-1
 179.116210938 85.2587890625 l 1,140,141
 187.713867188 90.9912109375 187.713867188 90.9912109375 198.4609375 90.9912109375 c 0,142,143
 214.939453125 90.9912109375 214.939453125 90.9912109375 227.119140625 77.3779296875 c 0,144,145
 238.58203125 63.7646484375 238.58203125 63.7646484375 238.58203125 45.13671875 c 256,146,147
 238.58203125 26.509765625 238.58203125 26.509765625 227.119140625 13.6123046875 c 0,148,149
 214.939453125 0 214.939453125 0 198.4609375 0 c 0,150,151
 187.713867188 0 187.713867188 0 179.116210938 5.7314453125 c 1,152,153
 169.802734375 0 169.802734375 0 159.055664062 0 c 0,154,155
 147.591796875 0 147.591796875 0 138.994140625 5.7314453125 c 1,156,-1
 138.994140625 5.7314453125 l 1,157,158
 129.680664062 0 129.680664062 0 119.649414062 0 c 1,159,-1
 119.649414062 0 l 1,6,7
EndSplineSet
EndChar

StartChar: two
Encoding: 50 50 18
Width: 456
VWidth: 715
Flags: W
LayerCount: 2
Fore
SplineSet
59.4658203125 5.7314453125 m 1,0,1
 59.4658203125 5.7314453125 l 1,2,-1
 59.4658203125 5.7314453125 l 1,3,4
 59.4658203125 5.7314453125 l 1,5,-1
 59.4658203125 5.7314453125 l 1,0,1
138.994140625 5.7314453125 m 1,6,7
 138.994140625 5.7314453125 l 1,8,-1
 138.994140625 5.7314453125 l 1,9,10
 138.994140625 5.7314453125 l 1,11,-1
 138.994140625 5.7314453125 l 1,6,7
218.521484375 5.7314453125 m 1,12,13
 218.521484375 5.7314453125 l 1,14,-1
 218.521484375 5.7314453125 l 1,15,16
 218.521484375 5.7314453125 l 1,17,-1
 218.521484375 5.7314453125 l 1,12,13
298.765625 5.7314453125 m 1,18,19
 298.765625 5.7314453125 l 1,20,-1
 298.765625 5.7314453125 l 1,21,22
 298.765625 5.7314453125 l 1,23,-1
 298.765625 5.7314453125 l 1,18,19
39.4052734375 0 m 1,24,25
 22.927734375 0 22.927734375 0 11.4638671875 13.6123046875 c 256,26,27
 0 27.2255859375 0 27.2255859375 0 45.13671875 c 256,28,29
 0 63.7646484375 0 63.7646484375 11.4638671875 77.3779296875 c 256,30,31
 22.927734375 90.9912109375 22.927734375 90.9912109375 39.4052734375 90.9912109375 c 0,32,33
 50.869140625 90.9912109375 50.869140625 90.9912109375 59.4658203125 85.2587890625 c 1,34,-1
 59.4658203125 85.2587890625 l 1,35,36
 68.7802734375 90.9912109375 68.7802734375 90.9912109375 79.52734375 90.9912109375 c 0,37,38
 90.9912109375 90.9912109375 90.9912109375 90.9912109375 99.587890625 85.2587890625 c 1,39,-1
 99.587890625 85.2587890625 l 1,40,41
 101.021484375 85.9755859375 101.021484375 85.9755859375 102.454101562 86.6923828125 c 1,42,-1
 102.454101562 86.6923828125 l 1,43,44
 96.005859375 90.2744140625 96.005859375 90.2744140625 90.9912109375 96.005859375 c 0,45,46
 79.52734375 109.618164062 79.52734375 109.618164062 79.52734375 128.247070312 c 256,47,48
 79.52734375 146.875 79.52734375 146.875 90.9912109375 160.487304688 c 0,49,50
 103.170898438 174.100585938 103.170898438 174.100585938 119.649414062 174.100585938 c 256,51,52
 136.127929688 174.100585938 136.127929688 174.100585938 147.591796875 160.487304688 c 0,53,54
 159.771484375 146.875 159.771484375 146.875 159.055664062 128.247070312 c 256,55,56
 159.055664062 109.618164062 159.055664062 109.618164062 147.591796875 96.005859375 c 0,57,58
 142.576171875 90.2744140625 142.576171875 90.2744140625 136.127929688 86.6923828125 c 1,59,-1
 136.127929688 86.6923828125 l 1,60,61
 137.561523438 85.9755859375 137.561523438 85.9755859375 138.994140625 85.2587890625 c 1,62,-1
 138.994140625 85.2587890625 l 1,63,64
 147.591796875 90.9912109375 147.591796875 90.9912109375 159.055664062 90.9912109375 c 0,65,66
 169.802734375 90.9912109375 169.802734375 90.9912109375 179.116210938 85.2587890625 c 1,67,-1
 179.116210938 85.2587890625 l 1,68,69
 187.713867188 90.9912109375 187.713867188 90.9912109375 198.4609375 90.9912109375 c 0,70,71
 209.923828125 90.9912109375 209.923828125 90.9912109375 218.521484375 85.2587890625 c 1,72,-1
 218.521484375 85.2587890625 l 1,73,74
 227.834960938 90.9912109375 227.834960938 90.9912109375 238.58203125 90.9912109375 c 0,75,76
 250.045898438 90.9912109375 250.045898438 90.9912109375 258.643554688 85.2587890625 c 1,77,-1
 258.643554688 85.2587890625 l 1,78,79
 267.240234375 90.9912109375 267.240234375 90.9912109375 278.704101562 90.9912109375 c 0,80,81
 289.451171875 90.9912109375 289.451171875 90.9912109375 298.765625 85.2587890625 c 1,82,-1
 298.765625 85.2587890625 l 1,83,84
 307.36328125 90.9912109375 307.36328125 90.9912109375 318.109375 90.9912109375 c 0,85,86
 328.856445312 90.9912109375 328.856445312 90.9912109375 338.171875 85.2587890625 c 1,87,-1
 338.171875 85.2587890625 l 1,88,89
 346.768554688 90.9912109375 346.768554688 90.9912109375 358.232421875 90.9912109375 c 0,90,91
 374.709960938 90.9912109375 374.709960938 90.9912109375 386.173828125 77.3779296875 c 256,92,93
 397.637695312 63.7646484375 397.637695312 63.7646484375 397.637695312 45.13671875 c 256,94,95
 397.637695312 26.509765625 397.637695312 26.509765625 386.173828125 13.6123046875 c 256,96,97
 374.709960938 0 374.709960938 0 358.232421875 0 c 0,98,99
 346.768554688 0 346.768554688 0 338.171875 5.7314453125 c 1,100,-1
 338.171875 5.7314453125 l 1,101,102
 328.856445312 0 328.856445312 0 318.109375 0 c 0,103,104
 306.646484375 0 306.646484375 0 298.765625 5.7314453125 c 1,105,-1
 298.765625 5.7314453125 l 1,106,107
 289.451171875 0 289.451171875 0 278.704101562 0 c 0,108,109
 267.240234375 0 267.240234375 0 258.643554688 5.7314453125 c 1,110,111
 250.045898438 0 250.045898438 0 238.58203125 0 c 0,112,113
 227.834960938 0 227.834960938 0 218.521484375 5.7314453125 c 1,114,115
 209.923828125 0 209.923828125 0 198.4609375 0 c 0,116,117
 187.713867188 0 187.713867188 0 179.116210938 5.7314453125 c 1,118,119
 169.802734375 0 169.802734375 0 159.055664062 0 c 0,120,121
 147.591796875 0 147.591796875 0 138.994140625 5.7314453125 c 1,122,123
 129.680664062 0 129.680664062 0 119.649414062 0 c 0,124,125
 108.186523438 0 108.186523438 0 99.587890625 5.7314453125 c 1,126,127
 90.9912109375 0 90.9912109375 0 79.52734375 0 c 0,128,129
 68.7802734375 0 68.7802734375 0 59.4658203125 5.7314453125 c 1,130,131
 50.869140625 0 50.869140625 0 39.4052734375 0 c 1,132,-1
 39.4052734375 0 l 1,24,25
198.4609375 165.502929688 m 1,133,134
 181.981445312 165.502929688 181.981445312 165.502929688 170.517578125 179.116210938 c 256,135,136
 159.055664062 192.728515625 159.055664062 192.728515625 159.055664062 211.356445312 c 256,137,138
 159.055664062 229.985351562 159.055664062 229.985351562 170.517578125 243.59765625 c 256,139,140
 181.981445312 257.209960938 181.981445312 257.209960938 198.4609375 256.494140625 c 256,141,142
 214.939453125 256.494140625 214.939453125 256.494140625 227.119140625 243.59765625 c 0,143,144
 238.58203125 229.985351562 238.58203125 229.985351562 238.58203125 211.356445312 c 256,145,146
 238.58203125 192.728515625 238.58203125 192.728515625 227.119140625 179.116210938 c 0,147,148
 214.939453125 165.502929688 214.939453125 165.502929688 198.4609375 165.502929688 c 1,149,-1
 198.4609375 165.502929688 l 1,133,134
278.704101562 248.61328125 m 1,150,151
 262.225585938 248.61328125 262.225585938 248.61328125 250.045898438 262.225585938 c 0,152,153
 238.58203125 275.838867188 238.58203125 275.838867188 238.58203125 294.466796875 c 256,154,155
 238.58203125 313.094726562 238.58203125 313.094726562 250.045898438 326.708007812 c 0,156,157
 262.225585938 340.3203125 262.225585938 340.3203125 278.704101562 339.603515625 c 256,158,159
 295.18359375 339.603515625 295.18359375 339.603515625 306.646484375 326.708007812 c 0,160,161
 318.826171875 313.094726562 318.826171875 313.094726562 318.109375 294.466796875 c 256,162,163
 318.109375 275.838867188 318.109375 275.838867188 306.646484375 262.225585938 c 0,164,165
 295.18359375 248.61328125 295.18359375 248.61328125 278.704101562 248.61328125 c 1,166,-1
 278.704101562 248.61328125 l 1,150,151
318.109375 331.72265625 m 1,167,168
 301.631835938 331.72265625 301.631835938 331.72265625 290.16796875 344.619140625 c 0,169,170
 278.704101562 358.232421875 278.704101562 358.232421875 278.704101562 376.860351562 c 256,171,172
 278.704101562 395.48828125 278.704101562 395.48828125 290.16796875 409.1015625 c 0,173,174
 302.348632812 422.713867188 302.348632812 422.713867188 318.109375 422.713867188 c 256,175,176
 334.588867188 422.713867188 334.588867188 422.713867188 346.051757812 409.1015625 c 0,177,178
 358.232421875 395.48828125 358.232421875 395.48828125 358.232421875 376.860351562 c 256,179,180
 358.232421875 358.232421875 358.232421875 358.232421875 346.051757812 344.619140625 c 0,181,182
 334.588867188 331.006835938 334.588867188 331.006835938 318.109375 331.72265625 c 1,183,-1
 318.109375 331.72265625 l 1,167,168
179.116210938 503.673828125 m 1,184,185
 179.116210938 503.673828125 l 1,186,-1
 179.116210938 503.673828125 l 1,187,188
 179.116210938 503.673828125 l 1,189,-1
 179.116210938 503.673828125 l 1,184,185
258.643554688 503.673828125 m 1,190,191
 258.643554688 503.673828125 l 1,192,-1
 258.643554688 503.673828125 l 1,193,194
 258.643554688 503.673828125 l 1,195,-1
 258.643554688 503.673828125 l 1,190,191
39.4052734375 414.83203125 m 1,196,197
 22.927734375 414.83203125 22.927734375 414.83203125 11.4638671875 427.729492188 c 256,198,199
 0 441.341796875 0 441.341796875 0 459.970703125 c 256,200,201
 0 478.59765625 0 478.59765625 11.4638671875 492.2109375 c 256,202,203
 22.927734375 505.82421875 22.927734375 505.82421875 39.4052734375 505.82421875 c 256,204,205
 55.8837890625 505.82421875 55.8837890625 505.82421875 68.064453125 492.2109375 c 0,206,207
 79.52734375 478.59765625 79.52734375 478.59765625 79.52734375 459.970703125 c 256,208,209
 79.52734375 441.341796875 79.52734375 441.341796875 68.064453125 427.729492188 c 0,210,211
 55.8837890625 414.116210938 55.8837890625 414.116210938 39.4052734375 414.83203125 c 1,212,-1
 39.4052734375 414.83203125 l 1,196,197
358.232421875 414.83203125 m 1,213,214
 341.75390625 414.83203125 341.75390625 414.83203125 329.573242188 427.729492188 c 256,215,216
 318.109375 441.341796875 318.109375 441.341796875 318.109375 459.970703125 c 256,217,218
 318.109375 478.59765625 318.109375 478.59765625 329.573242188 492.2109375 c 256,219,220
 341.037109375 505.82421875 341.037109375 505.82421875 358.232421875 505.82421875 c 0,221,222
 374.709960938 505.82421875 374.709960938 505.82421875 386.173828125 492.2109375 c 256,223,224
 397.637695312 478.59765625 397.637695312 478.59765625 397.637695312 459.970703125 c 256,225,226
 397.637695312 441.341796875 397.637695312 441.341796875 386.173828125 427.729492188 c 256,227,228
 374.709960938 414.116210938 374.709960938 414.116210938 358.232421875 414.83203125 c 1,229,-1
 358.232421875 414.83203125 l 1,213,214
119.649414062 497.225585938 m 1,230,231
 103.170898438 497.225585938 103.170898438 497.225585938 90.9912109375 510.838867188 c 0,232,233
 79.52734375 524.452148438 79.52734375 524.452148438 79.52734375 543.079101562 c 256,234,235
 79.52734375 561.708007812 79.52734375 561.708007812 90.9912109375 575.3203125 c 0,236,237
 103.170898438 588.93359375 103.170898438 588.93359375 119.649414062 588.216796875 c 0,238,239
 130.396484375 588.216796875 130.396484375 588.216796875 138.994140625 582.484375 c 1,240,-1
 138.994140625 582.484375 l 1,241,242
 147.591796875 588.216796875 147.591796875 588.216796875 159.055664062 588.216796875 c 0,243,244
 169.802734375 588.216796875 169.802734375 588.216796875 179.116210938 582.484375 c 1,245,-1
 179.116210938 582.484375 l 1,246,247
 187.713867188 588.216796875 187.713867188 588.216796875 198.4609375 588.216796875 c 0,248,249
 209.923828125 588.216796875 209.923828125 588.216796875 218.521484375 582.484375 c 1,250,-1
 218.521484375 582.484375 l 1,251,252
 227.834960938 588.216796875 227.834960938 588.216796875 238.58203125 588.216796875 c 0,253,254
 250.045898438 588.216796875 250.045898438 588.216796875 258.643554688 582.484375 c 1,255,-1
 258.643554688 582.484375 l 1,256,257
 267.240234375 588.216796875 267.240234375 588.216796875 278.704101562 588.216796875 c 0,258,259
 295.18359375 588.216796875 295.18359375 588.216796875 306.646484375 575.3203125 c 0,260,261
 318.826171875 561.708007812 318.826171875 561.708007812 318.109375 543.079101562 c 256,262,263
 318.109375 524.452148438 318.109375 524.452148438 306.646484375 510.838867188 c 0,264,265
 295.18359375 497.225585938 295.18359375 497.225585938 278.704101562 497.225585938 c 0,266,267
 267.240234375 497.225585938 267.240234375 497.225585938 258.643554688 503.673828125 c 1,268,-1
 258.643554688 503.673828125 l 1,269,270
 250.045898438 497.942382812 250.045898438 497.942382812 238.58203125 497.225585938 c 0,271,272
 227.834960938 497.225585938 227.834960938 497.225585938 218.521484375 503.673828125 c 1,273,274
 209.923828125 497.942382812 209.923828125 497.942382812 198.4609375 497.225585938 c 0,275,276
 187.713867188 497.225585938 187.713867188 497.225585938 179.116210938 503.673828125 c 1,277,-1
 179.116210938 503.673828125 l 1,278,279
 169.802734375 497.942382812 169.802734375 497.942382812 159.055664062 497.225585938 c 0,280,281
 147.591796875 497.225585938 147.591796875 497.225585938 138.994140625 503.673828125 c 1,282,-1
 138.994140625 503.673828125 l 1,283,284
 129.680664062 497.942382812 129.680664062 497.942382812 119.649414062 497.225585938 c 1,285,-1
 119.649414062 497.225585938 l 1,230,231
EndSplineSet
EndChar

StartChar: three
Encoding: 51 51 19
Width: 456
VWidth: 715
Flags: W
LayerCount: 2
Fore
SplineSet
138.994140625 5.7314453125 m 1,0,1
 138.994140625 5.7314453125 l 1,2,-1
 138.994140625 5.7314453125 l 1,3,4
 138.994140625 5.7314453125 l 1,5,-1
 138.994140625 5.7314453125 l 1,0,1
218.521484375 5.7314453125 m 1,6,7
 218.521484375 5.7314453125 l 1,8,-1
 218.521484375 5.7314453125 l 1,9,10
 218.521484375 5.7314453125 l 1,11,-1
 218.521484375 5.7314453125 l 1,6,7
119.649414062 0 m 1,12,13
 103.170898438 0 103.170898438 0 90.9912109375 13.6123046875 c 0,14,15
 79.52734375 27.2255859375 79.52734375 27.2255859375 79.52734375 45.13671875 c 256,16,17
 79.52734375 63.7646484375 79.52734375 63.7646484375 90.9912109375 77.3779296875 c 0,18,19
 103.170898438 90.9912109375 103.170898438 90.9912109375 119.649414062 90.9912109375 c 0,20,21
 130.396484375 90.9912109375 130.396484375 90.9912109375 138.994140625 85.2587890625 c 1,22,-1
 138.994140625 85.2587890625 l 1,23,24
 147.591796875 90.9912109375 147.591796875 90.9912109375 159.055664062 90.9912109375 c 0,25,26
 169.802734375 90.9912109375 169.802734375 90.9912109375 179.116210938 85.2587890625 c 1,27,-1
 179.116210938 85.2587890625 l 1,28,29
 187.713867188 90.9912109375 187.713867188 90.9912109375 198.4609375 90.9912109375 c 0,30,31
 209.923828125 90.9912109375 209.923828125 90.9912109375 218.521484375 85.2587890625 c 1,32,-1
 218.521484375 85.2587890625 l 1,33,34
 227.834960938 90.9912109375 227.834960938 90.9912109375 238.58203125 90.9912109375 c 0,35,36
 250.045898438 90.9912109375 250.045898438 90.9912109375 258.643554688 85.2587890625 c 1,37,-1
 258.643554688 85.2587890625 l 1,38,39
 267.240234375 90.9912109375 267.240234375 90.9912109375 278.704101562 90.9912109375 c 0,40,41
 295.18359375 90.9912109375 295.18359375 90.9912109375 306.646484375 77.3779296875 c 0,42,43
 318.826171875 63.7646484375 318.826171875 63.7646484375 318.109375 45.13671875 c 256,44,45
 318.109375 26.509765625 318.109375 26.509765625 306.646484375 13.6123046875 c 0,46,47
 295.18359375 0 295.18359375 0 278.704101562 0 c 0,48,49
 267.240234375 0 267.240234375 0 258.643554688 5.7314453125 c 1,50,-1
 258.643554688 5.7314453125 l 1,51,52
 250.045898438 0 250.045898438 0 238.58203125 0 c 0,53,54
 227.834960938 0 227.834960938 0 218.521484375 5.7314453125 c 1,55,56
 209.923828125 0 209.923828125 0 198.4609375 0 c 0,57,58
 187.713867188 0 187.713867188 0 179.116210938 5.7314453125 c 1,59,60
 169.802734375 0 169.802734375 0 159.055664062 0 c 0,61,62
 147.591796875 0 147.591796875 0 138.994140625 5.7314453125 c 1,63,-1
 138.994140625 5.7314453125 l 1,64,65
 129.680664062 0 129.680664062 0 119.649414062 0 c 1,66,-1
 119.649414062 0 l 1,12,13
39.4052734375 83.1103515625 m 1,67,68
 22.927734375 83.1103515625 22.927734375 83.1103515625 11.4638671875 96.005859375 c 256,69,70
 0 109.618164062 0 109.618164062 0 128.247070312 c 256,71,72
 0 146.875 0 146.875 11.4638671875 160.487304688 c 256,73,74
 22.927734375 174.100585938 22.927734375 174.100585938 39.4052734375 174.100585938 c 256,75,76
 55.8837890625 174.100585938 55.8837890625 174.100585938 68.064453125 160.487304688 c 0,77,78
 79.52734375 146.875 79.52734375 146.875 79.52734375 128.247070312 c 256,79,80
 79.52734375 109.618164062 79.52734375 109.618164062 68.064453125 96.005859375 c 0,81,82
 55.8837890625 82.3935546875 55.8837890625 82.3935546875 39.4052734375 83.1103515625 c 1,83,-1
 39.4052734375 83.1103515625 l 1,67,68
218.521484375 254.344726562 m 1,84,85
 218.521484375 254.344726562 l 1,86,-1
 218.521484375 254.344726562 l 1,87,88
 218.521484375 254.344726562 l 1,89,-1
 218.521484375 254.344726562 l 1,84,85
358.232421875 83.1103515625 m 1,90,91
 341.75390625 83.1103515625 341.75390625 83.1103515625 329.573242188 96.005859375 c 256,92,93
 318.109375 109.618164062 318.109375 109.618164062 318.109375 128.247070312 c 256,94,95
 318.109375 146.875 318.109375 146.875 329.573242188 160.487304688 c 0,96,97
 334.588867188 166.219726562 334.588867188 166.219726562 341.037109375 169.802734375 c 1,98,-1
 341.037109375 169.802734375 l 1,99,100
 335.3046875 173.384765625 335.3046875 173.384765625 329.573242188 179.116210938 c 0,101,102
 318.109375 192.728515625 318.109375 192.728515625 318.109375 211.356445312 c 256,103,104
 318.109375 229.985351562 318.109375 229.985351562 329.573242188 243.59765625 c 256,105,106
 341.037109375 257.209960938 341.037109375 257.209960938 358.232421875 256.494140625 c 0,107,108
 374.709960938 256.494140625 374.709960938 256.494140625 386.173828125 243.59765625 c 256,109,110
 397.637695312 229.985351562 397.637695312 229.985351562 397.637695312 211.356445312 c 256,111,112
 397.637695312 192.728515625 397.637695312 192.728515625 386.173828125 179.116210938 c 0,113,114
 381.159179688 173.384765625 381.159179688 173.384765625 374.709960938 169.802734375 c 1,115,-1
 374.709960938 169.802734375 l 1,116,117
 380.442382812 166.935546875 380.442382812 166.935546875 386.173828125 160.487304688 c 0,118,119
 397.637695312 146.875 397.637695312 146.875 397.637695312 128.247070312 c 256,120,121
 397.637695312 109.618164062 397.637695312 109.618164062 386.173828125 96.005859375 c 256,122,123
 374.709960938 82.3935546875 374.709960938 82.3935546875 358.232421875 83.1103515625 c 1,124,-1
 358.232421875 83.1103515625 l 1,90,91
198.4609375 248.61328125 m 1,125,126
 181.981445312 248.61328125 181.981445312 248.61328125 170.517578125 262.225585938 c 256,127,128
 159.055664062 275.838867188 159.055664062 275.838867188 159.055664062 294.466796875 c 256,129,130
 159.055664062 313.094726562 159.055664062 313.094726562 170.517578125 326.708007812 c 256,131,132
 181.981445312 340.3203125 181.981445312 340.3203125 198.4609375 339.603515625 c 0,133,134
 209.923828125 339.603515625 209.923828125 339.603515625 218.521484375 333.872070312 c 1,135,-1
 218.521484375 333.872070312 l 1,136,137
 227.834960938 339.603515625 227.834960938 339.603515625 238.58203125 339.603515625 c 0,138,139
 250.045898438 339.603515625 250.045898438 339.603515625 258.643554688 333.872070312 c 1,140,-1
 258.643554688 333.872070312 l 1,141,142
 267.240234375 339.603515625 267.240234375 339.603515625 278.704101562 339.603515625 c 0,143,144
 295.18359375 339.603515625 295.18359375 339.603515625 306.646484375 326.708007812 c 0,145,146
 318.826171875 313.094726562 318.826171875 313.094726562 318.109375 294.466796875 c 256,147,148
 318.109375 275.838867188 318.109375 275.838867188 306.646484375 262.225585938 c 0,149,150
 295.18359375 248.61328125 295.18359375 248.61328125 278.704101562 248.61328125 c 0,151,152
 267.240234375 248.61328125 267.240234375 248.61328125 258.643554688 254.344726562 c 1,153,154
 250.045898438 248.61328125 250.045898438 248.61328125 238.58203125 248.61328125 c 0,155,156
 227.834960938 248.61328125 227.834960938 248.61328125 218.521484375 254.344726562 c 1,157,-1
 218.521484375 254.344726562 l 1,158,159
 209.923828125 248.61328125 209.923828125 248.61328125 198.4609375 248.61328125 c 1,160,-1
 198.4609375 248.61328125 l 1,125,126
138.994140625 503.673828125 m 1,161,162
 138.994140625 503.673828125 l 1,163,-1
 138.994140625 503.673828125 l 1,164,165
 138.994140625 503.673828125 l 1,166,-1
 138.994140625 503.673828125 l 1,161,162
218.521484375 503.673828125 m 1,167,168
 218.521484375 503.673828125 l 1,169,-1
 218.521484375 503.673828125 l 1,170,171
 218.521484375 503.673828125 l 1,172,-1
 218.521484375 503.673828125 l 1,167,168
39.4052734375 414.83203125 m 1,173,174
 22.927734375 414.83203125 22.927734375 414.83203125 11.4638671875 427.729492188 c 256,175,176
 0 441.341796875 0 441.341796875 0 459.970703125 c 256,177,178
 0 478.59765625 0 478.59765625 11.4638671875 492.2109375 c 256,179,180
 22.927734375 505.82421875 22.927734375 505.82421875 39.4052734375 505.82421875 c 256,181,182
 55.8837890625 505.82421875 55.8837890625 505.82421875 68.064453125 492.2109375 c 0,183,184
 79.52734375 478.59765625 79.52734375 478.59765625 79.52734375 459.970703125 c 256,185,186
 79.52734375 441.341796875 79.52734375 441.341796875 68.064453125 427.729492188 c 0,187,188
 55.8837890625 414.116210938 55.8837890625 414.116210938 39.4052734375 414.83203125 c 1,189,-1
 39.4052734375 414.83203125 l 1,173,174
358.232421875 331.72265625 m 1,190,191
 341.75390625 331.72265625 341.75390625 331.72265625 329.573242188 344.619140625 c 256,192,193
 318.109375 358.232421875 318.109375 358.232421875 318.109375 376.860351562 c 256,194,195
 318.109375 395.48828125 318.109375 395.48828125 329.573242188 409.1015625 c 0,196,197
 334.588867188 414.83203125 334.588867188 414.83203125 341.037109375 418.415039062 c 1,198,-1
 341.037109375 418.415039062 l 1,199,200
 335.3046875 421.280273438 335.3046875 421.280273438 329.573242188 427.729492188 c 0,201,202
 318.109375 441.341796875 318.109375 441.341796875 318.109375 459.970703125 c 256,203,204
 318.109375 478.59765625 318.109375 478.59765625 329.573242188 492.2109375 c 256,205,206
 341.037109375 505.82421875 341.037109375 505.82421875 358.232421875 505.82421875 c 0,207,208
 374.709960938 505.82421875 374.709960938 505.82421875 386.173828125 492.2109375 c 256,209,210
 397.637695312 478.59765625 397.637695312 478.59765625 397.637695312 459.970703125 c 256,211,212
 397.637695312 441.341796875 397.637695312 441.341796875 386.173828125 427.729492188 c 0,213,214
 381.159179688 421.997070312 381.159179688 421.997070312 374.709960938 418.415039062 c 1,215,-1
 374.709960938 418.415039062 l 1,216,217
 380.442382812 414.83203125 380.442382812 414.83203125 386.173828125 409.1015625 c 0,218,219
 397.637695312 395.48828125 397.637695312 395.48828125 397.637695312 376.860351562 c 256,220,221
 397.637695312 358.232421875 397.637695312 358.232421875 386.173828125 344.619140625 c 256,222,223
 374.709960938 331.006835938 374.709960938 331.006835938 358.232421875 331.72265625 c 1,224,-1
 358.232421875 331.72265625 l 1,190,191
119.649414062 497.225585938 m 1,225,226
 103.170898438 497.225585938 103.170898438 497.225585938 90.9912109375 510.838867188 c 0,227,228
 79.52734375 524.452148438 79.52734375 524.452148438 79.52734375 543.079101562 c 256,229,230
 79.52734375 561.708007812 79.52734375 561.708007812 90.9912109375 575.3203125 c 0,231,232
 103.170898438 588.93359375 103.170898438 588.93359375 119.649414062 588.216796875 c 0,233,234
 130.396484375 588.216796875 130.396484375 588.216796875 138.994140625 582.484375 c 1,235,-1
 138.994140625 582.484375 l 1,236,237
 147.591796875 588.216796875 147.591796875 588.216796875 159.055664062 588.216796875 c 0,238,239
 169.802734375 588.216796875 169.802734375 588.216796875 179.116210938 582.484375 c 1,240,-1
 179.116210938 582.484375 l 1,241,242
 187.713867188 588.216796875 187.713867188 588.216796875 198.4609375 588.216796875 c 0,243,244
 209.923828125 588.216796875 209.923828125 588.216796875 218.521484375 582.484375 c 1,245,-1
 218.521484375 582.484375 l 1,246,247
 227.834960938 588.216796875 227.834960938 588.216796875 238.58203125 588.216796875 c 0,248,249
 250.045898438 588.216796875 250.045898438 588.216796875 258.643554688 582.484375 c 1,250,-1
 258.643554688 582.484375 l 1,251,252
 267.240234375 588.216796875 267.240234375 588.216796875 278.704101562 588.216796875 c 0,253,254
 295.18359375 588.216796875 295.18359375 588.216796875 306.646484375 575.3203125 c 0,255,256
 318.826171875 561.708007812 318.826171875 561.708007812 318.109375 543.079101562 c 256,257,258
 318.109375 524.452148438 318.109375 524.452148438 306.646484375 510.838867188 c 0,259,260
 295.18359375 497.225585938 295.18359375 497.225585938 278.704101562 497.225585938 c 0,261,262
 267.240234375 497.225585938 267.240234375 497.225585938 258.643554688 503.673828125 c 1,263,264
 250.045898438 497.942382812 250.045898438 497.942382812 238.58203125 497.225585938 c 0,265,266
 227.834960938 497.225585938 227.834960938 497.225585938 218.521484375 503.673828125 c 1,267,-1
 218.521484375 503.673828125 l 1,268,269
 209.923828125 497.942382812 209.923828125 497.942382812 198.4609375 497.225585938 c 0,270,271
 187.713867188 497.225585938 187.713867188 497.225585938 179.116210938 503.673828125 c 1,272,273
 169.802734375 497.942382812 169.802734375 497.942382812 159.055664062 497.225585938 c 0,274,275
 147.591796875 497.225585938 147.591796875 497.225585938 138.994140625 503.673828125 c 1,276,277
 129.680664062 497.942382812 129.680664062 497.942382812 119.649414062 497.225585938 c 1,278,-1
 119.649414062 497.225585938 l 1,225,226
EndSplineSet
EndChar

StartChar: four
Encoding: 52 52 20
Width: 417
VWidth: 715
Flags: W
LayerCount: 2
Fore
SplineSet
59.4658203125 171.951171875 m 1,0,1
 59.4658203125 171.951171875 l 1,2,-1
 59.4658203125 171.951171875 l 1,3,4
 59.4658203125 171.951171875 l 1,5,-1
 59.4658203125 171.951171875 l 1,0,1
138.994140625 171.951171875 m 1,6,7
 138.994140625 171.951171875 l 1,8,-1
 138.994140625 171.951171875 l 1,9,10
 138.994140625 171.951171875 l 1,11,-1
 138.994140625 171.951171875 l 1,6,7
218.521484375 171.951171875 m 1,12,13
 218.521484375 171.951171875 l 1,14,-1
 218.521484375 171.951171875 l 1,15,16
 218.521484375 171.951171875 l 1,17,-1
 218.521484375 171.951171875 l 1,12,13
298.765625 171.951171875 m 1,18,19
 298.765625 171.951171875 l 1,20,-1
 298.765625 171.951171875 l 1,21,22
 298.765625 171.951171875 l 1,23,-1
 298.765625 171.951171875 l 1,18,19
119.649414062 331.72265625 m 1,24,25
 103.170898438 331.72265625 103.170898438 331.72265625 90.9912109375 344.619140625 c 0,26,27
 79.52734375 358.232421875 79.52734375 358.232421875 79.52734375 376.860351562 c 256,28,29
 79.52734375 395.48828125 79.52734375 395.48828125 90.9912109375 409.1015625 c 0,30,31
 103.170898438 422.713867188 103.170898438 422.713867188 119.649414062 422.713867188 c 256,32,33
 136.127929688 422.713867188 136.127929688 422.713867188 147.591796875 409.1015625 c 0,34,35
 159.771484375 395.48828125 159.771484375 395.48828125 159.055664062 376.860351562 c 256,36,37
 159.055664062 358.232421875 159.055664062 358.232421875 147.591796875 344.619140625 c 0,38,39
 136.127929688 331.006835938 136.127929688 331.006835938 119.649414062 331.72265625 c 1,40,-1
 119.649414062 331.72265625 l 1,24,25
159.055664062 414.83203125 m 1,41,42
 142.576171875 414.83203125 142.576171875 414.83203125 131.112304688 427.729492188 c 0,43,44
 119.649414062 441.341796875 119.649414062 441.341796875 119.649414062 459.970703125 c 256,45,46
 119.649414062 478.59765625 119.649414062 478.59765625 131.112304688 492.2109375 c 0,47,48
 143.29296875 505.82421875 143.29296875 505.82421875 159.055664062 505.82421875 c 256,49,50
 175.533203125 505.82421875 175.533203125 505.82421875 186.997070312 492.2109375 c 256,51,52
 198.4609375 478.59765625 198.4609375 478.59765625 198.4609375 459.970703125 c 256,53,54
 198.4609375 441.341796875 198.4609375 441.341796875 186.997070312 427.729492188 c 256,55,56
 175.533203125 414.116210938 175.533203125 414.116210938 159.055664062 414.83203125 c 1,57,-1
 159.055664062 414.83203125 l 1,41,42
198.4609375 497.225585938 m 1,58,59
 181.981445312 497.225585938 181.981445312 497.225585938 170.517578125 510.838867188 c 256,60,61
 159.055664062 524.452148438 159.055664062 524.452148438 159.055664062 543.079101562 c 256,62,63
 159.055664062 561.708007812 159.055664062 561.708007812 170.517578125 575.3203125 c 256,64,65
 181.981445312 588.93359375 181.981445312 588.93359375 198.4609375 588.216796875 c 256,66,67
 214.939453125 588.216796875 214.939453125 588.216796875 227.119140625 575.3203125 c 0,68,69
 238.58203125 561.708007812 238.58203125 561.708007812 238.58203125 543.079101562 c 256,70,71
 238.58203125 524.452148438 238.58203125 524.452148438 227.119140625 510.838867188 c 0,72,73
 214.939453125 497.225585938 214.939453125 497.225585938 198.4609375 497.225585938 c 1,74,-1
 198.4609375 497.225585938 l 1,58,59
278.704101562 0 m 1,75,76
 262.225585938 0 262.225585938 0 250.045898438 13.6123046875 c 0,77,78
 238.58203125 27.2255859375 238.58203125 27.2255859375 238.58203125 45.13671875 c 256,79,80
 238.58203125 63.7646484375 238.58203125 63.7646484375 250.045898438 77.3779296875 c 0,81,82
 255.061523438 83.1103515625 255.061523438 83.1103515625 261.509765625 86.6923828125 c 1,83,-1
 261.509765625 86.6923828125 l 1,84,85
 255.061523438 90.2744140625 255.061523438 90.2744140625 250.045898438 96.005859375 c 0,86,87
 238.58203125 109.618164062 238.58203125 109.618164062 238.58203125 128.247070312 c 256,88,89
 238.58203125 146.875 238.58203125 146.875 250.045898438 160.487304688 c 0,90,91
 255.061523438 166.219726562 255.061523438 166.219726562 261.509765625 169.802734375 c 1,92,-1
 261.509765625 169.802734375 l 1,93,94
 260.076171875 170.517578125 260.076171875 170.517578125 258.643554688 171.951171875 c 1,95,-1
 258.643554688 171.951171875 l 1,96,97
 250.045898438 166.219726562 250.045898438 166.219726562 238.58203125 165.502929688 c 0,98,99
 227.834960938 165.502929688 227.834960938 165.502929688 218.521484375 171.951171875 c 1,100,-1
 218.521484375 171.951171875 l 1,101,102
 209.923828125 166.219726562 209.923828125 166.219726562 198.4609375 165.502929688 c 0,103,104
 187.713867188 165.502929688 187.713867188 165.502929688 179.116210938 171.951171875 c 1,105,106
 169.802734375 166.219726562 169.802734375 166.219726562 159.055664062 165.502929688 c 0,107,108
 147.591796875 165.502929688 147.591796875 165.502929688 138.994140625 171.951171875 c 1,109,110
 129.680664062 166.219726562 129.680664062 166.219726562 119.649414062 165.502929688 c 0,111,112
 108.186523438 165.502929688 108.186523438 165.502929688 99.587890625 171.951171875 c 1,113,-1
 99.587890625 171.951171875 l 1,114,115
 90.9912109375 166.219726562 90.9912109375 166.219726562 79.52734375 165.502929688 c 0,116,117
 68.7802734375 165.502929688 68.7802734375 165.502929688 59.4658203125 171.951171875 c 1,118,-1
 59.4658203125 171.951171875 l 1,119,120
 50.869140625 166.219726562 50.869140625 166.219726562 39.4052734375 165.502929688 c 0,121,122
 22.927734375 165.502929688 22.927734375 165.502929688 11.4638671875 179.116210938 c 256,123,124
 0 192.728515625 0 192.728515625 0 211.356445312 c 256,125,126
 0 229.985351562 0 229.985351562 11.4638671875 243.59765625 c 256,127,128
 22.927734375 257.209960938 22.927734375 257.209960938 39.4052734375 256.494140625 c 0,129,130
 50.869140625 256.494140625 50.869140625 256.494140625 59.4658203125 250.762695312 c 1,131,-1
 59.4658203125 250.762695312 l 1,132,133
 60.8994140625 251.479492188 60.8994140625 251.479492188 62.3330078125 252.911132812 c 1,134,-1
 62.3330078125 252.911132812 l 1,135,136
 55.8837890625 256.494140625 55.8837890625 256.494140625 51.5859375 262.225585938 c 0,137,138
 39.4052734375 275.838867188 39.4052734375 275.838867188 39.4052734375 294.466796875 c 256,139,140
 39.4052734375 313.094726562 39.4052734375 313.094726562 51.5859375 326.708007812 c 0,141,142
 63.048828125 340.3203125 63.048828125 340.3203125 79.52734375 339.603515625 c 256,143,144
 96.005859375 339.603515625 96.005859375 339.603515625 107.469726562 326.708007812 c 0,145,146
 118.93359375 313.094726562 118.93359375 313.094726562 119.649414062 294.466796875 c 256,147,148
 119.649414062 275.838867188 119.649414062 275.838867188 107.469726562 262.225585938 c 0,149,150
 102.454101562 256.494140625 102.454101562 256.494140625 96.005859375 252.911132812 c 1,151,-1
 96.005859375 252.911132812 l 1,152,153
 97.439453125 252.1953125 97.439453125 252.1953125 99.587890625 250.762695312 c 1,154,-1
 99.587890625 250.762695312 l 1,155,156
 108.186523438 256.494140625 108.186523438 256.494140625 119.649414062 256.494140625 c 0,157,158
 130.396484375 256.494140625 130.396484375 256.494140625 138.994140625 250.762695312 c 1,159,-1
 138.994140625 250.762695312 l 1,160,161
 147.591796875 256.494140625 147.591796875 256.494140625 159.055664062 256.494140625 c 0,162,163
 169.802734375 256.494140625 169.802734375 256.494140625 179.116210938 250.762695312 c 1,164,-1
 179.116210938 250.762695312 l 1,165,166
 187.713867188 256.494140625 187.713867188 256.494140625 198.4609375 256.494140625 c 0,167,168
 209.923828125 256.494140625 209.923828125 256.494140625 218.521484375 250.762695312 c 1,169,-1
 218.521484375 250.762695312 l 1,170,171
 227.834960938 256.494140625 227.834960938 256.494140625 238.58203125 256.494140625 c 0,172,173
 250.045898438 256.494140625 250.045898438 256.494140625 258.643554688 250.762695312 c 1,174,-1
 258.643554688 250.762695312 l 1,175,176
 260.076171875 251.479492188 260.076171875 251.479492188 261.509765625 252.911132812 c 1,177,-1
 261.509765625 252.911132812 l 1,178,179
 255.061523438 256.494140625 255.061523438 256.494140625 250.045898438 262.225585938 c 0,180,181
 238.58203125 275.838867188 238.58203125 275.838867188 238.58203125 294.466796875 c 256,182,183
 238.58203125 313.094726562 238.58203125 313.094726562 250.045898438 326.708007812 c 0,184,185
 255.061523438 332.439453125 255.061523438 332.439453125 261.509765625 336.021484375 c 1,186,-1
 261.509765625 336.021484375 l 1,187,188
 255.061523438 338.88671875 255.061523438 338.88671875 250.045898438 344.619140625 c 0,189,190
 238.58203125 358.232421875 238.58203125 358.232421875 238.58203125 376.860351562 c 256,191,192
 238.58203125 395.48828125 238.58203125 395.48828125 250.045898438 409.1015625 c 0,193,194
 255.061523438 414.83203125 255.061523438 414.83203125 261.509765625 418.415039062 c 1,195,-1
 261.509765625 418.415039062 l 1,196,197
 255.061523438 421.280273438 255.061523438 421.280273438 250.045898438 427.729492188 c 0,198,199
 238.58203125 441.341796875 238.58203125 441.341796875 238.58203125 459.970703125 c 256,200,201
 238.58203125 478.59765625 238.58203125 478.59765625 250.045898438 492.2109375 c 0,202,203
 255.061523438 497.942382812 255.061523438 497.942382812 261.509765625 501.524414062 c 1,204,-1
 261.509765625 501.524414062 l 1,205,206
 255.061523438 504.390625 255.061523438 504.390625 250.045898438 510.838867188 c 0,207,208
 238.58203125 524.452148438 238.58203125 524.452148438 238.58203125 543.079101562 c 256,209,210
 238.58203125 561.708007812 238.58203125 561.708007812 250.045898438 575.3203125 c 0,211,212
 262.225585938 588.93359375 262.225585938 588.93359375 278.704101562 588.216796875 c 256,213,214
 295.18359375 588.216796875 295.18359375 588.216796875 306.646484375 575.3203125 c 0,215,216
 318.826171875 561.708007812 318.826171875 561.708007812 318.109375 543.079101562 c 256,217,218
 318.109375 524.452148438 318.109375 524.452148438 306.646484375 510.838867188 c 0,219,220
 301.631835938 505.107421875 301.631835938 505.107421875 295.18359375 501.524414062 c 1,221,-1
 295.18359375 501.524414062 l 1,222,223
 301.631835938 497.942382812 301.631835938 497.942382812 306.646484375 492.2109375 c 0,224,225
 318.826171875 478.59765625 318.826171875 478.59765625 318.109375 459.970703125 c 256,226,227
 318.109375 441.341796875 318.109375 441.341796875 306.646484375 427.729492188 c 0,228,229
 301.631835938 421.997070312 301.631835938 421.997070312 295.18359375 418.415039062 c 1,230,-1
 295.18359375 418.415039062 l 1,231,232
 301.631835938 414.83203125 301.631835938 414.83203125 306.646484375 409.1015625 c 0,233,234
 318.826171875 395.48828125 318.826171875 395.48828125 318.109375 376.860351562 c 256,235,236
 318.109375 358.232421875 318.109375 358.232421875 306.646484375 344.619140625 c 0,237,238
 301.631835938 338.88671875 301.631835938 338.88671875 295.18359375 336.021484375 c 1,239,-1
 295.18359375 336.021484375 l 1,240,241
 301.631835938 332.439453125 301.631835938 332.439453125 306.646484375 326.708007812 c 0,242,243
 318.826171875 313.094726562 318.826171875 313.094726562 318.109375 294.466796875 c 256,244,245
 318.109375 275.838867188 318.109375 275.838867188 306.646484375 262.225585938 c 0,246,247
 301.631835938 256.494140625 301.631835938 256.494140625 295.18359375 252.911132812 c 1,248,-1
 295.18359375 252.911132812 l 1,249,250
 296.616210938 252.1953125 296.616210938 252.1953125 298.765625 250.762695312 c 1,251,-1
 298.765625 250.762695312 l 1,252,253
 307.36328125 256.494140625 307.36328125 256.494140625 318.109375 256.494140625 c 0,254,255
 334.588867188 256.494140625 334.588867188 256.494140625 346.051757812 243.59765625 c 0,256,257
 358.232421875 229.985351562 358.232421875 229.985351562 358.232421875 211.356445312 c 256,258,259
 358.232421875 192.728515625 358.232421875 192.728515625 346.051757812 179.116210938 c 0,260,261
 334.588867188 165.502929688 334.588867188 165.502929688 318.109375 165.502929688 c 0,262,263
 306.646484375 165.502929688 306.646484375 165.502929688 298.765625 171.951171875 c 1,264,-1
 298.765625 171.951171875 l 1,265,266
 297.333007812 171.234375 297.333007812 171.234375 295.18359375 169.802734375 c 1,267,-1
 295.18359375 169.802734375 l 1,268,269
 301.631835938 166.935546875 301.631835938 166.935546875 306.646484375 160.487304688 c 0,270,271
 318.826171875 146.875 318.826171875 146.875 318.109375 128.247070312 c 256,272,273
 318.109375 109.618164062 318.109375 109.618164062 306.646484375 96.005859375 c 0,274,275
 301.631835938 90.2744140625 301.631835938 90.2744140625 295.18359375 86.6923828125 c 1,276,-1
 295.18359375 86.6923828125 l 1,277,278
 301.631835938 83.8271484375 301.631835938 83.8271484375 306.646484375 77.3779296875 c 0,279,280
 318.826171875 63.7646484375 318.826171875 63.7646484375 318.109375 45.13671875 c 256,281,282
 318.109375 26.509765625 318.109375 26.509765625 306.646484375 13.6123046875 c 0,283,284
 295.18359375 0 295.18359375 0 278.704101562 0 c 1,285,-1
 278.704101562 0 l 1,75,76
EndSplineSet
EndChar

